%TF.GenerationSoftware,KiCad,Pcbnew,6.0.2+dfsg-1*%
%TF.CreationDate,2022-08-02T13:52:48+02:00*%
%TF.ProjectId,shield,73686965-6c64-42e6-9b69-6361645f7063,rev?*%
%TF.SameCoordinates,Original*%
%TF.FileFunction,Legend,Top*%
%TF.FilePolarity,Positive*%
%FSLAX46Y46*%
G04 Gerber Fmt 4.6, Leading zero omitted, Abs format (unit mm)*
G04 Created by KiCad (PCBNEW 6.0.2+dfsg-1) date 2022-08-02 13:52:48*
%MOMM*%
%LPD*%
G01*
G04 APERTURE LIST*
%ADD10C,0.150000*%
%ADD11C,0.125000*%
%ADD12C,0.160000*%
%ADD13C,0.100000*%
%ADD14C,0.120000*%
%ADD15C,1.501140*%
G04 APERTURE END LIST*
D10*
X115062000Y-103124000D02*
X115570000Y-103124000D01*
X113284000Y-102108000D02*
X93472000Y-102108000D01*
D11*
X99691523Y-92174190D02*
X99691523Y-91674190D01*
X99882000Y-91674190D01*
X99929619Y-91698000D01*
X99953428Y-91721809D01*
X99977238Y-91769428D01*
X99977238Y-91840857D01*
X99953428Y-91888476D01*
X99929619Y-91912285D01*
X99882000Y-91936095D01*
X99691523Y-91936095D01*
X100191523Y-92174190D02*
X100191523Y-91840857D01*
X100191523Y-91936095D02*
X100215333Y-91888476D01*
X100239142Y-91864666D01*
X100286761Y-91840857D01*
X100334380Y-91840857D01*
X100572476Y-92174190D02*
X100524857Y-92150380D01*
X100501047Y-92126571D01*
X100477238Y-92078952D01*
X100477238Y-91936095D01*
X100501047Y-91888476D01*
X100524857Y-91864666D01*
X100572476Y-91840857D01*
X100643904Y-91840857D01*
X100691523Y-91864666D01*
X100715333Y-91888476D01*
X100739142Y-91936095D01*
X100739142Y-92078952D01*
X100715333Y-92126571D01*
X100691523Y-92150380D01*
X100643904Y-92174190D01*
X100572476Y-92174190D01*
X101334380Y-92174190D02*
X101334380Y-91674190D01*
X101501047Y-92031333D01*
X101667714Y-91674190D01*
X101667714Y-92174190D01*
X101905809Y-92174190D02*
X101905809Y-91840857D01*
X101905809Y-91674190D02*
X101882000Y-91698000D01*
X101905809Y-91721809D01*
X101929619Y-91698000D01*
X101905809Y-91674190D01*
X101905809Y-91721809D01*
X102143904Y-91840857D02*
X102143904Y-92174190D01*
X102143904Y-91888476D02*
X102167714Y-91864666D01*
X102215333Y-91840857D01*
X102286761Y-91840857D01*
X102334380Y-91864666D01*
X102358190Y-91912285D01*
X102358190Y-92174190D01*
X102596285Y-92174190D02*
X102596285Y-91840857D01*
X102596285Y-91674190D02*
X102572476Y-91698000D01*
X102596285Y-91721809D01*
X102620095Y-91698000D01*
X102596285Y-91674190D01*
X102596285Y-91721809D01*
X103215333Y-92174190D02*
X103215333Y-91674190D01*
X103215333Y-91912285D02*
X103501047Y-91912285D01*
X103501047Y-92174190D02*
X103501047Y-91674190D01*
X103929619Y-92150380D02*
X103882000Y-92174190D01*
X103786761Y-92174190D01*
X103739142Y-92150380D01*
X103715333Y-92102761D01*
X103715333Y-91912285D01*
X103739142Y-91864666D01*
X103786761Y-91840857D01*
X103882000Y-91840857D01*
X103929619Y-91864666D01*
X103953428Y-91912285D01*
X103953428Y-91959904D01*
X103715333Y-92007523D01*
X104382000Y-92174190D02*
X104382000Y-91912285D01*
X104358190Y-91864666D01*
X104310571Y-91840857D01*
X104215333Y-91840857D01*
X104167714Y-91864666D01*
X104382000Y-92150380D02*
X104334380Y-92174190D01*
X104215333Y-92174190D01*
X104167714Y-92150380D01*
X104143904Y-92102761D01*
X104143904Y-92055142D01*
X104167714Y-92007523D01*
X104215333Y-91983714D01*
X104334380Y-91983714D01*
X104382000Y-91959904D01*
X104834380Y-92174190D02*
X104834380Y-91674190D01*
X104834380Y-92150380D02*
X104786761Y-92174190D01*
X104691523Y-92174190D01*
X104643904Y-92150380D01*
X104620095Y-92126571D01*
X104596285Y-92078952D01*
X104596285Y-91936095D01*
X104620095Y-91888476D01*
X104643904Y-91864666D01*
X104691523Y-91840857D01*
X104786761Y-91840857D01*
X104834380Y-91864666D01*
X105262952Y-92150380D02*
X105215333Y-92174190D01*
X105120095Y-92174190D01*
X105072476Y-92150380D01*
X105048666Y-92102761D01*
X105048666Y-91912285D01*
X105072476Y-91864666D01*
X105120095Y-91840857D01*
X105215333Y-91840857D01*
X105262952Y-91864666D01*
X105286761Y-91912285D01*
X105286761Y-91959904D01*
X105048666Y-92007523D01*
X105501047Y-92174190D02*
X105501047Y-91840857D01*
X105501047Y-91936095D02*
X105524857Y-91888476D01*
X105548666Y-91864666D01*
X105596285Y-91840857D01*
X105643904Y-91840857D01*
X106191523Y-92174190D02*
X106191523Y-91674190D01*
X106405809Y-92174190D02*
X106405809Y-91912285D01*
X106382000Y-91864666D01*
X106334380Y-91840857D01*
X106262952Y-91840857D01*
X106215333Y-91864666D01*
X106191523Y-91888476D01*
X106834380Y-92150380D02*
X106786761Y-92174190D01*
X106691523Y-92174190D01*
X106643904Y-92150380D01*
X106620095Y-92102761D01*
X106620095Y-91912285D01*
X106643904Y-91864666D01*
X106691523Y-91840857D01*
X106786761Y-91840857D01*
X106834380Y-91864666D01*
X106858190Y-91912285D01*
X106858190Y-91959904D01*
X106620095Y-92007523D01*
X107072476Y-92174190D02*
X107072476Y-91840857D01*
X107072476Y-91936095D02*
X107096285Y-91888476D01*
X107120095Y-91864666D01*
X107167714Y-91840857D01*
X107215333Y-91840857D01*
X107572476Y-92150380D02*
X107524857Y-92174190D01*
X107429619Y-92174190D01*
X107382000Y-92150380D01*
X107358190Y-92102761D01*
X107358190Y-91912285D01*
X107382000Y-91864666D01*
X107429619Y-91840857D01*
X107524857Y-91840857D01*
X107572476Y-91864666D01*
X107596285Y-91912285D01*
X107596285Y-91959904D01*
X107358190Y-92007523D01*
X101350000Y-97916952D02*
X101326190Y-97964571D01*
X101326190Y-98036000D01*
X101350000Y-98107428D01*
X101397619Y-98155047D01*
X101445238Y-98178857D01*
X101540476Y-98202666D01*
X101611904Y-98202666D01*
X101707142Y-98178857D01*
X101754761Y-98155047D01*
X101802380Y-98107428D01*
X101826190Y-98036000D01*
X101826190Y-97988380D01*
X101802380Y-97916952D01*
X101778571Y-97893142D01*
X101611904Y-97893142D01*
X101611904Y-97988380D01*
X101826190Y-97678857D02*
X101326190Y-97678857D01*
X101826190Y-97393142D01*
X101326190Y-97393142D01*
X101826190Y-97155047D02*
X101326190Y-97155047D01*
X101326190Y-97036000D01*
X101350000Y-96964571D01*
X101397619Y-96916952D01*
X101445238Y-96893142D01*
X101540476Y-96869333D01*
X101611904Y-96869333D01*
X101707142Y-96893142D01*
X101754761Y-96916952D01*
X101802380Y-96964571D01*
X101826190Y-97036000D01*
X101826190Y-97155047D01*
D10*
X111323428Y-99528573D02*
X111323428Y-98766668D01*
X111704380Y-99147621D02*
X110942476Y-99147621D01*
D11*
X101326190Y-95507904D02*
X101826190Y-95341238D01*
X101326190Y-95174571D01*
X101826190Y-95007904D02*
X101492857Y-95007904D01*
X101326190Y-95007904D02*
X101350000Y-95031714D01*
X101373809Y-95007904D01*
X101350000Y-94984095D01*
X101326190Y-95007904D01*
X101373809Y-95007904D01*
X101492857Y-94769809D02*
X101826190Y-94769809D01*
X101540476Y-94769809D02*
X101516666Y-94746000D01*
X101492857Y-94698380D01*
X101492857Y-94626952D01*
X101516666Y-94579333D01*
X101564285Y-94555523D01*
X101826190Y-94555523D01*
D10*
X111323428Y-96988573D02*
X111323428Y-96226668D01*
D11*
X101326190Y-100837904D02*
X101826190Y-100671238D01*
X101326190Y-100504571D01*
X101826190Y-100266476D02*
X101802380Y-100314095D01*
X101778571Y-100337904D01*
X101730952Y-100361714D01*
X101588095Y-100361714D01*
X101540476Y-100337904D01*
X101516666Y-100314095D01*
X101492857Y-100266476D01*
X101492857Y-100195047D01*
X101516666Y-100147428D01*
X101540476Y-100123619D01*
X101588095Y-100099809D01*
X101730952Y-100099809D01*
X101778571Y-100123619D01*
X101802380Y-100147428D01*
X101826190Y-100195047D01*
X101826190Y-100266476D01*
X101492857Y-99671238D02*
X101826190Y-99671238D01*
X101492857Y-99885523D02*
X101754761Y-99885523D01*
X101802380Y-99861714D01*
X101826190Y-99814095D01*
X101826190Y-99742666D01*
X101802380Y-99695047D01*
X101778571Y-99671238D01*
X101492857Y-99504571D02*
X101492857Y-99314095D01*
X101326190Y-99433142D02*
X101754761Y-99433142D01*
X101802380Y-99409333D01*
X101826190Y-99361714D01*
X101826190Y-99314095D01*
D10*
X100528380Y-61182095D02*
X99528380Y-61182095D01*
X100528380Y-60610666D01*
X99528380Y-60610666D01*
X100480761Y-60182095D02*
X100528380Y-60039238D01*
X100528380Y-59801142D01*
X100480761Y-59705904D01*
X100433142Y-59658285D01*
X100337904Y-59610666D01*
X100242666Y-59610666D01*
X100147428Y-59658285D01*
X100099809Y-59705904D01*
X100052190Y-59801142D01*
X100004571Y-59991619D01*
X99956952Y-60086857D01*
X99909333Y-60134476D01*
X99814095Y-60182095D01*
X99718857Y-60182095D01*
X99623619Y-60134476D01*
X99576000Y-60086857D01*
X99528380Y-59991619D01*
X99528380Y-59753523D01*
X99576000Y-59610666D01*
X100480761Y-59229714D02*
X100528380Y-59086857D01*
X100528380Y-58848761D01*
X100480761Y-58753523D01*
X100433142Y-58705904D01*
X100337904Y-58658285D01*
X100242666Y-58658285D01*
X100147428Y-58705904D01*
X100099809Y-58753523D01*
X100052190Y-58848761D01*
X100004571Y-59039238D01*
X99956952Y-59134476D01*
X99909333Y-59182095D01*
X99814095Y-59229714D01*
X99718857Y-59229714D01*
X99623619Y-59182095D01*
X99576000Y-59134476D01*
X99528380Y-59039238D01*
X99528380Y-58801142D01*
X99576000Y-58658285D01*
%TO.C,RFM69HW1*%
X105100380Y-69254285D02*
X104624190Y-69587619D01*
X105100380Y-69825714D02*
X104100380Y-69825714D01*
X104100380Y-69444761D01*
X104148000Y-69349523D01*
X104195619Y-69301904D01*
X104290857Y-69254285D01*
X104433714Y-69254285D01*
X104528952Y-69301904D01*
X104576571Y-69349523D01*
X104624190Y-69444761D01*
X104624190Y-69825714D01*
X104576571Y-68492380D02*
X104576571Y-68825714D01*
X105100380Y-68825714D02*
X104100380Y-68825714D01*
X104100380Y-68349523D01*
X105100380Y-67968571D02*
X104100380Y-67968571D01*
X104814666Y-67635238D01*
X104100380Y-67301904D01*
X105100380Y-67301904D01*
X104100380Y-66397142D02*
X104100380Y-66587619D01*
X104148000Y-66682857D01*
X104195619Y-66730476D01*
X104338476Y-66825714D01*
X104528952Y-66873333D01*
X104909904Y-66873333D01*
X105005142Y-66825714D01*
X105052761Y-66778095D01*
X105100380Y-66682857D01*
X105100380Y-66492380D01*
X105052761Y-66397142D01*
X105005142Y-66349523D01*
X104909904Y-66301904D01*
X104671809Y-66301904D01*
X104576571Y-66349523D01*
X104528952Y-66397142D01*
X104481333Y-66492380D01*
X104481333Y-66682857D01*
X104528952Y-66778095D01*
X104576571Y-66825714D01*
X104671809Y-66873333D01*
X105100380Y-65825714D02*
X105100380Y-65635238D01*
X105052761Y-65540000D01*
X105005142Y-65492380D01*
X104862285Y-65397142D01*
X104671809Y-65349523D01*
X104290857Y-65349523D01*
X104195619Y-65397142D01*
X104148000Y-65444761D01*
X104100380Y-65540000D01*
X104100380Y-65730476D01*
X104148000Y-65825714D01*
X104195619Y-65873333D01*
X104290857Y-65920952D01*
X104528952Y-65920952D01*
X104624190Y-65873333D01*
X104671809Y-65825714D01*
X104719428Y-65730476D01*
X104719428Y-65540000D01*
X104671809Y-65444761D01*
X104624190Y-65397142D01*
X104528952Y-65349523D01*
X105100380Y-64920952D02*
X104100380Y-64920952D01*
X104576571Y-64920952D02*
X104576571Y-64349523D01*
X105100380Y-64349523D02*
X104100380Y-64349523D01*
X104100380Y-63968571D02*
X105100380Y-63730476D01*
X104386095Y-63540000D01*
X105100380Y-63349523D01*
X104100380Y-63111428D01*
X105100380Y-62206666D02*
X105100380Y-62778095D01*
X105100380Y-62492380D02*
X104100380Y-62492380D01*
X104243238Y-62587619D01*
X104338476Y-62682857D01*
X104386095Y-62778095D01*
%TO.C,C2*%
X94845142Y-94654666D02*
X94892761Y-94702285D01*
X94940380Y-94845142D01*
X94940380Y-94940380D01*
X94892761Y-95083238D01*
X94797523Y-95178476D01*
X94702285Y-95226095D01*
X94511809Y-95273714D01*
X94368952Y-95273714D01*
X94178476Y-95226095D01*
X94083238Y-95178476D01*
X93988000Y-95083238D01*
X93940380Y-94940380D01*
X93940380Y-94845142D01*
X93988000Y-94702285D01*
X94035619Y-94654666D01*
X94035619Y-94273714D02*
X93988000Y-94226095D01*
X93940380Y-94130857D01*
X93940380Y-93892761D01*
X93988000Y-93797523D01*
X94035619Y-93749904D01*
X94130857Y-93702285D01*
X94226095Y-93702285D01*
X94368952Y-93749904D01*
X94940380Y-94321333D01*
X94940380Y-93702285D01*
X94831310Y-94652912D02*
X94878929Y-94700531D01*
X94926548Y-94843388D01*
X94926548Y-94938626D01*
X94878929Y-95081484D01*
X94783691Y-95176722D01*
X94688453Y-95224341D01*
X94497977Y-95271960D01*
X94355120Y-95271960D01*
X94164644Y-95224341D01*
X94069406Y-95176722D01*
X93974168Y-95081484D01*
X93926548Y-94938626D01*
X93926548Y-94843388D01*
X93974168Y-94700531D01*
X94021787Y-94652912D01*
X94021787Y-94271960D02*
X93974168Y-94224341D01*
X93926548Y-94129103D01*
X93926548Y-93891007D01*
X93974168Y-93795769D01*
X94021787Y-93748150D01*
X94117025Y-93700531D01*
X94212263Y-93700531D01*
X94355120Y-93748150D01*
X94926548Y-94319579D01*
X94926548Y-93700531D01*
%TO.C,J1*%
X105624380Y-97869333D02*
X106338666Y-97869333D01*
X106481523Y-97916952D01*
X106576761Y-98012190D01*
X106624380Y-98155047D01*
X106624380Y-98250285D01*
X106624380Y-96869333D02*
X106624380Y-97440761D01*
X106624380Y-97155047D02*
X105624380Y-97155047D01*
X105767238Y-97250285D01*
X105862476Y-97345523D01*
X105910095Y-97440761D01*
%TO.C,J2*%
X111720380Y-98123333D02*
X112434666Y-98123333D01*
X112577523Y-98170952D01*
X112672761Y-98266190D01*
X112720380Y-98409047D01*
X112720380Y-98504285D01*
X111815619Y-97694761D02*
X111768000Y-97647142D01*
X111720380Y-97551904D01*
X111720380Y-97313809D01*
X111768000Y-97218571D01*
X111815619Y-97170952D01*
X111910857Y-97123333D01*
X112006095Y-97123333D01*
X112148952Y-97170952D01*
X112720380Y-97742380D01*
X112720380Y-97123333D01*
%TO.C,R1*%
X99401333Y-107640380D02*
X99068000Y-107164190D01*
X98829904Y-107640380D02*
X98829904Y-106640380D01*
X99210857Y-106640380D01*
X99306095Y-106688000D01*
X99353714Y-106735619D01*
X99401333Y-106830857D01*
X99401333Y-106973714D01*
X99353714Y-107068952D01*
X99306095Y-107116571D01*
X99210857Y-107164190D01*
X98829904Y-107164190D01*
X100353714Y-107640380D02*
X99782285Y-107640380D01*
X100068000Y-107640380D02*
X100068000Y-106640380D01*
X99972761Y-106783238D01*
X99877523Y-106878476D01*
X99782285Y-106926095D01*
%TO.C,R2*%
X99401333Y-105100380D02*
X99068000Y-104624190D01*
X98829904Y-105100380D02*
X98829904Y-104100380D01*
X99210857Y-104100380D01*
X99306095Y-104148000D01*
X99353714Y-104195619D01*
X99401333Y-104290857D01*
X99401333Y-104433714D01*
X99353714Y-104528952D01*
X99306095Y-104576571D01*
X99210857Y-104624190D01*
X98829904Y-104624190D01*
X99782285Y-104195619D02*
X99829904Y-104148000D01*
X99925142Y-104100380D01*
X100163238Y-104100380D01*
X100258476Y-104148000D01*
X100306095Y-104195619D01*
X100353714Y-104290857D01*
X100353714Y-104386095D01*
X100306095Y-104528952D01*
X99734666Y-105100380D01*
X100353714Y-105100380D01*
%TO.C,C1*%
X107037142Y-108878666D02*
X107084761Y-108926285D01*
X107132380Y-109069142D01*
X107132380Y-109164380D01*
X107084761Y-109307238D01*
X106989523Y-109402476D01*
X106894285Y-109450095D01*
X106703809Y-109497714D01*
X106560952Y-109497714D01*
X106370476Y-109450095D01*
X106275238Y-109402476D01*
X106180000Y-109307238D01*
X106132380Y-109164380D01*
X106132380Y-109069142D01*
X106180000Y-108926285D01*
X106227619Y-108878666D01*
X107132380Y-107926285D02*
X107132380Y-108497714D01*
X107132380Y-108212000D02*
X106132380Y-108212000D01*
X106275238Y-108307238D01*
X106370476Y-108402476D01*
X106418095Y-108497714D01*
X114485142Y-111699904D02*
X114532761Y-111747523D01*
X114580380Y-111890380D01*
X114580380Y-111985619D01*
X114532761Y-112128476D01*
X114437523Y-112223714D01*
X114342285Y-112271333D01*
X114151809Y-112318952D01*
X114008952Y-112318952D01*
X113818476Y-112271333D01*
X113723238Y-112223714D01*
X113628000Y-112128476D01*
X113580380Y-111985619D01*
X113580380Y-111890380D01*
X113628000Y-111747523D01*
X113675619Y-111699904D01*
X113580380Y-110652285D02*
X114580380Y-110318952D01*
X113580380Y-109985619D01*
X114580380Y-109509428D02*
X114532761Y-109604666D01*
X114485142Y-109652285D01*
X114389904Y-109699904D01*
X114104190Y-109699904D01*
X114008952Y-109652285D01*
X113961333Y-109604666D01*
X113913714Y-109509428D01*
X113913714Y-109366571D01*
X113961333Y-109271333D01*
X114008952Y-109223714D01*
X114104190Y-109176095D01*
X114389904Y-109176095D01*
X114485142Y-109223714D01*
X114532761Y-109271333D01*
X114580380Y-109366571D01*
X114580380Y-109509428D01*
X114580380Y-108604666D02*
X114532761Y-108699904D01*
X114437523Y-108747523D01*
X113580380Y-108747523D01*
X113913714Y-108366571D02*
X113913714Y-107985619D01*
X113580380Y-108223714D02*
X114437523Y-108223714D01*
X114532761Y-108176095D01*
X114580380Y-108080857D01*
X114580380Y-107985619D01*
X114580380Y-107223714D02*
X114056571Y-107223714D01*
X113961333Y-107271333D01*
X113913714Y-107366571D01*
X113913714Y-107557047D01*
X113961333Y-107652285D01*
X114532761Y-107223714D02*
X114580380Y-107318952D01*
X114580380Y-107557047D01*
X114532761Y-107652285D01*
X114437523Y-107699904D01*
X114342285Y-107699904D01*
X114247047Y-107652285D01*
X114199428Y-107557047D01*
X114199428Y-107318952D01*
X114151809Y-107223714D01*
X113913714Y-106318952D02*
X114723238Y-106318952D01*
X114818476Y-106366571D01*
X114866095Y-106414190D01*
X114913714Y-106509428D01*
X114913714Y-106652285D01*
X114866095Y-106747523D01*
X114532761Y-106318952D02*
X114580380Y-106414190D01*
X114580380Y-106604666D01*
X114532761Y-106699904D01*
X114485142Y-106747523D01*
X114389904Y-106795142D01*
X114104190Y-106795142D01*
X114008952Y-106747523D01*
X113961333Y-106699904D01*
X113913714Y-106604666D01*
X113913714Y-106414190D01*
X113961333Y-106318952D01*
X114532761Y-105461809D02*
X114580380Y-105557047D01*
X114580380Y-105747523D01*
X114532761Y-105842761D01*
X114437523Y-105890380D01*
X114056571Y-105890380D01*
X113961333Y-105842761D01*
X113913714Y-105747523D01*
X113913714Y-105557047D01*
X113961333Y-105461809D01*
X114056571Y-105414190D01*
X114151809Y-105414190D01*
X114247047Y-105890380D01*
X114580380Y-104223714D02*
X113580380Y-104223714D01*
X113580380Y-103985619D01*
X113628000Y-103842761D01*
X113723238Y-103747523D01*
X113818476Y-103699904D01*
X114008952Y-103652285D01*
X114151809Y-103652285D01*
X114342285Y-103699904D01*
X114437523Y-103747523D01*
X114532761Y-103842761D01*
X114580380Y-103985619D01*
X114580380Y-104223714D01*
X114580380Y-103223714D02*
X113913714Y-103223714D01*
X113580380Y-103223714D02*
X113628000Y-103271333D01*
X113675619Y-103223714D01*
X113628000Y-103176095D01*
X113580380Y-103223714D01*
X113675619Y-103223714D01*
X113913714Y-102842761D02*
X114580380Y-102604666D01*
X113913714Y-102366571D01*
X114580380Y-101985619D02*
X113913714Y-101985619D01*
X113580380Y-101985619D02*
X113628000Y-102033238D01*
X113675619Y-101985619D01*
X113628000Y-101938000D01*
X113580380Y-101985619D01*
X113675619Y-101985619D01*
X114580380Y-101080857D02*
X113580380Y-101080857D01*
X114532761Y-101080857D02*
X114580380Y-101176095D01*
X114580380Y-101366571D01*
X114532761Y-101461809D01*
X114485142Y-101509428D01*
X114389904Y-101557047D01*
X114104190Y-101557047D01*
X114008952Y-101509428D01*
X113961333Y-101461809D01*
X113913714Y-101366571D01*
X113913714Y-101176095D01*
X113961333Y-101080857D01*
X114532761Y-100223714D02*
X114580380Y-100318952D01*
X114580380Y-100509428D01*
X114532761Y-100604666D01*
X114437523Y-100652285D01*
X114056571Y-100652285D01*
X113961333Y-100604666D01*
X113913714Y-100509428D01*
X113913714Y-100318952D01*
X113961333Y-100223714D01*
X114056571Y-100176095D01*
X114151809Y-100176095D01*
X114247047Y-100652285D01*
X114580380Y-99747523D02*
X113913714Y-99747523D01*
X114104190Y-99747523D02*
X114008952Y-99699904D01*
X113961333Y-99652285D01*
X113913714Y-99557047D01*
X113913714Y-99461809D01*
D12*
%TO.C,ProMini1*%
X115169904Y-91935000D02*
X114369904Y-91935000D01*
X114369904Y-91630238D01*
X114408000Y-91554047D01*
X114446095Y-91515952D01*
X114522285Y-91477857D01*
X114636571Y-91477857D01*
X114712761Y-91515952D01*
X114750857Y-91554047D01*
X114788952Y-91630238D01*
X114788952Y-91935000D01*
X115169904Y-91135000D02*
X114636571Y-91135000D01*
X114788952Y-91135000D02*
X114712761Y-91096904D01*
X114674666Y-91058809D01*
X114636571Y-90982619D01*
X114636571Y-90906428D01*
X115169904Y-90525476D02*
X115131809Y-90601666D01*
X115093714Y-90639761D01*
X115017523Y-90677857D01*
X114788952Y-90677857D01*
X114712761Y-90639761D01*
X114674666Y-90601666D01*
X114636571Y-90525476D01*
X114636571Y-90411190D01*
X114674666Y-90335000D01*
X114712761Y-90296904D01*
X114788952Y-90258809D01*
X115017523Y-90258809D01*
X115093714Y-90296904D01*
X115131809Y-90335000D01*
X115169904Y-90411190D01*
X115169904Y-90525476D01*
X115169904Y-89915952D02*
X114369904Y-89915952D01*
X114941333Y-89649285D01*
X114369904Y-89382619D01*
X115169904Y-89382619D01*
X115169904Y-89001666D02*
X114636571Y-89001666D01*
X114369904Y-89001666D02*
X114408000Y-89039761D01*
X114446095Y-89001666D01*
X114408000Y-88963571D01*
X114369904Y-89001666D01*
X114446095Y-89001666D01*
X114636571Y-88620714D02*
X115169904Y-88620714D01*
X114712761Y-88620714D02*
X114674666Y-88582619D01*
X114636571Y-88506428D01*
X114636571Y-88392142D01*
X114674666Y-88315952D01*
X114750857Y-88277857D01*
X115169904Y-88277857D01*
X115169904Y-87896904D02*
X114636571Y-87896904D01*
X114369904Y-87896904D02*
X114408000Y-87935000D01*
X114446095Y-87896904D01*
X114408000Y-87858809D01*
X114369904Y-87896904D01*
X114446095Y-87896904D01*
X115169904Y-87096904D02*
X115169904Y-87554047D01*
X115169904Y-87325476D02*
X114369904Y-87325476D01*
X114484190Y-87401666D01*
X114560380Y-87477857D01*
X114598476Y-87554047D01*
D10*
X99520952Y-79192380D02*
X99520952Y-78192380D01*
X99901904Y-78192380D01*
X99997142Y-78240000D01*
X100044761Y-78287619D01*
X100092380Y-78382857D01*
X100092380Y-78525714D01*
X100044761Y-78620952D01*
X99997142Y-78668571D01*
X99901904Y-78716190D01*
X99520952Y-78716190D01*
X100520952Y-79192380D02*
X100520952Y-78525714D01*
X100520952Y-78716190D02*
X100568571Y-78620952D01*
X100616190Y-78573333D01*
X100711428Y-78525714D01*
X100806666Y-78525714D01*
X101282857Y-79192380D02*
X101187619Y-79144761D01*
X101140000Y-79097142D01*
X101092380Y-79001904D01*
X101092380Y-78716190D01*
X101140000Y-78620952D01*
X101187619Y-78573333D01*
X101282857Y-78525714D01*
X101425714Y-78525714D01*
X101520952Y-78573333D01*
X101568571Y-78620952D01*
X101616190Y-78716190D01*
X101616190Y-79001904D01*
X101568571Y-79097142D01*
X101520952Y-79144761D01*
X101425714Y-79192380D01*
X101282857Y-79192380D01*
X102806666Y-79192380D02*
X102806666Y-78192380D01*
X103140000Y-78906666D01*
X103473333Y-78192380D01*
X103473333Y-79192380D01*
X103949523Y-79192380D02*
X103949523Y-78525714D01*
X103949523Y-78192380D02*
X103901904Y-78240000D01*
X103949523Y-78287619D01*
X103997142Y-78240000D01*
X103949523Y-78192380D01*
X103949523Y-78287619D01*
X104425714Y-78525714D02*
X104425714Y-79192380D01*
X104425714Y-78620952D02*
X104473333Y-78573333D01*
X104568571Y-78525714D01*
X104711428Y-78525714D01*
X104806666Y-78573333D01*
X104854285Y-78668571D01*
X104854285Y-79192380D01*
X105330476Y-79192380D02*
X105330476Y-78525714D01*
X105330476Y-78192380D02*
X105282857Y-78240000D01*
X105330476Y-78287619D01*
X105378095Y-78240000D01*
X105330476Y-78192380D01*
X105330476Y-78287619D01*
X106473333Y-78192380D02*
X107092380Y-78192380D01*
X106759047Y-78573333D01*
X106901904Y-78573333D01*
X106997142Y-78620952D01*
X107044761Y-78668571D01*
X107092380Y-78763809D01*
X107092380Y-79001904D01*
X107044761Y-79097142D01*
X106997142Y-79144761D01*
X106901904Y-79192380D01*
X106616190Y-79192380D01*
X106520952Y-79144761D01*
X106473333Y-79097142D01*
X107425714Y-78525714D02*
X107663809Y-79192380D01*
X107901904Y-78525714D01*
X108187619Y-78192380D02*
X108806666Y-78192380D01*
X108473333Y-78573333D01*
X108616190Y-78573333D01*
X108711428Y-78620952D01*
X108759047Y-78668571D01*
X108806666Y-78763809D01*
X108806666Y-79001904D01*
X108759047Y-79097142D01*
X108711428Y-79144761D01*
X108616190Y-79192380D01*
X108330476Y-79192380D01*
X108235238Y-79144761D01*
X108187619Y-79097142D01*
%TO.C,J3*%
X101560380Y-86693333D02*
X102274666Y-86693333D01*
X102417523Y-86740952D01*
X102512761Y-86836190D01*
X102560380Y-86979047D01*
X102560380Y-87074285D01*
X101560380Y-86312380D02*
X101560380Y-85693333D01*
X101941333Y-86026666D01*
X101941333Y-85883809D01*
X101988952Y-85788571D01*
X102036571Y-85740952D01*
X102131809Y-85693333D01*
X102369904Y-85693333D01*
X102465142Y-85740952D01*
X102512761Y-85788571D01*
X102560380Y-85883809D01*
X102560380Y-86169523D01*
X102512761Y-86264761D01*
X102465142Y-86312380D01*
D13*
%TO.C,RFM69HW1*%
X96575000Y-76090000D02*
X96575000Y-66090000D01*
X96575000Y-55990000D02*
X96975000Y-55990000D01*
X112975000Y-76090000D02*
X112975000Y-75590000D01*
X112575000Y-76090000D02*
X112975000Y-76090000D01*
X96575000Y-56490000D02*
X96575000Y-55990000D01*
X112975000Y-56490000D02*
X112975000Y-55990000D01*
X112575000Y-55990000D02*
X112975000Y-55990000D01*
X96575000Y-76090000D02*
X96975000Y-76090000D01*
D14*
%TO.C,C2*%
X98068000Y-97049000D02*
X100169000Y-97049000D01*
X98068000Y-97570000D02*
X100250000Y-97570000D01*
X94392000Y-95929000D02*
X95988000Y-95929000D01*
X98068000Y-95849000D02*
X99606000Y-95849000D01*
X95252000Y-95089000D02*
X98804000Y-95089000D01*
X98068000Y-95969000D02*
X99692000Y-95969000D01*
X93839000Y-97290000D02*
X95988000Y-97290000D01*
X98068000Y-96529000D02*
X99998000Y-96529000D01*
X98068000Y-96449000D02*
X99962000Y-96449000D01*
X98068000Y-96249000D02*
X99862000Y-96249000D01*
X93817000Y-97450000D02*
X95988000Y-97450000D01*
X94512000Y-95769000D02*
X95988000Y-95769000D01*
X94112000Y-96409000D02*
X95988000Y-96409000D01*
X96626000Y-94569000D02*
X97430000Y-94569000D01*
X95447000Y-94969000D02*
X98609000Y-94969000D01*
X95189000Y-101310241D02*
X95189000Y-100680241D01*
X94026000Y-96609000D02*
X95988000Y-96609000D01*
X94891000Y-95369000D02*
X99165000Y-95369000D01*
X98068000Y-96489000D02*
X99980000Y-96489000D01*
X95596000Y-94889000D02*
X98460000Y-94889000D01*
X98068000Y-95689000D02*
X99478000Y-95689000D01*
X98068000Y-96009000D02*
X99718000Y-96009000D01*
X98068000Y-95609000D02*
X99408000Y-95609000D01*
X94312000Y-96049000D02*
X95988000Y-96049000D01*
X98068000Y-97089000D02*
X100178000Y-97089000D01*
X93981000Y-96729000D02*
X95988000Y-96729000D01*
X98068000Y-97250000D02*
X100210000Y-97250000D01*
X94216000Y-96209000D02*
X95988000Y-96209000D01*
X95519000Y-94929000D02*
X98537000Y-94929000D01*
X98068000Y-97450000D02*
X100239000Y-97450000D01*
X93942000Y-96849000D02*
X95988000Y-96849000D01*
X94262000Y-96129000D02*
X95988000Y-96129000D01*
X94338000Y-96009000D02*
X95988000Y-96009000D01*
X98068000Y-97370000D02*
X100229000Y-97370000D01*
X93907000Y-96969000D02*
X95988000Y-96969000D01*
X98068000Y-96889000D02*
X100126000Y-96889000D01*
X93918000Y-96929000D02*
X95988000Y-96929000D01*
X98068000Y-95929000D02*
X99664000Y-95929000D01*
X95678000Y-94849000D02*
X98378000Y-94849000D01*
X98068000Y-96929000D02*
X100138000Y-96929000D01*
X95863000Y-94769000D02*
X98193000Y-94769000D01*
X98068000Y-96849000D02*
X100114000Y-96849000D01*
X98068000Y-96689000D02*
X100061000Y-96689000D01*
X94194000Y-96249000D02*
X95988000Y-96249000D01*
X93861000Y-97170000D02*
X95988000Y-97170000D01*
X94874000Y-100995241D02*
X95504000Y-100995241D01*
X98068000Y-96809000D02*
X100102000Y-96809000D01*
X93822000Y-97410000D02*
X95988000Y-97410000D01*
X94984000Y-95289000D02*
X99072000Y-95289000D01*
X94450000Y-95849000D02*
X95988000Y-95849000D01*
X98068000Y-96049000D02*
X99744000Y-96049000D01*
X93813000Y-97490000D02*
X95988000Y-97490000D01*
X95194000Y-95129000D02*
X98862000Y-95129000D01*
X95378000Y-95009000D02*
X98678000Y-95009000D01*
X98068000Y-97009000D02*
X100159000Y-97009000D01*
X98068000Y-96769000D02*
X100089000Y-96769000D01*
X94364000Y-95969000D02*
X95988000Y-95969000D01*
X98068000Y-95649000D02*
X99444000Y-95649000D01*
X93804000Y-97610000D02*
X100252000Y-97610000D01*
X93810000Y-97530000D02*
X95988000Y-97530000D01*
X98068000Y-95529000D02*
X99333000Y-95529000D01*
X98068000Y-95729000D02*
X99512000Y-95729000D01*
X94058000Y-96529000D02*
X95988000Y-96529000D01*
X98068000Y-96569000D02*
X100014000Y-96569000D01*
X98068000Y-96969000D02*
X100149000Y-96969000D01*
X98068000Y-96209000D02*
X99840000Y-96209000D01*
X98068000Y-97530000D02*
X100246000Y-97530000D01*
X94612000Y-95649000D02*
X95988000Y-95649000D01*
X94685000Y-95569000D02*
X95988000Y-95569000D01*
X94846000Y-95409000D02*
X99210000Y-95409000D01*
X98068000Y-97410000D02*
X100234000Y-97410000D01*
X98068000Y-96329000D02*
X99904000Y-96329000D01*
X93853000Y-97210000D02*
X95988000Y-97210000D01*
X95766000Y-94809000D02*
X98290000Y-94809000D01*
X93897000Y-97009000D02*
X95988000Y-97009000D01*
X98068000Y-97170000D02*
X100195000Y-97170000D01*
X94286000Y-96089000D02*
X95988000Y-96089000D01*
X94578000Y-95689000D02*
X95988000Y-95689000D01*
X93798000Y-97730000D02*
X100258000Y-97730000D01*
X93930000Y-96889000D02*
X95988000Y-96889000D01*
X93798000Y-97770000D02*
X100258000Y-97770000D01*
X98068000Y-95889000D02*
X99635000Y-95889000D01*
X93833000Y-97330000D02*
X95988000Y-97330000D01*
X94804000Y-95449000D02*
X99252000Y-95449000D01*
X93878000Y-97089000D02*
X95988000Y-97089000D01*
X98068000Y-95769000D02*
X99544000Y-95769000D01*
X95138000Y-95169000D02*
X98918000Y-95169000D01*
X94010000Y-96649000D02*
X95988000Y-96649000D01*
X98068000Y-97290000D02*
X100217000Y-97290000D01*
X98068000Y-96089000D02*
X99770000Y-96089000D01*
X93827000Y-97370000D02*
X95988000Y-97370000D01*
X94042000Y-96569000D02*
X95988000Y-96569000D01*
X98068000Y-97130000D02*
X100187000Y-97130000D01*
X94238000Y-96169000D02*
X95988000Y-96169000D01*
X94544000Y-95729000D02*
X95988000Y-95729000D01*
X96395000Y-94609000D02*
X97661000Y-94609000D01*
X93846000Y-97250000D02*
X95988000Y-97250000D01*
X94152000Y-96329000D02*
X95988000Y-96329000D01*
X93798000Y-97810000D02*
X100258000Y-97810000D01*
X94421000Y-95889000D02*
X95988000Y-95889000D01*
X98068000Y-96369000D02*
X99924000Y-96369000D01*
X98068000Y-96729000D02*
X100075000Y-96729000D01*
X98068000Y-95569000D02*
X99371000Y-95569000D01*
X93869000Y-97130000D02*
X95988000Y-97130000D01*
X94763000Y-95489000D02*
X99293000Y-95489000D01*
X94094000Y-96449000D02*
X95988000Y-96449000D01*
X95084000Y-95209000D02*
X98972000Y-95209000D01*
X93800000Y-97690000D02*
X100256000Y-97690000D01*
X93967000Y-96769000D02*
X95988000Y-96769000D01*
X95969000Y-94729000D02*
X98087000Y-94729000D01*
X94172000Y-96289000D02*
X95988000Y-96289000D01*
X94480000Y-95809000D02*
X95988000Y-95809000D01*
X98068000Y-97330000D02*
X100223000Y-97330000D01*
X98068000Y-96609000D02*
X100030000Y-96609000D01*
X98068000Y-96649000D02*
X100046000Y-96649000D01*
X98068000Y-95809000D02*
X99576000Y-95809000D01*
X98068000Y-96409000D02*
X99944000Y-96409000D01*
X98068000Y-97210000D02*
X100203000Y-97210000D01*
X95033000Y-95249000D02*
X99023000Y-95249000D01*
X94132000Y-96369000D02*
X95988000Y-96369000D01*
X95314000Y-95049000D02*
X98742000Y-95049000D01*
X93806000Y-97570000D02*
X95988000Y-97570000D01*
X93887000Y-97049000D02*
X95988000Y-97049000D01*
X96088000Y-94689000D02*
X97968000Y-94689000D01*
X93954000Y-96809000D02*
X95988000Y-96809000D01*
X98068000Y-96289000D02*
X99884000Y-96289000D01*
X94936000Y-95329000D02*
X99120000Y-95329000D01*
X94723000Y-95529000D02*
X95988000Y-95529000D01*
X93801000Y-97650000D02*
X100255000Y-97650000D01*
X93995000Y-96689000D02*
X95988000Y-96689000D01*
X94648000Y-95609000D02*
X95988000Y-95609000D01*
X98068000Y-97490000D02*
X100243000Y-97490000D01*
X98068000Y-96129000D02*
X99794000Y-96129000D01*
X94076000Y-96489000D02*
X95988000Y-96489000D01*
X98068000Y-96169000D02*
X99818000Y-96169000D01*
X96226000Y-94649000D02*
X97830000Y-94649000D01*
X100298000Y-97810000D02*
G75*
G03*
X100298000Y-97810000I-3270000J0D01*
G01*
%TO.C,J1*%
X104962000Y-98791000D02*
X104962000Y-93651000D01*
X104962000Y-98791000D02*
X102302000Y-98791000D01*
X102302000Y-98791000D02*
X102302000Y-93651000D01*
X104962000Y-93651000D02*
X102302000Y-93651000D01*
X104962000Y-100061000D02*
X104962000Y-101391000D01*
X104962000Y-101391000D02*
X103632000Y-101391000D01*
%TO.C,J2*%
X110550000Y-95190000D02*
X107890000Y-95190000D01*
X110550000Y-97790000D02*
X110550000Y-95190000D01*
X107890000Y-97790000D02*
X107890000Y-95190000D01*
X110550000Y-99060000D02*
X110550000Y-100390000D01*
X110550000Y-97790000D02*
X107890000Y-97790000D01*
X110550000Y-100390000D02*
X109220000Y-100390000D01*
%TO.C,R1*%
X96298000Y-105818000D02*
X96298000Y-108558000D01*
X102838000Y-105818000D02*
X96298000Y-105818000D01*
X96298000Y-108558000D02*
X102838000Y-108558000D01*
X103608000Y-107188000D02*
X102838000Y-107188000D01*
X102838000Y-108558000D02*
X102838000Y-105818000D01*
X95528000Y-107188000D02*
X96298000Y-107188000D01*
%TO.C,R2*%
X96298000Y-106018000D02*
X102838000Y-106018000D01*
X102838000Y-106018000D02*
X102838000Y-103278000D01*
X103608000Y-104648000D02*
X102838000Y-104648000D01*
X96298000Y-103278000D02*
X96298000Y-106018000D01*
X102838000Y-103278000D02*
X96298000Y-103278000D01*
X95528000Y-104648000D02*
X96298000Y-104648000D01*
%TO.C,C1*%
X107180000Y-103937000D02*
X108688000Y-103937000D01*
X107463000Y-103617000D02*
X111993000Y-103617000D01*
X106506000Y-105698000D02*
X108688000Y-105698000D01*
X110768000Y-103817000D02*
X112178000Y-103817000D01*
X106794000Y-104577000D02*
X108688000Y-104577000D01*
X110768000Y-105217000D02*
X112878000Y-105217000D01*
X110768000Y-104617000D02*
X112680000Y-104617000D01*
X108378000Y-102977000D02*
X111078000Y-102977000D01*
X110768000Y-103857000D02*
X112212000Y-103857000D01*
X108788000Y-102817000D02*
X110668000Y-102817000D01*
X110768000Y-104537000D02*
X112644000Y-104537000D01*
X106498000Y-105898000D02*
X112958000Y-105898000D01*
X107212000Y-103897000D02*
X108688000Y-103897000D01*
X110768000Y-103697000D02*
X112071000Y-103697000D01*
X106539000Y-105418000D02*
X108688000Y-105418000D01*
X110768000Y-104857000D02*
X112775000Y-104857000D01*
X110768000Y-103897000D02*
X112244000Y-103897000D01*
X110768000Y-104977000D02*
X112814000Y-104977000D01*
X107733000Y-103377000D02*
X111723000Y-103377000D01*
X107894000Y-103257000D02*
X111562000Y-103257000D01*
X108219000Y-103057000D02*
X111237000Y-103057000D01*
X106578000Y-105217000D02*
X108688000Y-105217000D01*
X107838000Y-103297000D02*
X111618000Y-103297000D01*
X110768000Y-105137000D02*
X112859000Y-105137000D01*
X106522000Y-105538000D02*
X108688000Y-105538000D01*
X110768000Y-104817000D02*
X112761000Y-104817000D01*
X110768000Y-104217000D02*
X112470000Y-104217000D01*
X110768000Y-105378000D02*
X112910000Y-105378000D01*
X110768000Y-105057000D02*
X112838000Y-105057000D01*
X106500000Y-105818000D02*
X112956000Y-105818000D01*
X110768000Y-105338000D02*
X112903000Y-105338000D01*
X106587000Y-105177000D02*
X108688000Y-105177000D01*
X110768000Y-105177000D02*
X112869000Y-105177000D01*
X107546000Y-103537000D02*
X111910000Y-103537000D01*
X110768000Y-104457000D02*
X112604000Y-104457000D01*
X110768000Y-103977000D02*
X112306000Y-103977000D01*
X107092000Y-104057000D02*
X108688000Y-104057000D01*
X106546000Y-105378000D02*
X108688000Y-105378000D01*
X106527000Y-105498000D02*
X108688000Y-105498000D01*
X106501000Y-105778000D02*
X112955000Y-105778000D01*
X110768000Y-105498000D02*
X112929000Y-105498000D01*
X106695000Y-104817000D02*
X108688000Y-104817000D01*
X110768000Y-103737000D02*
X112108000Y-103737000D01*
X107385000Y-103697000D02*
X108688000Y-103697000D01*
X110768000Y-103777000D02*
X112144000Y-103777000D01*
X110768000Y-104337000D02*
X112540000Y-104337000D01*
X108563000Y-102897000D02*
X110893000Y-102897000D01*
X107038000Y-104137000D02*
X108688000Y-104137000D01*
X106618000Y-105057000D02*
X108688000Y-105057000D01*
X106812000Y-104537000D02*
X108688000Y-104537000D01*
X106962000Y-104257000D02*
X108688000Y-104257000D01*
X107064000Y-104097000D02*
X108688000Y-104097000D01*
X110768000Y-104297000D02*
X112518000Y-104297000D01*
X108466000Y-102937000D02*
X110990000Y-102937000D01*
X110768000Y-105698000D02*
X112950000Y-105698000D01*
X110768000Y-104257000D02*
X112494000Y-104257000D01*
X110768000Y-104777000D02*
X112746000Y-104777000D01*
X106569000Y-105258000D02*
X108688000Y-105258000D01*
X110768000Y-105458000D02*
X112923000Y-105458000D01*
X106776000Y-104617000D02*
X108688000Y-104617000D01*
X107012000Y-104177000D02*
X108688000Y-104177000D01*
X110768000Y-105578000D02*
X112939000Y-105578000D01*
X107504000Y-103577000D02*
X111952000Y-103577000D01*
X106630000Y-105017000D02*
X108688000Y-105017000D01*
X108926000Y-102777000D02*
X110530000Y-102777000D01*
X106513000Y-105618000D02*
X108688000Y-105618000D01*
X106726000Y-104737000D02*
X108688000Y-104737000D01*
X107150000Y-103977000D02*
X108688000Y-103977000D01*
X106517000Y-105578000D02*
X108688000Y-105578000D01*
X110768000Y-105538000D02*
X112934000Y-105538000D01*
X106553000Y-105338000D02*
X108688000Y-105338000D01*
X106561000Y-105298000D02*
X108688000Y-105298000D01*
X110768000Y-105618000D02*
X112943000Y-105618000D01*
X110768000Y-104937000D02*
X112802000Y-104937000D01*
X106533000Y-105458000D02*
X108688000Y-105458000D01*
X107423000Y-103657000D02*
X108688000Y-103657000D01*
X108147000Y-103097000D02*
X111309000Y-103097000D01*
X107784000Y-103337000D02*
X111672000Y-103337000D01*
X106916000Y-104337000D02*
X108688000Y-104337000D01*
X110768000Y-103937000D02*
X112276000Y-103937000D01*
X106681000Y-104857000D02*
X108688000Y-104857000D01*
X106504000Y-105738000D02*
X112952000Y-105738000D01*
X107348000Y-103737000D02*
X108688000Y-103737000D01*
X110768000Y-104697000D02*
X112714000Y-104697000D01*
X109326000Y-102697000D02*
X110130000Y-102697000D01*
X107636000Y-103457000D02*
X111820000Y-103457000D01*
X110768000Y-105298000D02*
X112895000Y-105298000D01*
X110768000Y-104417000D02*
X112584000Y-104417000D01*
X106710000Y-104777000D02*
X108688000Y-104777000D01*
X106742000Y-104697000D02*
X108688000Y-104697000D01*
X108296000Y-103017000D02*
X111160000Y-103017000D01*
X110768000Y-105658000D02*
X112946000Y-105658000D01*
X107591000Y-103497000D02*
X111865000Y-103497000D01*
X110768000Y-103657000D02*
X112033000Y-103657000D01*
X106607000Y-105097000D02*
X108688000Y-105097000D01*
X110768000Y-104737000D02*
X112730000Y-104737000D01*
X108669000Y-102857000D02*
X110787000Y-102857000D01*
X107278000Y-103817000D02*
X108688000Y-103817000D01*
X106642000Y-104977000D02*
X108688000Y-104977000D01*
X110768000Y-104497000D02*
X112624000Y-104497000D01*
X107312000Y-103777000D02*
X108688000Y-103777000D01*
X107244000Y-103857000D02*
X108688000Y-103857000D01*
X106938000Y-104297000D02*
X108688000Y-104297000D01*
X110768000Y-104017000D02*
X112335000Y-104017000D01*
X108014000Y-103177000D02*
X111442000Y-103177000D01*
X106832000Y-104497000D02*
X108688000Y-104497000D01*
X110768000Y-105017000D02*
X112826000Y-105017000D01*
X109095000Y-102737000D02*
X110361000Y-102737000D01*
X107889000Y-109438241D02*
X107889000Y-108808241D01*
X110768000Y-104097000D02*
X112392000Y-104097000D01*
X110768000Y-104377000D02*
X112562000Y-104377000D01*
X107121000Y-104017000D02*
X108688000Y-104017000D01*
X106852000Y-104457000D02*
X108688000Y-104457000D01*
X108078000Y-103137000D02*
X111378000Y-103137000D01*
X110768000Y-105418000D02*
X112917000Y-105418000D01*
X106498000Y-105858000D02*
X112958000Y-105858000D01*
X106986000Y-104217000D02*
X108688000Y-104217000D01*
X106894000Y-104377000D02*
X108688000Y-104377000D01*
X106498000Y-105938000D02*
X112958000Y-105938000D01*
X106667000Y-104897000D02*
X108688000Y-104897000D01*
X107952000Y-103217000D02*
X111504000Y-103217000D01*
X110768000Y-104137000D02*
X112418000Y-104137000D01*
X107684000Y-103417000D02*
X111772000Y-103417000D01*
X110768000Y-104657000D02*
X112698000Y-104657000D01*
X110768000Y-104177000D02*
X112444000Y-104177000D01*
X110768000Y-104057000D02*
X112364000Y-104057000D01*
X106510000Y-105658000D02*
X108688000Y-105658000D01*
X106597000Y-105137000D02*
X108688000Y-105137000D01*
X110768000Y-105258000D02*
X112887000Y-105258000D01*
X110768000Y-104577000D02*
X112662000Y-104577000D01*
X110768000Y-105097000D02*
X112849000Y-105097000D01*
X106758000Y-104657000D02*
X108688000Y-104657000D01*
X107574000Y-109123241D02*
X108204000Y-109123241D01*
X106872000Y-104417000D02*
X108688000Y-104417000D01*
X106654000Y-104937000D02*
X108688000Y-104937000D01*
X110768000Y-104897000D02*
X112789000Y-104897000D01*
X112998000Y-105938000D02*
G75*
G03*
X112998000Y-105938000I-3270000J0D01*
G01*
D10*
%TO.C,ProMini1*%
X112014000Y-60325000D02*
X93980000Y-60325000D01*
X93980000Y-93091000D02*
X93980000Y-60325000D01*
X112014000Y-60325000D02*
X112014000Y-93091000D01*
X93980000Y-93091000D02*
X112014000Y-93091000D01*
D14*
%TO.C,J3*%
X98238000Y-85090000D02*
X98238000Y-90230000D01*
X100898000Y-85090000D02*
X100898000Y-90230000D01*
X98238000Y-82490000D02*
X99568000Y-82490000D01*
X98238000Y-85090000D02*
X100898000Y-85090000D01*
X98238000Y-90230000D02*
X100898000Y-90230000D01*
X98238000Y-83820000D02*
X98238000Y-82490000D01*
%TD*%
D15*
%TO.C,ProMini1*%
X110490000Y-89535000D03*
X110490000Y-86995000D03*
X110490000Y-84455000D03*
X95250000Y-74295000D03*
X95250000Y-76835000D03*
X95250000Y-79375000D03*
X95250000Y-84455000D03*
X110490000Y-79375000D03*
X110490000Y-81915000D03*
X95250000Y-86995000D03*
X95250000Y-66675000D03*
X95250000Y-64135000D03*
X95250000Y-61595000D03*
X95250000Y-89535000D03*
X95250000Y-69215000D03*
X97790000Y-80645000D03*
X97790000Y-78105000D03*
X95250000Y-81915000D03*
X95250000Y-71755000D03*
%TD*%
M02*
