%TF.GenerationSoftware,KiCad,Pcbnew,6.0.2+dfsg-1*%
%TF.CreationDate,2022-08-08T09:13:05+02:00*%
%TF.ProjectId,shield,73686965-6c64-42e6-9b69-6361645f7063,rev?*%
%TF.SameCoordinates,Original*%
%TF.FileFunction,Legend,Top*%
%TF.FilePolarity,Positive*%
%FSLAX46Y46*%
G04 Gerber Fmt 4.6, Leading zero omitted, Abs format (unit mm)*
G04 Created by KiCad (PCBNEW 6.0.2+dfsg-1) date 2022-08-08 09:13:05*
%MOMM*%
%LPD*%
G01*
G04 APERTURE LIST*
%ADD10C,0.150000*%
%ADD11C,0.125000*%
%ADD12C,0.100000*%
%ADD13C,0.160000*%
%ADD14C,0.120000*%
%ADD15C,1.501140*%
G04 APERTURE END LIST*
D10*
X104592380Y-68270095D02*
X104116190Y-68603428D01*
X104592380Y-68841523D02*
X103592380Y-68841523D01*
X103592380Y-68460571D01*
X103640000Y-68365333D01*
X103687619Y-68317714D01*
X103782857Y-68270095D01*
X103925714Y-68270095D01*
X104020952Y-68317714D01*
X104068571Y-68365333D01*
X104116190Y-68460571D01*
X104116190Y-68841523D01*
X104068571Y-67508190D02*
X104068571Y-67841523D01*
X104592380Y-67841523D02*
X103592380Y-67841523D01*
X103592380Y-67365333D01*
X104592380Y-66984380D02*
X103592380Y-66984380D01*
X104306666Y-66651047D01*
X103592380Y-66317714D01*
X104592380Y-66317714D01*
X103592380Y-65412952D02*
X103592380Y-65603428D01*
X103640000Y-65698666D01*
X103687619Y-65746285D01*
X103830476Y-65841523D01*
X104020952Y-65889142D01*
X104401904Y-65889142D01*
X104497142Y-65841523D01*
X104544761Y-65793904D01*
X104592380Y-65698666D01*
X104592380Y-65508190D01*
X104544761Y-65412952D01*
X104497142Y-65365333D01*
X104401904Y-65317714D01*
X104163809Y-65317714D01*
X104068571Y-65365333D01*
X104020952Y-65412952D01*
X103973333Y-65508190D01*
X103973333Y-65698666D01*
X104020952Y-65793904D01*
X104068571Y-65841523D01*
X104163809Y-65889142D01*
X104592380Y-64841523D02*
X104592380Y-64651047D01*
X104544761Y-64555809D01*
X104497142Y-64508190D01*
X104354285Y-64412952D01*
X104163809Y-64365333D01*
X103782857Y-64365333D01*
X103687619Y-64412952D01*
X103640000Y-64460571D01*
X103592380Y-64555809D01*
X103592380Y-64746285D01*
X103640000Y-64841523D01*
X103687619Y-64889142D01*
X103782857Y-64936761D01*
X104020952Y-64936761D01*
X104116190Y-64889142D01*
X104163809Y-64841523D01*
X104211428Y-64746285D01*
X104211428Y-64555809D01*
X104163809Y-64460571D01*
X104116190Y-64412952D01*
X104020952Y-64365333D01*
X104592380Y-63936761D02*
X103592380Y-63936761D01*
X104068571Y-63936761D02*
X104068571Y-63365333D01*
X104592380Y-63365333D02*
X103592380Y-63365333D01*
X103592380Y-62984380D02*
X104592380Y-62746285D01*
X103878095Y-62555809D01*
X104592380Y-62365333D01*
X103592380Y-62127238D01*
D11*
X112668857Y-53716857D02*
X113002190Y-53597809D01*
X112668857Y-53478761D01*
X113002190Y-53026380D02*
X113002190Y-53312095D01*
X113002190Y-53169238D02*
X112502190Y-53169238D01*
X112573619Y-53216857D01*
X112621238Y-53264476D01*
X112645047Y-53312095D01*
X113002190Y-52597809D02*
X112740285Y-52597809D01*
X112692666Y-52621619D01*
X112668857Y-52669238D01*
X112668857Y-52764476D01*
X112692666Y-52812095D01*
X112978380Y-52597809D02*
X113002190Y-52645428D01*
X113002190Y-52764476D01*
X112978380Y-52812095D01*
X112930761Y-52835904D01*
X112883142Y-52835904D01*
X112835523Y-52812095D01*
X112811714Y-52764476D01*
X112811714Y-52645428D01*
X112787904Y-52597809D01*
X113002190Y-52288285D02*
X112978380Y-52335904D01*
X112930761Y-52359714D01*
X112502190Y-52359714D01*
X112668857Y-52097809D02*
X113168857Y-52097809D01*
X112692666Y-52097809D02*
X112668857Y-52050190D01*
X112668857Y-51954952D01*
X112692666Y-51907333D01*
X112716476Y-51883523D01*
X112764095Y-51859714D01*
X112906952Y-51859714D01*
X112954571Y-51883523D01*
X112978380Y-51907333D01*
X113002190Y-51954952D01*
X113002190Y-52050190D01*
X112978380Y-52097809D01*
X113002190Y-51645428D02*
X112502190Y-51645428D01*
X113002190Y-51431142D02*
X112740285Y-51431142D01*
X112692666Y-51454952D01*
X112668857Y-51502571D01*
X112668857Y-51574000D01*
X112692666Y-51621619D01*
X112716476Y-51645428D01*
X113002190Y-50978761D02*
X112740285Y-50978761D01*
X112692666Y-51002571D01*
X112668857Y-51050190D01*
X112668857Y-51145428D01*
X112692666Y-51193047D01*
X112978380Y-50978761D02*
X113002190Y-51026380D01*
X113002190Y-51145428D01*
X112978380Y-51193047D01*
X112930761Y-51216857D01*
X112883142Y-51216857D01*
X112835523Y-51193047D01*
X112811714Y-51145428D01*
X112811714Y-51026380D01*
X112787904Y-50978761D01*
X97448761Y-55066380D02*
X97520190Y-55090190D01*
X97639238Y-55090190D01*
X97686857Y-55066380D01*
X97710666Y-55042571D01*
X97734476Y-54994952D01*
X97734476Y-54947333D01*
X97710666Y-54899714D01*
X97686857Y-54875904D01*
X97639238Y-54852095D01*
X97544000Y-54828285D01*
X97496380Y-54804476D01*
X97472571Y-54780666D01*
X97448761Y-54733047D01*
X97448761Y-54685428D01*
X97472571Y-54637809D01*
X97496380Y-54614000D01*
X97544000Y-54590190D01*
X97663047Y-54590190D01*
X97734476Y-54614000D01*
X98234476Y-55042571D02*
X98210666Y-55066380D01*
X98139238Y-55090190D01*
X98091619Y-55090190D01*
X98020190Y-55066380D01*
X97972571Y-55018761D01*
X97948761Y-54971142D01*
X97924952Y-54875904D01*
X97924952Y-54804476D01*
X97948761Y-54709238D01*
X97972571Y-54661619D01*
X98020190Y-54614000D01*
X98091619Y-54590190D01*
X98139238Y-54590190D01*
X98210666Y-54614000D01*
X98234476Y-54637809D01*
X98686857Y-55090190D02*
X98448761Y-55090190D01*
X98448761Y-54590190D01*
D10*
X101528571Y-89931428D02*
X101528571Y-89598095D01*
X102052380Y-89455238D02*
X102052380Y-89931428D01*
X101052380Y-89931428D01*
X101052380Y-89455238D01*
X102052380Y-89121904D02*
X101385714Y-88598095D01*
X101385714Y-89121904D02*
X102052380Y-88598095D01*
X101385714Y-88360000D02*
X101385714Y-87979047D01*
X101052380Y-88217142D02*
X101909523Y-88217142D01*
X102004761Y-88169523D01*
X102052380Y-88074285D01*
X102052380Y-87979047D01*
X102052380Y-87645714D02*
X101385714Y-87645714D01*
X101576190Y-87645714D02*
X101480952Y-87598095D01*
X101433333Y-87550476D01*
X101385714Y-87455238D01*
X101385714Y-87360000D01*
X102052380Y-86598095D02*
X101528571Y-86598095D01*
X101433333Y-86645714D01*
X101385714Y-86740952D01*
X101385714Y-86931428D01*
X101433333Y-87026666D01*
X102004761Y-86598095D02*
X102052380Y-86693333D01*
X102052380Y-86931428D01*
X102004761Y-87026666D01*
X101909523Y-87074285D01*
X101814285Y-87074285D01*
X101719047Y-87026666D01*
X101671428Y-86931428D01*
X101671428Y-86693333D01*
X101623809Y-86598095D01*
X101100000Y-84836190D02*
X101052380Y-84931428D01*
X101052380Y-85074285D01*
X101100000Y-85217142D01*
X101195238Y-85312380D01*
X101290476Y-85360000D01*
X101480952Y-85407619D01*
X101623809Y-85407619D01*
X101814285Y-85360000D01*
X101909523Y-85312380D01*
X102004761Y-85217142D01*
X102052380Y-85074285D01*
X102052380Y-84979047D01*
X102004761Y-84836190D01*
X101957142Y-84788571D01*
X101623809Y-84788571D01*
X101623809Y-84979047D01*
X102052380Y-84360000D02*
X101052380Y-84360000D01*
X102052380Y-83788571D01*
X101052380Y-83788571D01*
X102052380Y-83312380D02*
X101052380Y-83312380D01*
X101052380Y-83074285D01*
X101100000Y-82931428D01*
X101195238Y-82836190D01*
X101290476Y-82788571D01*
X101480952Y-82740952D01*
X101623809Y-82740952D01*
X101814285Y-82788571D01*
X101909523Y-82836190D01*
X102004761Y-82931428D01*
X102052380Y-83074285D01*
X102052380Y-83312380D01*
X112196571Y-99607428D02*
X112244190Y-99464571D01*
X112291809Y-99416952D01*
X112387047Y-99369333D01*
X112529904Y-99369333D01*
X112625142Y-99416952D01*
X112672761Y-99464571D01*
X112720380Y-99559809D01*
X112720380Y-99940761D01*
X111720380Y-99940761D01*
X111720380Y-99607428D01*
X111768000Y-99512190D01*
X111815619Y-99464571D01*
X111910857Y-99416952D01*
X112006095Y-99416952D01*
X112101333Y-99464571D01*
X112148952Y-99512190D01*
X112196571Y-99607428D01*
X112196571Y-99940761D01*
X112720380Y-98512190D02*
X112196571Y-98512190D01*
X112101333Y-98559809D01*
X112053714Y-98655047D01*
X112053714Y-98845523D01*
X112101333Y-98940761D01*
X112672761Y-98512190D02*
X112720380Y-98607428D01*
X112720380Y-98845523D01*
X112672761Y-98940761D01*
X112577523Y-98988380D01*
X112482285Y-98988380D01*
X112387047Y-98940761D01*
X112339428Y-98845523D01*
X112339428Y-98607428D01*
X112291809Y-98512190D01*
X112053714Y-98178857D02*
X112053714Y-97797904D01*
X111720380Y-98036000D02*
X112577523Y-98036000D01*
X112672761Y-97988380D01*
X112720380Y-97893142D01*
X112720380Y-97797904D01*
X112053714Y-97607428D02*
X112053714Y-97226476D01*
X111720380Y-97464571D02*
X112577523Y-97464571D01*
X112672761Y-97416952D01*
X112720380Y-97321714D01*
X112720380Y-97226476D01*
X112672761Y-96512190D02*
X112720380Y-96607428D01*
X112720380Y-96797904D01*
X112672761Y-96893142D01*
X112577523Y-96940761D01*
X112196571Y-96940761D01*
X112101333Y-96893142D01*
X112053714Y-96797904D01*
X112053714Y-96607428D01*
X112101333Y-96512190D01*
X112196571Y-96464571D01*
X112291809Y-96464571D01*
X112387047Y-96940761D01*
X112720380Y-96036000D02*
X112053714Y-96036000D01*
X112244190Y-96036000D02*
X112148952Y-95988380D01*
X112101333Y-95940761D01*
X112053714Y-95845523D01*
X112053714Y-95750285D01*
X112053714Y-95512190D02*
X112720380Y-95274095D01*
X112053714Y-95036000D02*
X112720380Y-95274095D01*
X112958476Y-95369333D01*
X113006095Y-95416952D01*
X113053714Y-95512190D01*
X105592571Y-99797904D02*
X105640190Y-99655047D01*
X105687809Y-99607428D01*
X105783047Y-99559809D01*
X105925904Y-99559809D01*
X106021142Y-99607428D01*
X106068761Y-99655047D01*
X106116380Y-99750285D01*
X106116380Y-100131238D01*
X105116380Y-100131238D01*
X105116380Y-99797904D01*
X105164000Y-99702666D01*
X105211619Y-99655047D01*
X105306857Y-99607428D01*
X105402095Y-99607428D01*
X105497333Y-99655047D01*
X105544952Y-99702666D01*
X105592571Y-99797904D01*
X105592571Y-100131238D01*
X106116380Y-98988380D02*
X106068761Y-99083619D01*
X106021142Y-99131238D01*
X105925904Y-99178857D01*
X105640190Y-99178857D01*
X105544952Y-99131238D01*
X105497333Y-99083619D01*
X105449714Y-98988380D01*
X105449714Y-98845523D01*
X105497333Y-98750285D01*
X105544952Y-98702666D01*
X105640190Y-98655047D01*
X105925904Y-98655047D01*
X106021142Y-98702666D01*
X106068761Y-98750285D01*
X106116380Y-98845523D01*
X106116380Y-98988380D01*
X106116380Y-98083619D02*
X106068761Y-98178857D01*
X106021142Y-98226476D01*
X105925904Y-98274095D01*
X105640190Y-98274095D01*
X105544952Y-98226476D01*
X105497333Y-98178857D01*
X105449714Y-98083619D01*
X105449714Y-97940761D01*
X105497333Y-97845523D01*
X105544952Y-97797904D01*
X105640190Y-97750285D01*
X105925904Y-97750285D01*
X106021142Y-97797904D01*
X106068761Y-97845523D01*
X106116380Y-97940761D01*
X106116380Y-98083619D01*
X106068761Y-97369333D02*
X106116380Y-97274095D01*
X106116380Y-97083619D01*
X106068761Y-96988380D01*
X105973523Y-96940761D01*
X105925904Y-96940761D01*
X105830666Y-96988380D01*
X105783047Y-97083619D01*
X105783047Y-97226476D01*
X105735428Y-97321714D01*
X105640190Y-97369333D01*
X105592571Y-97369333D01*
X105497333Y-97321714D01*
X105449714Y-97226476D01*
X105449714Y-97083619D01*
X105497333Y-96988380D01*
X105449714Y-96655047D02*
X105449714Y-96274095D01*
X105116380Y-96512190D02*
X105973523Y-96512190D01*
X106068761Y-96464571D01*
X106116380Y-96369333D01*
X106116380Y-96274095D01*
X106068761Y-95559809D02*
X106116380Y-95655047D01*
X106116380Y-95845523D01*
X106068761Y-95940761D01*
X105973523Y-95988380D01*
X105592571Y-95988380D01*
X105497333Y-95940761D01*
X105449714Y-95845523D01*
X105449714Y-95655047D01*
X105497333Y-95559809D01*
X105592571Y-95512190D01*
X105687809Y-95512190D01*
X105783047Y-95988380D01*
X106116380Y-95083619D02*
X105449714Y-95083619D01*
X105640190Y-95083619D02*
X105544952Y-95036000D01*
X105497333Y-94988380D01*
X105449714Y-94893142D01*
X105449714Y-94797904D01*
D11*
X105283047Y-54614000D02*
X105235428Y-54590190D01*
X105164000Y-54590190D01*
X105092571Y-54614000D01*
X105044952Y-54661619D01*
X105021142Y-54709238D01*
X104997333Y-54804476D01*
X104997333Y-54875904D01*
X105021142Y-54971142D01*
X105044952Y-55018761D01*
X105092571Y-55066380D01*
X105164000Y-55090190D01*
X105211619Y-55090190D01*
X105283047Y-55066380D01*
X105306857Y-55042571D01*
X105306857Y-54875904D01*
X105211619Y-54875904D01*
X105521142Y-55090190D02*
X105521142Y-54590190D01*
X105806857Y-55090190D01*
X105806857Y-54590190D01*
X106044952Y-55090190D02*
X106044952Y-54590190D01*
X106164000Y-54590190D01*
X106235428Y-54614000D01*
X106283047Y-54661619D01*
X106306857Y-54709238D01*
X106330666Y-54804476D01*
X106330666Y-54875904D01*
X106306857Y-54971142D01*
X106283047Y-55018761D01*
X106235428Y-55066380D01*
X106164000Y-55090190D01*
X106044952Y-55090190D01*
D10*
X115062000Y-103124000D02*
X115570000Y-103124000D01*
X113284000Y-102108000D02*
X93472000Y-102108000D01*
D11*
X99489142Y-92174190D02*
X99489142Y-91674190D01*
X99679619Y-91674190D01*
X99727238Y-91698000D01*
X99751047Y-91721809D01*
X99774857Y-91769428D01*
X99774857Y-91840857D01*
X99751047Y-91888476D01*
X99727238Y-91912285D01*
X99679619Y-91936095D01*
X99489142Y-91936095D01*
X99989142Y-92174190D02*
X99989142Y-91840857D01*
X99989142Y-91936095D02*
X100012952Y-91888476D01*
X100036761Y-91864666D01*
X100084380Y-91840857D01*
X100132000Y-91840857D01*
X100370095Y-92174190D02*
X100322476Y-92150380D01*
X100298666Y-92126571D01*
X100274857Y-92078952D01*
X100274857Y-91936095D01*
X100298666Y-91888476D01*
X100322476Y-91864666D01*
X100370095Y-91840857D01*
X100441523Y-91840857D01*
X100489142Y-91864666D01*
X100512952Y-91888476D01*
X100536761Y-91936095D01*
X100536761Y-92078952D01*
X100512952Y-92126571D01*
X100489142Y-92150380D01*
X100441523Y-92174190D01*
X100370095Y-92174190D01*
X101132000Y-92174190D02*
X101132000Y-91674190D01*
X101298666Y-92031333D01*
X101465333Y-91674190D01*
X101465333Y-92174190D01*
X101703428Y-92174190D02*
X101703428Y-91840857D01*
X101703428Y-91674190D02*
X101679619Y-91698000D01*
X101703428Y-91721809D01*
X101727238Y-91698000D01*
X101703428Y-91674190D01*
X101703428Y-91721809D01*
X101941523Y-91840857D02*
X101941523Y-92174190D01*
X101941523Y-91888476D02*
X101965333Y-91864666D01*
X102012952Y-91840857D01*
X102084380Y-91840857D01*
X102132000Y-91864666D01*
X102155809Y-91912285D01*
X102155809Y-92174190D01*
X102393904Y-92174190D02*
X102393904Y-91840857D01*
X102393904Y-91674190D02*
X102370095Y-91698000D01*
X102393904Y-91721809D01*
X102417714Y-91698000D01*
X102393904Y-91674190D01*
X102393904Y-91721809D01*
X103012952Y-92174190D02*
X103012952Y-91674190D01*
X103012952Y-91912285D02*
X103298666Y-91912285D01*
X103298666Y-92174190D02*
X103298666Y-91674190D01*
X103727238Y-92150380D02*
X103679619Y-92174190D01*
X103584380Y-92174190D01*
X103536761Y-92150380D01*
X103512952Y-92102761D01*
X103512952Y-91912285D01*
X103536761Y-91864666D01*
X103584380Y-91840857D01*
X103679619Y-91840857D01*
X103727238Y-91864666D01*
X103751047Y-91912285D01*
X103751047Y-91959904D01*
X103512952Y-92007523D01*
X104179619Y-92174190D02*
X104179619Y-91912285D01*
X104155809Y-91864666D01*
X104108190Y-91840857D01*
X104012952Y-91840857D01*
X103965333Y-91864666D01*
X104179619Y-92150380D02*
X104132000Y-92174190D01*
X104012952Y-92174190D01*
X103965333Y-92150380D01*
X103941523Y-92102761D01*
X103941523Y-92055142D01*
X103965333Y-92007523D01*
X104012952Y-91983714D01*
X104132000Y-91983714D01*
X104179619Y-91959904D01*
X104632000Y-92174190D02*
X104632000Y-91674190D01*
X104632000Y-92150380D02*
X104584380Y-92174190D01*
X104489142Y-92174190D01*
X104441523Y-92150380D01*
X104417714Y-92126571D01*
X104393904Y-92078952D01*
X104393904Y-91936095D01*
X104417714Y-91888476D01*
X104441523Y-91864666D01*
X104489142Y-91840857D01*
X104584380Y-91840857D01*
X104632000Y-91864666D01*
X105060571Y-92150380D02*
X105012952Y-92174190D01*
X104917714Y-92174190D01*
X104870095Y-92150380D01*
X104846285Y-92102761D01*
X104846285Y-91912285D01*
X104870095Y-91864666D01*
X104917714Y-91840857D01*
X105012952Y-91840857D01*
X105060571Y-91864666D01*
X105084380Y-91912285D01*
X105084380Y-91959904D01*
X104846285Y-92007523D01*
X105298666Y-92174190D02*
X105298666Y-91840857D01*
X105298666Y-91936095D02*
X105322476Y-91888476D01*
X105346285Y-91864666D01*
X105393904Y-91840857D01*
X105441523Y-91840857D01*
X105584380Y-92150380D02*
X105632000Y-92174190D01*
X105727238Y-92174190D01*
X105774857Y-92150380D01*
X105798666Y-92102761D01*
X105798666Y-92078952D01*
X105774857Y-92031333D01*
X105727238Y-92007523D01*
X105655809Y-92007523D01*
X105608190Y-91983714D01*
X105584380Y-91936095D01*
X105584380Y-91912285D01*
X105608190Y-91864666D01*
X105655809Y-91840857D01*
X105727238Y-91840857D01*
X105774857Y-91864666D01*
X106393904Y-92174190D02*
X106393904Y-91674190D01*
X106608190Y-92174190D02*
X106608190Y-91912285D01*
X106584380Y-91864666D01*
X106536761Y-91840857D01*
X106465333Y-91840857D01*
X106417714Y-91864666D01*
X106393904Y-91888476D01*
X107036761Y-92150380D02*
X106989142Y-92174190D01*
X106893904Y-92174190D01*
X106846285Y-92150380D01*
X106822476Y-92102761D01*
X106822476Y-91912285D01*
X106846285Y-91864666D01*
X106893904Y-91840857D01*
X106989142Y-91840857D01*
X107036761Y-91864666D01*
X107060571Y-91912285D01*
X107060571Y-91959904D01*
X106822476Y-92007523D01*
X107274857Y-92174190D02*
X107274857Y-91840857D01*
X107274857Y-91936095D02*
X107298666Y-91888476D01*
X107322476Y-91864666D01*
X107370095Y-91840857D01*
X107417714Y-91840857D01*
X107774857Y-92150380D02*
X107727238Y-92174190D01*
X107632000Y-92174190D01*
X107584380Y-92150380D01*
X107560571Y-92102761D01*
X107560571Y-91912285D01*
X107584380Y-91864666D01*
X107632000Y-91840857D01*
X107727238Y-91840857D01*
X107774857Y-91864666D01*
X107798666Y-91912285D01*
X107798666Y-91959904D01*
X107560571Y-92007523D01*
X101350000Y-97916952D02*
X101326190Y-97964571D01*
X101326190Y-98036000D01*
X101350000Y-98107428D01*
X101397619Y-98155047D01*
X101445238Y-98178857D01*
X101540476Y-98202666D01*
X101611904Y-98202666D01*
X101707142Y-98178857D01*
X101754761Y-98155047D01*
X101802380Y-98107428D01*
X101826190Y-98036000D01*
X101826190Y-97988380D01*
X101802380Y-97916952D01*
X101778571Y-97893142D01*
X101611904Y-97893142D01*
X101611904Y-97988380D01*
X101826190Y-97678857D02*
X101326190Y-97678857D01*
X101826190Y-97393142D01*
X101326190Y-97393142D01*
X101826190Y-97155047D02*
X101326190Y-97155047D01*
X101326190Y-97036000D01*
X101350000Y-96964571D01*
X101397619Y-96916952D01*
X101445238Y-96893142D01*
X101540476Y-96869333D01*
X101611904Y-96869333D01*
X101707142Y-96893142D01*
X101754761Y-96916952D01*
X101802380Y-96964571D01*
X101826190Y-97036000D01*
X101826190Y-97155047D01*
X112549809Y-79390857D02*
X112526000Y-79367047D01*
X112502190Y-79319428D01*
X112502190Y-79200380D01*
X112526000Y-79152761D01*
X112549809Y-79128952D01*
X112597428Y-79105142D01*
X112645047Y-79105142D01*
X112716476Y-79128952D01*
X113002190Y-79414666D01*
X113002190Y-79105142D01*
X112502190Y-90027047D02*
X112502190Y-89741333D01*
X113002190Y-89884190D02*
X112502190Y-89884190D01*
X112502190Y-89622285D02*
X113002190Y-89288952D01*
X112502190Y-89288952D02*
X113002190Y-89622285D01*
X112502190Y-89003238D02*
X112502190Y-88955619D01*
X112526000Y-88908000D01*
X112549809Y-88884190D01*
X112597428Y-88860380D01*
X112692666Y-88836571D01*
X112811714Y-88836571D01*
X112906952Y-88860380D01*
X112954571Y-88884190D01*
X112978380Y-88908000D01*
X113002190Y-88955619D01*
X113002190Y-89003238D01*
X112978380Y-89050857D01*
X112954571Y-89074666D01*
X112906952Y-89098476D01*
X112811714Y-89122285D01*
X112692666Y-89122285D01*
X112597428Y-89098476D01*
X112549809Y-89074666D01*
X112526000Y-89050857D01*
X112502190Y-89003238D01*
D10*
X111323428Y-99528573D02*
X111323428Y-98766668D01*
X111704380Y-99147621D02*
X110942476Y-99147621D01*
D11*
X96746190Y-61563238D02*
X96746190Y-61848952D01*
X96746190Y-61706095D02*
X96246190Y-61706095D01*
X96317619Y-61753714D01*
X96365238Y-61801333D01*
X96389047Y-61848952D01*
X96246190Y-61253714D02*
X96246190Y-61206095D01*
X96270000Y-61158476D01*
X96293809Y-61134666D01*
X96341428Y-61110857D01*
X96436666Y-61087047D01*
X96555714Y-61087047D01*
X96650952Y-61110857D01*
X96698571Y-61134666D01*
X96722380Y-61158476D01*
X96746190Y-61206095D01*
X96746190Y-61253714D01*
X96722380Y-61301333D01*
X96698571Y-61325142D01*
X96650952Y-61348952D01*
X96555714Y-61372761D01*
X96436666Y-61372761D01*
X96341428Y-61348952D01*
X96293809Y-61325142D01*
X96270000Y-61301333D01*
X96246190Y-61253714D01*
X101326190Y-95507904D02*
X101826190Y-95341238D01*
X101326190Y-95174571D01*
X101826190Y-95007904D02*
X101492857Y-95007904D01*
X101326190Y-95007904D02*
X101350000Y-95031714D01*
X101373809Y-95007904D01*
X101350000Y-94984095D01*
X101326190Y-95007904D01*
X101373809Y-95007904D01*
X101492857Y-94769809D02*
X101826190Y-94769809D01*
X101540476Y-94769809D02*
X101516666Y-94746000D01*
X101492857Y-94698380D01*
X101492857Y-94626952D01*
X101516666Y-94579333D01*
X101564285Y-94555523D01*
X101826190Y-94555523D01*
X96746190Y-89753238D02*
X96508095Y-89919904D01*
X96746190Y-90038952D02*
X96246190Y-90038952D01*
X96246190Y-89848476D01*
X96270000Y-89800857D01*
X96293809Y-89777047D01*
X96341428Y-89753238D01*
X96412857Y-89753238D01*
X96460476Y-89777047D01*
X96484285Y-89800857D01*
X96508095Y-89848476D01*
X96508095Y-90038952D01*
X96603333Y-89562761D02*
X96603333Y-89324666D01*
X96746190Y-89610380D02*
X96246190Y-89443714D01*
X96746190Y-89277047D01*
X96246190Y-89158000D02*
X96746190Y-89038952D01*
X96389047Y-88943714D01*
X96746190Y-88848476D01*
X96246190Y-88729428D01*
D10*
X111323428Y-96988573D02*
X111323428Y-96226668D01*
D11*
X101326190Y-100837904D02*
X101826190Y-100671238D01*
X101326190Y-100504571D01*
X101826190Y-100266476D02*
X101802380Y-100314095D01*
X101778571Y-100337904D01*
X101730952Y-100361714D01*
X101588095Y-100361714D01*
X101540476Y-100337904D01*
X101516666Y-100314095D01*
X101492857Y-100266476D01*
X101492857Y-100195047D01*
X101516666Y-100147428D01*
X101540476Y-100123619D01*
X101588095Y-100099809D01*
X101730952Y-100099809D01*
X101778571Y-100123619D01*
X101802380Y-100147428D01*
X101826190Y-100195047D01*
X101826190Y-100266476D01*
X101492857Y-99671238D02*
X101826190Y-99671238D01*
X101492857Y-99885523D02*
X101754761Y-99885523D01*
X101802380Y-99861714D01*
X101826190Y-99814095D01*
X101826190Y-99742666D01*
X101802380Y-99695047D01*
X101778571Y-99671238D01*
X101492857Y-99504571D02*
X101492857Y-99314095D01*
X101326190Y-99433142D02*
X101754761Y-99433142D01*
X101802380Y-99409333D01*
X101826190Y-99361714D01*
X101826190Y-99314095D01*
D12*
X99361904Y-102396952D02*
X99495238Y-102796952D01*
X99628571Y-102396952D01*
X99819047Y-102796952D02*
X99780952Y-102777904D01*
X99761904Y-102758857D01*
X99742857Y-102720761D01*
X99742857Y-102606476D01*
X99761904Y-102568380D01*
X99780952Y-102549333D01*
X99819047Y-102530285D01*
X99876190Y-102530285D01*
X99914285Y-102549333D01*
X99933333Y-102568380D01*
X99952380Y-102606476D01*
X99952380Y-102720761D01*
X99933333Y-102758857D01*
X99914285Y-102777904D01*
X99876190Y-102796952D01*
X99819047Y-102796952D01*
X100180952Y-102796952D02*
X100142857Y-102777904D01*
X100123809Y-102739809D01*
X100123809Y-102396952D01*
X100276190Y-102530285D02*
X100428571Y-102530285D01*
X100333333Y-102396952D02*
X100333333Y-102739809D01*
X100352380Y-102777904D01*
X100390476Y-102796952D01*
X100428571Y-102796952D01*
X100733333Y-102796952D02*
X100733333Y-102587428D01*
X100714285Y-102549333D01*
X100676190Y-102530285D01*
X100600000Y-102530285D01*
X100561904Y-102549333D01*
X100733333Y-102777904D02*
X100695238Y-102796952D01*
X100600000Y-102796952D01*
X100561904Y-102777904D01*
X100542857Y-102739809D01*
X100542857Y-102701714D01*
X100561904Y-102663619D01*
X100600000Y-102644571D01*
X100695238Y-102644571D01*
X100733333Y-102625523D01*
X101095238Y-102530285D02*
X101095238Y-102854095D01*
X101076190Y-102892190D01*
X101057142Y-102911238D01*
X101019047Y-102930285D01*
X100961904Y-102930285D01*
X100923809Y-102911238D01*
X101095238Y-102777904D02*
X101057142Y-102796952D01*
X100980952Y-102796952D01*
X100942857Y-102777904D01*
X100923809Y-102758857D01*
X100904761Y-102720761D01*
X100904761Y-102606476D01*
X100923809Y-102568380D01*
X100942857Y-102549333D01*
X100980952Y-102530285D01*
X101057142Y-102530285D01*
X101095238Y-102549333D01*
X101438095Y-102777904D02*
X101400000Y-102796952D01*
X101323809Y-102796952D01*
X101285714Y-102777904D01*
X101266666Y-102739809D01*
X101266666Y-102587428D01*
X101285714Y-102549333D01*
X101323809Y-102530285D01*
X101400000Y-102530285D01*
X101438095Y-102549333D01*
X101457142Y-102587428D01*
X101457142Y-102625523D01*
X101266666Y-102663619D01*
X101933333Y-102796952D02*
X101933333Y-102396952D01*
X102028571Y-102396952D01*
X102085714Y-102416000D01*
X102123809Y-102454095D01*
X102142857Y-102492190D01*
X102161904Y-102568380D01*
X102161904Y-102625523D01*
X102142857Y-102701714D01*
X102123809Y-102739809D01*
X102085714Y-102777904D01*
X102028571Y-102796952D01*
X101933333Y-102796952D01*
X102333333Y-102796952D02*
X102333333Y-102530285D01*
X102333333Y-102396952D02*
X102314285Y-102416000D01*
X102333333Y-102435047D01*
X102352380Y-102416000D01*
X102333333Y-102396952D01*
X102333333Y-102435047D01*
X102485714Y-102530285D02*
X102580952Y-102796952D01*
X102676190Y-102530285D01*
X102828571Y-102796952D02*
X102828571Y-102530285D01*
X102828571Y-102396952D02*
X102809523Y-102416000D01*
X102828571Y-102435047D01*
X102847619Y-102416000D01*
X102828571Y-102396952D01*
X102828571Y-102435047D01*
X103190476Y-102796952D02*
X103190476Y-102396952D01*
X103190476Y-102777904D02*
X103152380Y-102796952D01*
X103076190Y-102796952D01*
X103038095Y-102777904D01*
X103019047Y-102758857D01*
X103000000Y-102720761D01*
X103000000Y-102606476D01*
X103019047Y-102568380D01*
X103038095Y-102549333D01*
X103076190Y-102530285D01*
X103152380Y-102530285D01*
X103190476Y-102549333D01*
X103533333Y-102777904D02*
X103495238Y-102796952D01*
X103419047Y-102796952D01*
X103380952Y-102777904D01*
X103361904Y-102739809D01*
X103361904Y-102587428D01*
X103380952Y-102549333D01*
X103419047Y-102530285D01*
X103495238Y-102530285D01*
X103533333Y-102549333D01*
X103552380Y-102587428D01*
X103552380Y-102625523D01*
X103361904Y-102663619D01*
X103723809Y-102796952D02*
X103723809Y-102530285D01*
X103723809Y-102606476D02*
X103742857Y-102568380D01*
X103761904Y-102549333D01*
X103800000Y-102530285D01*
X103838095Y-102530285D01*
D10*
X100528380Y-61182095D02*
X99528380Y-61182095D01*
X100528380Y-60610666D01*
X99528380Y-60610666D01*
X100480761Y-60182095D02*
X100528380Y-60039238D01*
X100528380Y-59801142D01*
X100480761Y-59705904D01*
X100433142Y-59658285D01*
X100337904Y-59610666D01*
X100242666Y-59610666D01*
X100147428Y-59658285D01*
X100099809Y-59705904D01*
X100052190Y-59801142D01*
X100004571Y-59991619D01*
X99956952Y-60086857D01*
X99909333Y-60134476D01*
X99814095Y-60182095D01*
X99718857Y-60182095D01*
X99623619Y-60134476D01*
X99576000Y-60086857D01*
X99528380Y-59991619D01*
X99528380Y-59753523D01*
X99576000Y-59610666D01*
X100480761Y-59229714D02*
X100528380Y-59086857D01*
X100528380Y-58848761D01*
X100480761Y-58753523D01*
X100433142Y-58705904D01*
X100337904Y-58658285D01*
X100242666Y-58658285D01*
X100147428Y-58705904D01*
X100099809Y-58753523D01*
X100052190Y-58848761D01*
X100004571Y-59039238D01*
X99956952Y-59134476D01*
X99909333Y-59182095D01*
X99814095Y-59229714D01*
X99718857Y-59229714D01*
X99623619Y-59182095D01*
X99576000Y-59134476D01*
X99528380Y-59039238D01*
X99528380Y-58801142D01*
X99576000Y-58658285D01*
%TO.C,Extra3v3*%
X107116571Y-89360000D02*
X107116571Y-89026666D01*
X107640380Y-88883809D02*
X107640380Y-89360000D01*
X106640380Y-89360000D01*
X106640380Y-88883809D01*
X107640380Y-88550476D02*
X106973714Y-88026666D01*
X106973714Y-88550476D02*
X107640380Y-88026666D01*
X106973714Y-87788571D02*
X106973714Y-87407619D01*
X106640380Y-87645714D02*
X107497523Y-87645714D01*
X107592761Y-87598095D01*
X107640380Y-87502857D01*
X107640380Y-87407619D01*
X107640380Y-87074285D02*
X106973714Y-87074285D01*
X107164190Y-87074285D02*
X107068952Y-87026666D01*
X107021333Y-86979047D01*
X106973714Y-86883809D01*
X106973714Y-86788571D01*
X107640380Y-86026666D02*
X107116571Y-86026666D01*
X107021333Y-86074285D01*
X106973714Y-86169523D01*
X106973714Y-86360000D01*
X107021333Y-86455238D01*
X107592761Y-86026666D02*
X107640380Y-86121904D01*
X107640380Y-86360000D01*
X107592761Y-86455238D01*
X107497523Y-86502857D01*
X107402285Y-86502857D01*
X107307047Y-86455238D01*
X107259428Y-86360000D01*
X107259428Y-86121904D01*
X107211809Y-86026666D01*
X106640380Y-85645714D02*
X106640380Y-85026666D01*
X107021333Y-85360000D01*
X107021333Y-85217142D01*
X107068952Y-85121904D01*
X107116571Y-85074285D01*
X107211809Y-85026666D01*
X107449904Y-85026666D01*
X107545142Y-85074285D01*
X107592761Y-85121904D01*
X107640380Y-85217142D01*
X107640380Y-85502857D01*
X107592761Y-85598095D01*
X107545142Y-85645714D01*
X106973714Y-84693333D02*
X107640380Y-84455238D01*
X106973714Y-84217142D01*
X106640380Y-83931428D02*
X106640380Y-83312380D01*
X107021333Y-83645714D01*
X107021333Y-83502857D01*
X107068952Y-83407619D01*
X107116571Y-83360000D01*
X107211809Y-83312380D01*
X107449904Y-83312380D01*
X107545142Y-83360000D01*
X107592761Y-83407619D01*
X107640380Y-83502857D01*
X107640380Y-83788571D01*
X107592761Y-83883809D01*
X107545142Y-83931428D01*
%TO.C,C2*%
X94845142Y-94654666D02*
X94892761Y-94702285D01*
X94940380Y-94845142D01*
X94940380Y-94940380D01*
X94892761Y-95083238D01*
X94797523Y-95178476D01*
X94702285Y-95226095D01*
X94511809Y-95273714D01*
X94368952Y-95273714D01*
X94178476Y-95226095D01*
X94083238Y-95178476D01*
X93988000Y-95083238D01*
X93940380Y-94940380D01*
X93940380Y-94845142D01*
X93988000Y-94702285D01*
X94035619Y-94654666D01*
X94035619Y-94273714D02*
X93988000Y-94226095D01*
X93940380Y-94130857D01*
X93940380Y-93892761D01*
X93988000Y-93797523D01*
X94035619Y-93749904D01*
X94130857Y-93702285D01*
X94226095Y-93702285D01*
X94368952Y-93749904D01*
X94940380Y-94321333D01*
X94940380Y-93702285D01*
X94831310Y-94652912D02*
X94878929Y-94700531D01*
X94926548Y-94843388D01*
X94926548Y-94938626D01*
X94878929Y-95081484D01*
X94783691Y-95176722D01*
X94688453Y-95224341D01*
X94497977Y-95271960D01*
X94355120Y-95271960D01*
X94164644Y-95224341D01*
X94069406Y-95176722D01*
X93974168Y-95081484D01*
X93926548Y-94938626D01*
X93926548Y-94843388D01*
X93974168Y-94700531D01*
X94021787Y-94652912D01*
X94021787Y-94271960D02*
X93974168Y-94224341D01*
X93926548Y-94129103D01*
X93926548Y-93891007D01*
X93974168Y-93795769D01*
X94021787Y-93748150D01*
X94117025Y-93700531D01*
X94212263Y-93700531D01*
X94355120Y-93748150D01*
X94926548Y-94319579D01*
X94926548Y-93700531D01*
%TO.C,R1*%
X99401333Y-108148380D02*
X99068000Y-107672190D01*
X98829904Y-108148380D02*
X98829904Y-107148380D01*
X99210857Y-107148380D01*
X99306095Y-107196000D01*
X99353714Y-107243619D01*
X99401333Y-107338857D01*
X99401333Y-107481714D01*
X99353714Y-107576952D01*
X99306095Y-107624571D01*
X99210857Y-107672190D01*
X98829904Y-107672190D01*
X100353714Y-108148380D02*
X99782285Y-108148380D01*
X100068000Y-108148380D02*
X100068000Y-107148380D01*
X99972761Y-107291238D01*
X99877523Y-107386476D01*
X99782285Y-107434095D01*
D11*
%TO.C,HDC1080*%
X108220190Y-54427238D02*
X107720190Y-54427238D01*
X107958285Y-54427238D02*
X107958285Y-54141523D01*
X108220190Y-54141523D02*
X107720190Y-54141523D01*
X108220190Y-53903428D02*
X107720190Y-53903428D01*
X107720190Y-53784380D01*
X107744000Y-53712952D01*
X107791619Y-53665333D01*
X107839238Y-53641523D01*
X107934476Y-53617714D01*
X108005904Y-53617714D01*
X108101142Y-53641523D01*
X108148761Y-53665333D01*
X108196380Y-53712952D01*
X108220190Y-53784380D01*
X108220190Y-53903428D01*
X108172571Y-53117714D02*
X108196380Y-53141523D01*
X108220190Y-53212952D01*
X108220190Y-53260571D01*
X108196380Y-53332000D01*
X108148761Y-53379619D01*
X108101142Y-53403428D01*
X108005904Y-53427238D01*
X107934476Y-53427238D01*
X107839238Y-53403428D01*
X107791619Y-53379619D01*
X107744000Y-53332000D01*
X107720190Y-53260571D01*
X107720190Y-53212952D01*
X107744000Y-53141523D01*
X107767809Y-53117714D01*
X108220190Y-52641523D02*
X108220190Y-52927238D01*
X108220190Y-52784380D02*
X107720190Y-52784380D01*
X107791619Y-52832000D01*
X107839238Y-52879619D01*
X107863047Y-52927238D01*
X107720190Y-52332000D02*
X107720190Y-52284380D01*
X107744000Y-52236761D01*
X107767809Y-52212952D01*
X107815428Y-52189142D01*
X107910666Y-52165333D01*
X108029714Y-52165333D01*
X108124952Y-52189142D01*
X108172571Y-52212952D01*
X108196380Y-52236761D01*
X108220190Y-52284380D01*
X108220190Y-52332000D01*
X108196380Y-52379619D01*
X108172571Y-52403428D01*
X108124952Y-52427238D01*
X108029714Y-52451047D01*
X107910666Y-52451047D01*
X107815428Y-52427238D01*
X107767809Y-52403428D01*
X107744000Y-52379619D01*
X107720190Y-52332000D01*
X107934476Y-51879619D02*
X107910666Y-51927238D01*
X107886857Y-51951047D01*
X107839238Y-51974857D01*
X107815428Y-51974857D01*
X107767809Y-51951047D01*
X107744000Y-51927238D01*
X107720190Y-51879619D01*
X107720190Y-51784380D01*
X107744000Y-51736761D01*
X107767809Y-51712952D01*
X107815428Y-51689142D01*
X107839238Y-51689142D01*
X107886857Y-51712952D01*
X107910666Y-51736761D01*
X107934476Y-51784380D01*
X107934476Y-51879619D01*
X107958285Y-51927238D01*
X107982095Y-51951047D01*
X108029714Y-51974857D01*
X108124952Y-51974857D01*
X108172571Y-51951047D01*
X108196380Y-51927238D01*
X108220190Y-51879619D01*
X108220190Y-51784380D01*
X108196380Y-51736761D01*
X108172571Y-51712952D01*
X108124952Y-51689142D01*
X108029714Y-51689142D01*
X107982095Y-51712952D01*
X107958285Y-51736761D01*
X107934476Y-51784380D01*
X107720190Y-51379619D02*
X107720190Y-51332000D01*
X107744000Y-51284380D01*
X107767809Y-51260571D01*
X107815428Y-51236761D01*
X107910666Y-51212952D01*
X108029714Y-51212952D01*
X108124952Y-51236761D01*
X108172571Y-51260571D01*
X108196380Y-51284380D01*
X108220190Y-51332000D01*
X108220190Y-51379619D01*
X108196380Y-51427238D01*
X108172571Y-51451047D01*
X108124952Y-51474857D01*
X108029714Y-51498666D01*
X107910666Y-51498666D01*
X107815428Y-51474857D01*
X107767809Y-51451047D01*
X107744000Y-51427238D01*
X107720190Y-51379619D01*
D10*
%TO.C,R2*%
X99401333Y-105100380D02*
X99068000Y-104624190D01*
X98829904Y-105100380D02*
X98829904Y-104100380D01*
X99210857Y-104100380D01*
X99306095Y-104148000D01*
X99353714Y-104195619D01*
X99401333Y-104290857D01*
X99401333Y-104433714D01*
X99353714Y-104528952D01*
X99306095Y-104576571D01*
X99210857Y-104624190D01*
X98829904Y-104624190D01*
X99782285Y-104195619D02*
X99829904Y-104148000D01*
X99925142Y-104100380D01*
X100163238Y-104100380D01*
X100258476Y-104148000D01*
X100306095Y-104195619D01*
X100353714Y-104290857D01*
X100353714Y-104386095D01*
X100306095Y-104528952D01*
X99734666Y-105100380D01*
X100353714Y-105100380D01*
%TO.C,C1*%
X106529142Y-108878666D02*
X106576761Y-108926285D01*
X106624380Y-109069142D01*
X106624380Y-109164380D01*
X106576761Y-109307238D01*
X106481523Y-109402476D01*
X106386285Y-109450095D01*
X106195809Y-109497714D01*
X106052952Y-109497714D01*
X105862476Y-109450095D01*
X105767238Y-109402476D01*
X105672000Y-109307238D01*
X105624380Y-109164380D01*
X105624380Y-109069142D01*
X105672000Y-108926285D01*
X105719619Y-108878666D01*
X106624380Y-107926285D02*
X106624380Y-108497714D01*
X106624380Y-108212000D02*
X105624380Y-108212000D01*
X105767238Y-108307238D01*
X105862476Y-108402476D01*
X105910095Y-108497714D01*
X114485142Y-111699904D02*
X114532761Y-111747523D01*
X114580380Y-111890380D01*
X114580380Y-111985619D01*
X114532761Y-112128476D01*
X114437523Y-112223714D01*
X114342285Y-112271333D01*
X114151809Y-112318952D01*
X114008952Y-112318952D01*
X113818476Y-112271333D01*
X113723238Y-112223714D01*
X113628000Y-112128476D01*
X113580380Y-111985619D01*
X113580380Y-111890380D01*
X113628000Y-111747523D01*
X113675619Y-111699904D01*
X113580380Y-110652285D02*
X114580380Y-110318952D01*
X113580380Y-109985619D01*
X114580380Y-109509428D02*
X114532761Y-109604666D01*
X114485142Y-109652285D01*
X114389904Y-109699904D01*
X114104190Y-109699904D01*
X114008952Y-109652285D01*
X113961333Y-109604666D01*
X113913714Y-109509428D01*
X113913714Y-109366571D01*
X113961333Y-109271333D01*
X114008952Y-109223714D01*
X114104190Y-109176095D01*
X114389904Y-109176095D01*
X114485142Y-109223714D01*
X114532761Y-109271333D01*
X114580380Y-109366571D01*
X114580380Y-109509428D01*
X114580380Y-108604666D02*
X114532761Y-108699904D01*
X114437523Y-108747523D01*
X113580380Y-108747523D01*
X113913714Y-108366571D02*
X113913714Y-107985619D01*
X113580380Y-108223714D02*
X114437523Y-108223714D01*
X114532761Y-108176095D01*
X114580380Y-108080857D01*
X114580380Y-107985619D01*
X114580380Y-107223714D02*
X114056571Y-107223714D01*
X113961333Y-107271333D01*
X113913714Y-107366571D01*
X113913714Y-107557047D01*
X113961333Y-107652285D01*
X114532761Y-107223714D02*
X114580380Y-107318952D01*
X114580380Y-107557047D01*
X114532761Y-107652285D01*
X114437523Y-107699904D01*
X114342285Y-107699904D01*
X114247047Y-107652285D01*
X114199428Y-107557047D01*
X114199428Y-107318952D01*
X114151809Y-107223714D01*
X113913714Y-106318952D02*
X114723238Y-106318952D01*
X114818476Y-106366571D01*
X114866095Y-106414190D01*
X114913714Y-106509428D01*
X114913714Y-106652285D01*
X114866095Y-106747523D01*
X114532761Y-106318952D02*
X114580380Y-106414190D01*
X114580380Y-106604666D01*
X114532761Y-106699904D01*
X114485142Y-106747523D01*
X114389904Y-106795142D01*
X114104190Y-106795142D01*
X114008952Y-106747523D01*
X113961333Y-106699904D01*
X113913714Y-106604666D01*
X113913714Y-106414190D01*
X113961333Y-106318952D01*
X114532761Y-105461809D02*
X114580380Y-105557047D01*
X114580380Y-105747523D01*
X114532761Y-105842761D01*
X114437523Y-105890380D01*
X114056571Y-105890380D01*
X113961333Y-105842761D01*
X113913714Y-105747523D01*
X113913714Y-105557047D01*
X113961333Y-105461809D01*
X114056571Y-105414190D01*
X114151809Y-105414190D01*
X114247047Y-105890380D01*
X114580380Y-104223714D02*
X113580380Y-104223714D01*
X113580380Y-103985619D01*
X113628000Y-103842761D01*
X113723238Y-103747523D01*
X113818476Y-103699904D01*
X114008952Y-103652285D01*
X114151809Y-103652285D01*
X114342285Y-103699904D01*
X114437523Y-103747523D01*
X114532761Y-103842761D01*
X114580380Y-103985619D01*
X114580380Y-104223714D01*
X114580380Y-103223714D02*
X113913714Y-103223714D01*
X113580380Y-103223714D02*
X113628000Y-103271333D01*
X113675619Y-103223714D01*
X113628000Y-103176095D01*
X113580380Y-103223714D01*
X113675619Y-103223714D01*
X113913714Y-102842761D02*
X114580380Y-102604666D01*
X113913714Y-102366571D01*
X114580380Y-101985619D02*
X113913714Y-101985619D01*
X113580380Y-101985619D02*
X113628000Y-102033238D01*
X113675619Y-101985619D01*
X113628000Y-101938000D01*
X113580380Y-101985619D01*
X113675619Y-101985619D01*
X114580380Y-101080857D02*
X113580380Y-101080857D01*
X114532761Y-101080857D02*
X114580380Y-101176095D01*
X114580380Y-101366571D01*
X114532761Y-101461809D01*
X114485142Y-101509428D01*
X114389904Y-101557047D01*
X114104190Y-101557047D01*
X114008952Y-101509428D01*
X113961333Y-101461809D01*
X113913714Y-101366571D01*
X113913714Y-101176095D01*
X113961333Y-101080857D01*
X114532761Y-100223714D02*
X114580380Y-100318952D01*
X114580380Y-100509428D01*
X114532761Y-100604666D01*
X114437523Y-100652285D01*
X114056571Y-100652285D01*
X113961333Y-100604666D01*
X113913714Y-100509428D01*
X113913714Y-100318952D01*
X113961333Y-100223714D01*
X114056571Y-100176095D01*
X114151809Y-100176095D01*
X114247047Y-100652285D01*
X114580380Y-99747523D02*
X113913714Y-99747523D01*
X114104190Y-99747523D02*
X114008952Y-99699904D01*
X113961333Y-99652285D01*
X113913714Y-99557047D01*
X113913714Y-99461809D01*
D13*
%TO.C,ProMini1*%
X115169904Y-91935000D02*
X114369904Y-91935000D01*
X114369904Y-91630238D01*
X114408000Y-91554047D01*
X114446095Y-91515952D01*
X114522285Y-91477857D01*
X114636571Y-91477857D01*
X114712761Y-91515952D01*
X114750857Y-91554047D01*
X114788952Y-91630238D01*
X114788952Y-91935000D01*
X115169904Y-91135000D02*
X114636571Y-91135000D01*
X114788952Y-91135000D02*
X114712761Y-91096904D01*
X114674666Y-91058809D01*
X114636571Y-90982619D01*
X114636571Y-90906428D01*
X115169904Y-90525476D02*
X115131809Y-90601666D01*
X115093714Y-90639761D01*
X115017523Y-90677857D01*
X114788952Y-90677857D01*
X114712761Y-90639761D01*
X114674666Y-90601666D01*
X114636571Y-90525476D01*
X114636571Y-90411190D01*
X114674666Y-90335000D01*
X114712761Y-90296904D01*
X114788952Y-90258809D01*
X115017523Y-90258809D01*
X115093714Y-90296904D01*
X115131809Y-90335000D01*
X115169904Y-90411190D01*
X115169904Y-90525476D01*
X115169904Y-89915952D02*
X114369904Y-89915952D01*
X114941333Y-89649285D01*
X114369904Y-89382619D01*
X115169904Y-89382619D01*
X115169904Y-89001666D02*
X114636571Y-89001666D01*
X114369904Y-89001666D02*
X114408000Y-89039761D01*
X114446095Y-89001666D01*
X114408000Y-88963571D01*
X114369904Y-89001666D01*
X114446095Y-89001666D01*
X114636571Y-88620714D02*
X115169904Y-88620714D01*
X114712761Y-88620714D02*
X114674666Y-88582619D01*
X114636571Y-88506428D01*
X114636571Y-88392142D01*
X114674666Y-88315952D01*
X114750857Y-88277857D01*
X115169904Y-88277857D01*
X115169904Y-87896904D02*
X114636571Y-87896904D01*
X114369904Y-87896904D02*
X114408000Y-87935000D01*
X114446095Y-87896904D01*
X114408000Y-87858809D01*
X114369904Y-87896904D01*
X114446095Y-87896904D01*
X115169904Y-87096904D02*
X115169904Y-87554047D01*
X115169904Y-87325476D02*
X114369904Y-87325476D01*
X114484190Y-87401666D01*
X114560380Y-87477857D01*
X114598476Y-87554047D01*
D10*
X99520952Y-79192380D02*
X99520952Y-78192380D01*
X99901904Y-78192380D01*
X99997142Y-78240000D01*
X100044761Y-78287619D01*
X100092380Y-78382857D01*
X100092380Y-78525714D01*
X100044761Y-78620952D01*
X99997142Y-78668571D01*
X99901904Y-78716190D01*
X99520952Y-78716190D01*
X100520952Y-79192380D02*
X100520952Y-78525714D01*
X100520952Y-78716190D02*
X100568571Y-78620952D01*
X100616190Y-78573333D01*
X100711428Y-78525714D01*
X100806666Y-78525714D01*
X101282857Y-79192380D02*
X101187619Y-79144761D01*
X101140000Y-79097142D01*
X101092380Y-79001904D01*
X101092380Y-78716190D01*
X101140000Y-78620952D01*
X101187619Y-78573333D01*
X101282857Y-78525714D01*
X101425714Y-78525714D01*
X101520952Y-78573333D01*
X101568571Y-78620952D01*
X101616190Y-78716190D01*
X101616190Y-79001904D01*
X101568571Y-79097142D01*
X101520952Y-79144761D01*
X101425714Y-79192380D01*
X101282857Y-79192380D01*
X102806666Y-79192380D02*
X102806666Y-78192380D01*
X103140000Y-78906666D01*
X103473333Y-78192380D01*
X103473333Y-79192380D01*
X103949523Y-79192380D02*
X103949523Y-78525714D01*
X103949523Y-78192380D02*
X103901904Y-78240000D01*
X103949523Y-78287619D01*
X103997142Y-78240000D01*
X103949523Y-78192380D01*
X103949523Y-78287619D01*
X104425714Y-78525714D02*
X104425714Y-79192380D01*
X104425714Y-78620952D02*
X104473333Y-78573333D01*
X104568571Y-78525714D01*
X104711428Y-78525714D01*
X104806666Y-78573333D01*
X104854285Y-78668571D01*
X104854285Y-79192380D01*
X105330476Y-79192380D02*
X105330476Y-78525714D01*
X105330476Y-78192380D02*
X105282857Y-78240000D01*
X105330476Y-78287619D01*
X105378095Y-78240000D01*
X105330476Y-78192380D01*
X105330476Y-78287619D01*
X106473333Y-78192380D02*
X107092380Y-78192380D01*
X106759047Y-78573333D01*
X106901904Y-78573333D01*
X106997142Y-78620952D01*
X107044761Y-78668571D01*
X107092380Y-78763809D01*
X107092380Y-79001904D01*
X107044761Y-79097142D01*
X106997142Y-79144761D01*
X106901904Y-79192380D01*
X106616190Y-79192380D01*
X106520952Y-79144761D01*
X106473333Y-79097142D01*
X107425714Y-78525714D02*
X107663809Y-79192380D01*
X107901904Y-78525714D01*
X108187619Y-78192380D02*
X108806666Y-78192380D01*
X108473333Y-78573333D01*
X108616190Y-78573333D01*
X108711428Y-78620952D01*
X108759047Y-78668571D01*
X108806666Y-78763809D01*
X108806666Y-79001904D01*
X108759047Y-79097142D01*
X108711428Y-79144761D01*
X108616190Y-79192380D01*
X108330476Y-79192380D01*
X108235238Y-79144761D01*
X108187619Y-79097142D01*
D14*
%TO.C,Extra3v3*%
X103826000Y-90230000D02*
X106486000Y-90230000D01*
X103826000Y-85090000D02*
X103826000Y-90230000D01*
X103826000Y-83820000D02*
X103826000Y-82490000D01*
X106486000Y-85090000D02*
X106486000Y-90230000D01*
X103826000Y-82490000D02*
X105156000Y-82490000D01*
X103826000Y-85090000D02*
X106486000Y-85090000D01*
D12*
%TO.C,RFM69HW1*%
X96575000Y-76090000D02*
X96575000Y-66090000D01*
X96575000Y-55990000D02*
X96975000Y-55990000D01*
X112975000Y-76090000D02*
X112975000Y-75590000D01*
X112575000Y-76090000D02*
X112975000Y-76090000D01*
X96575000Y-56490000D02*
X96575000Y-55990000D01*
X112975000Y-56490000D02*
X112975000Y-55990000D01*
X112575000Y-55990000D02*
X112975000Y-55990000D01*
X96575000Y-76090000D02*
X96975000Y-76090000D01*
D14*
%TO.C,C2*%
X98068000Y-97049000D02*
X100169000Y-97049000D01*
X98068000Y-97570000D02*
X100250000Y-97570000D01*
X94392000Y-95929000D02*
X95988000Y-95929000D01*
X98068000Y-95849000D02*
X99606000Y-95849000D01*
X95252000Y-95089000D02*
X98804000Y-95089000D01*
X98068000Y-95969000D02*
X99692000Y-95969000D01*
X93839000Y-97290000D02*
X95988000Y-97290000D01*
X98068000Y-96529000D02*
X99998000Y-96529000D01*
X98068000Y-96449000D02*
X99962000Y-96449000D01*
X98068000Y-96249000D02*
X99862000Y-96249000D01*
X93817000Y-97450000D02*
X95988000Y-97450000D01*
X94512000Y-95769000D02*
X95988000Y-95769000D01*
X94112000Y-96409000D02*
X95988000Y-96409000D01*
X96626000Y-94569000D02*
X97430000Y-94569000D01*
X95447000Y-94969000D02*
X98609000Y-94969000D01*
X95189000Y-101310241D02*
X95189000Y-100680241D01*
X94026000Y-96609000D02*
X95988000Y-96609000D01*
X94891000Y-95369000D02*
X99165000Y-95369000D01*
X98068000Y-96489000D02*
X99980000Y-96489000D01*
X95596000Y-94889000D02*
X98460000Y-94889000D01*
X98068000Y-95689000D02*
X99478000Y-95689000D01*
X98068000Y-96009000D02*
X99718000Y-96009000D01*
X98068000Y-95609000D02*
X99408000Y-95609000D01*
X94312000Y-96049000D02*
X95988000Y-96049000D01*
X98068000Y-97089000D02*
X100178000Y-97089000D01*
X93981000Y-96729000D02*
X95988000Y-96729000D01*
X98068000Y-97250000D02*
X100210000Y-97250000D01*
X94216000Y-96209000D02*
X95988000Y-96209000D01*
X95519000Y-94929000D02*
X98537000Y-94929000D01*
X98068000Y-97450000D02*
X100239000Y-97450000D01*
X93942000Y-96849000D02*
X95988000Y-96849000D01*
X94262000Y-96129000D02*
X95988000Y-96129000D01*
X94338000Y-96009000D02*
X95988000Y-96009000D01*
X98068000Y-97370000D02*
X100229000Y-97370000D01*
X93907000Y-96969000D02*
X95988000Y-96969000D01*
X98068000Y-96889000D02*
X100126000Y-96889000D01*
X93918000Y-96929000D02*
X95988000Y-96929000D01*
X98068000Y-95929000D02*
X99664000Y-95929000D01*
X95678000Y-94849000D02*
X98378000Y-94849000D01*
X98068000Y-96929000D02*
X100138000Y-96929000D01*
X95863000Y-94769000D02*
X98193000Y-94769000D01*
X98068000Y-96849000D02*
X100114000Y-96849000D01*
X98068000Y-96689000D02*
X100061000Y-96689000D01*
X94194000Y-96249000D02*
X95988000Y-96249000D01*
X93861000Y-97170000D02*
X95988000Y-97170000D01*
X94874000Y-100995241D02*
X95504000Y-100995241D01*
X98068000Y-96809000D02*
X100102000Y-96809000D01*
X93822000Y-97410000D02*
X95988000Y-97410000D01*
X94984000Y-95289000D02*
X99072000Y-95289000D01*
X94450000Y-95849000D02*
X95988000Y-95849000D01*
X98068000Y-96049000D02*
X99744000Y-96049000D01*
X93813000Y-97490000D02*
X95988000Y-97490000D01*
X95194000Y-95129000D02*
X98862000Y-95129000D01*
X95378000Y-95009000D02*
X98678000Y-95009000D01*
X98068000Y-97009000D02*
X100159000Y-97009000D01*
X98068000Y-96769000D02*
X100089000Y-96769000D01*
X94364000Y-95969000D02*
X95988000Y-95969000D01*
X98068000Y-95649000D02*
X99444000Y-95649000D01*
X93804000Y-97610000D02*
X100252000Y-97610000D01*
X93810000Y-97530000D02*
X95988000Y-97530000D01*
X98068000Y-95529000D02*
X99333000Y-95529000D01*
X98068000Y-95729000D02*
X99512000Y-95729000D01*
X94058000Y-96529000D02*
X95988000Y-96529000D01*
X98068000Y-96569000D02*
X100014000Y-96569000D01*
X98068000Y-96969000D02*
X100149000Y-96969000D01*
X98068000Y-96209000D02*
X99840000Y-96209000D01*
X98068000Y-97530000D02*
X100246000Y-97530000D01*
X94612000Y-95649000D02*
X95988000Y-95649000D01*
X94685000Y-95569000D02*
X95988000Y-95569000D01*
X94846000Y-95409000D02*
X99210000Y-95409000D01*
X98068000Y-97410000D02*
X100234000Y-97410000D01*
X98068000Y-96329000D02*
X99904000Y-96329000D01*
X93853000Y-97210000D02*
X95988000Y-97210000D01*
X95766000Y-94809000D02*
X98290000Y-94809000D01*
X93897000Y-97009000D02*
X95988000Y-97009000D01*
X98068000Y-97170000D02*
X100195000Y-97170000D01*
X94286000Y-96089000D02*
X95988000Y-96089000D01*
X94578000Y-95689000D02*
X95988000Y-95689000D01*
X93798000Y-97730000D02*
X100258000Y-97730000D01*
X93930000Y-96889000D02*
X95988000Y-96889000D01*
X93798000Y-97770000D02*
X100258000Y-97770000D01*
X98068000Y-95889000D02*
X99635000Y-95889000D01*
X93833000Y-97330000D02*
X95988000Y-97330000D01*
X94804000Y-95449000D02*
X99252000Y-95449000D01*
X93878000Y-97089000D02*
X95988000Y-97089000D01*
X98068000Y-95769000D02*
X99544000Y-95769000D01*
X95138000Y-95169000D02*
X98918000Y-95169000D01*
X94010000Y-96649000D02*
X95988000Y-96649000D01*
X98068000Y-97290000D02*
X100217000Y-97290000D01*
X98068000Y-96089000D02*
X99770000Y-96089000D01*
X93827000Y-97370000D02*
X95988000Y-97370000D01*
X94042000Y-96569000D02*
X95988000Y-96569000D01*
X98068000Y-97130000D02*
X100187000Y-97130000D01*
X94238000Y-96169000D02*
X95988000Y-96169000D01*
X94544000Y-95729000D02*
X95988000Y-95729000D01*
X96395000Y-94609000D02*
X97661000Y-94609000D01*
X93846000Y-97250000D02*
X95988000Y-97250000D01*
X94152000Y-96329000D02*
X95988000Y-96329000D01*
X93798000Y-97810000D02*
X100258000Y-97810000D01*
X94421000Y-95889000D02*
X95988000Y-95889000D01*
X98068000Y-96369000D02*
X99924000Y-96369000D01*
X98068000Y-96729000D02*
X100075000Y-96729000D01*
X98068000Y-95569000D02*
X99371000Y-95569000D01*
X93869000Y-97130000D02*
X95988000Y-97130000D01*
X94763000Y-95489000D02*
X99293000Y-95489000D01*
X94094000Y-96449000D02*
X95988000Y-96449000D01*
X95084000Y-95209000D02*
X98972000Y-95209000D01*
X93800000Y-97690000D02*
X100256000Y-97690000D01*
X93967000Y-96769000D02*
X95988000Y-96769000D01*
X95969000Y-94729000D02*
X98087000Y-94729000D01*
X94172000Y-96289000D02*
X95988000Y-96289000D01*
X94480000Y-95809000D02*
X95988000Y-95809000D01*
X98068000Y-97330000D02*
X100223000Y-97330000D01*
X98068000Y-96609000D02*
X100030000Y-96609000D01*
X98068000Y-96649000D02*
X100046000Y-96649000D01*
X98068000Y-95809000D02*
X99576000Y-95809000D01*
X98068000Y-96409000D02*
X99944000Y-96409000D01*
X98068000Y-97210000D02*
X100203000Y-97210000D01*
X95033000Y-95249000D02*
X99023000Y-95249000D01*
X94132000Y-96369000D02*
X95988000Y-96369000D01*
X95314000Y-95049000D02*
X98742000Y-95049000D01*
X93806000Y-97570000D02*
X95988000Y-97570000D01*
X93887000Y-97049000D02*
X95988000Y-97049000D01*
X96088000Y-94689000D02*
X97968000Y-94689000D01*
X93954000Y-96809000D02*
X95988000Y-96809000D01*
X98068000Y-96289000D02*
X99884000Y-96289000D01*
X94936000Y-95329000D02*
X99120000Y-95329000D01*
X94723000Y-95529000D02*
X95988000Y-95529000D01*
X93801000Y-97650000D02*
X100255000Y-97650000D01*
X93995000Y-96689000D02*
X95988000Y-96689000D01*
X94648000Y-95609000D02*
X95988000Y-95609000D01*
X98068000Y-97490000D02*
X100243000Y-97490000D01*
X98068000Y-96129000D02*
X99794000Y-96129000D01*
X94076000Y-96489000D02*
X95988000Y-96489000D01*
X98068000Y-96169000D02*
X99818000Y-96169000D01*
X96226000Y-94649000D02*
X97830000Y-94649000D01*
X100298000Y-97810000D02*
G75*
G03*
X100298000Y-97810000I-3270000J0D01*
G01*
%TO.C,Booster1*%
X104962000Y-98791000D02*
X104962000Y-93651000D01*
X104962000Y-98791000D02*
X102302000Y-98791000D01*
X102302000Y-98791000D02*
X102302000Y-93651000D01*
X104962000Y-93651000D02*
X102302000Y-93651000D01*
X104962000Y-100061000D02*
X104962000Y-101391000D01*
X104962000Y-101391000D02*
X103632000Y-101391000D01*
%TO.C,J2*%
X110550000Y-95190000D02*
X107890000Y-95190000D01*
X110550000Y-97790000D02*
X110550000Y-95190000D01*
X107890000Y-97790000D02*
X107890000Y-95190000D01*
X110550000Y-99060000D02*
X110550000Y-100390000D01*
X110550000Y-97790000D02*
X107890000Y-97790000D01*
X110550000Y-100390000D02*
X109220000Y-100390000D01*
%TO.C,R1*%
X96298000Y-106326000D02*
X96298000Y-109066000D01*
X102838000Y-106326000D02*
X96298000Y-106326000D01*
X96298000Y-109066000D02*
X102838000Y-109066000D01*
X103608000Y-107696000D02*
X102838000Y-107696000D01*
X102838000Y-109066000D02*
X102838000Y-106326000D01*
X95528000Y-107696000D02*
X96298000Y-107696000D01*
%TO.C,HDC1080*%
X104394000Y-54162000D02*
X96714000Y-54162000D01*
X96714000Y-51502000D02*
X96714000Y-54162000D01*
X105664000Y-51502000D02*
X106994000Y-51502000D01*
X104394000Y-51502000D02*
X104394000Y-54162000D01*
X106994000Y-51502000D02*
X106994000Y-52832000D01*
X104394000Y-51502000D02*
X96714000Y-51502000D01*
%TO.C,R2*%
X96298000Y-106018000D02*
X102838000Y-106018000D01*
X102838000Y-106018000D02*
X102838000Y-103278000D01*
X103608000Y-104648000D02*
X102838000Y-104648000D01*
X96298000Y-103278000D02*
X96298000Y-106018000D01*
X102838000Y-103278000D02*
X96298000Y-103278000D01*
X95528000Y-104648000D02*
X96298000Y-104648000D01*
%TO.C,C1*%
X107180000Y-103937000D02*
X108688000Y-103937000D01*
X107463000Y-103617000D02*
X111993000Y-103617000D01*
X106506000Y-105698000D02*
X108688000Y-105698000D01*
X110768000Y-103817000D02*
X112178000Y-103817000D01*
X106794000Y-104577000D02*
X108688000Y-104577000D01*
X110768000Y-105217000D02*
X112878000Y-105217000D01*
X110768000Y-104617000D02*
X112680000Y-104617000D01*
X108378000Y-102977000D02*
X111078000Y-102977000D01*
X110768000Y-103857000D02*
X112212000Y-103857000D01*
X108788000Y-102817000D02*
X110668000Y-102817000D01*
X110768000Y-104537000D02*
X112644000Y-104537000D01*
X106498000Y-105898000D02*
X112958000Y-105898000D01*
X107212000Y-103897000D02*
X108688000Y-103897000D01*
X110768000Y-103697000D02*
X112071000Y-103697000D01*
X106539000Y-105418000D02*
X108688000Y-105418000D01*
X110768000Y-104857000D02*
X112775000Y-104857000D01*
X110768000Y-103897000D02*
X112244000Y-103897000D01*
X110768000Y-104977000D02*
X112814000Y-104977000D01*
X107733000Y-103377000D02*
X111723000Y-103377000D01*
X107894000Y-103257000D02*
X111562000Y-103257000D01*
X108219000Y-103057000D02*
X111237000Y-103057000D01*
X106578000Y-105217000D02*
X108688000Y-105217000D01*
X107838000Y-103297000D02*
X111618000Y-103297000D01*
X110768000Y-105137000D02*
X112859000Y-105137000D01*
X106522000Y-105538000D02*
X108688000Y-105538000D01*
X110768000Y-104817000D02*
X112761000Y-104817000D01*
X110768000Y-104217000D02*
X112470000Y-104217000D01*
X110768000Y-105378000D02*
X112910000Y-105378000D01*
X110768000Y-105057000D02*
X112838000Y-105057000D01*
X106500000Y-105818000D02*
X112956000Y-105818000D01*
X110768000Y-105338000D02*
X112903000Y-105338000D01*
X106587000Y-105177000D02*
X108688000Y-105177000D01*
X110768000Y-105177000D02*
X112869000Y-105177000D01*
X107546000Y-103537000D02*
X111910000Y-103537000D01*
X110768000Y-104457000D02*
X112604000Y-104457000D01*
X110768000Y-103977000D02*
X112306000Y-103977000D01*
X107092000Y-104057000D02*
X108688000Y-104057000D01*
X106546000Y-105378000D02*
X108688000Y-105378000D01*
X106527000Y-105498000D02*
X108688000Y-105498000D01*
X106501000Y-105778000D02*
X112955000Y-105778000D01*
X110768000Y-105498000D02*
X112929000Y-105498000D01*
X106695000Y-104817000D02*
X108688000Y-104817000D01*
X110768000Y-103737000D02*
X112108000Y-103737000D01*
X107385000Y-103697000D02*
X108688000Y-103697000D01*
X110768000Y-103777000D02*
X112144000Y-103777000D01*
X110768000Y-104337000D02*
X112540000Y-104337000D01*
X108563000Y-102897000D02*
X110893000Y-102897000D01*
X107038000Y-104137000D02*
X108688000Y-104137000D01*
X106618000Y-105057000D02*
X108688000Y-105057000D01*
X106812000Y-104537000D02*
X108688000Y-104537000D01*
X106962000Y-104257000D02*
X108688000Y-104257000D01*
X107064000Y-104097000D02*
X108688000Y-104097000D01*
X110768000Y-104297000D02*
X112518000Y-104297000D01*
X108466000Y-102937000D02*
X110990000Y-102937000D01*
X110768000Y-105698000D02*
X112950000Y-105698000D01*
X110768000Y-104257000D02*
X112494000Y-104257000D01*
X110768000Y-104777000D02*
X112746000Y-104777000D01*
X106569000Y-105258000D02*
X108688000Y-105258000D01*
X110768000Y-105458000D02*
X112923000Y-105458000D01*
X106776000Y-104617000D02*
X108688000Y-104617000D01*
X107012000Y-104177000D02*
X108688000Y-104177000D01*
X110768000Y-105578000D02*
X112939000Y-105578000D01*
X107504000Y-103577000D02*
X111952000Y-103577000D01*
X106630000Y-105017000D02*
X108688000Y-105017000D01*
X108926000Y-102777000D02*
X110530000Y-102777000D01*
X106513000Y-105618000D02*
X108688000Y-105618000D01*
X106726000Y-104737000D02*
X108688000Y-104737000D01*
X107150000Y-103977000D02*
X108688000Y-103977000D01*
X106517000Y-105578000D02*
X108688000Y-105578000D01*
X110768000Y-105538000D02*
X112934000Y-105538000D01*
X106553000Y-105338000D02*
X108688000Y-105338000D01*
X106561000Y-105298000D02*
X108688000Y-105298000D01*
X110768000Y-105618000D02*
X112943000Y-105618000D01*
X110768000Y-104937000D02*
X112802000Y-104937000D01*
X106533000Y-105458000D02*
X108688000Y-105458000D01*
X107423000Y-103657000D02*
X108688000Y-103657000D01*
X108147000Y-103097000D02*
X111309000Y-103097000D01*
X107784000Y-103337000D02*
X111672000Y-103337000D01*
X106916000Y-104337000D02*
X108688000Y-104337000D01*
X110768000Y-103937000D02*
X112276000Y-103937000D01*
X106681000Y-104857000D02*
X108688000Y-104857000D01*
X106504000Y-105738000D02*
X112952000Y-105738000D01*
X107348000Y-103737000D02*
X108688000Y-103737000D01*
X110768000Y-104697000D02*
X112714000Y-104697000D01*
X109326000Y-102697000D02*
X110130000Y-102697000D01*
X107636000Y-103457000D02*
X111820000Y-103457000D01*
X110768000Y-105298000D02*
X112895000Y-105298000D01*
X110768000Y-104417000D02*
X112584000Y-104417000D01*
X106710000Y-104777000D02*
X108688000Y-104777000D01*
X106742000Y-104697000D02*
X108688000Y-104697000D01*
X108296000Y-103017000D02*
X111160000Y-103017000D01*
X110768000Y-105658000D02*
X112946000Y-105658000D01*
X107591000Y-103497000D02*
X111865000Y-103497000D01*
X110768000Y-103657000D02*
X112033000Y-103657000D01*
X106607000Y-105097000D02*
X108688000Y-105097000D01*
X110768000Y-104737000D02*
X112730000Y-104737000D01*
X108669000Y-102857000D02*
X110787000Y-102857000D01*
X107278000Y-103817000D02*
X108688000Y-103817000D01*
X106642000Y-104977000D02*
X108688000Y-104977000D01*
X110768000Y-104497000D02*
X112624000Y-104497000D01*
X107312000Y-103777000D02*
X108688000Y-103777000D01*
X107244000Y-103857000D02*
X108688000Y-103857000D01*
X106938000Y-104297000D02*
X108688000Y-104297000D01*
X110768000Y-104017000D02*
X112335000Y-104017000D01*
X108014000Y-103177000D02*
X111442000Y-103177000D01*
X106832000Y-104497000D02*
X108688000Y-104497000D01*
X110768000Y-105017000D02*
X112826000Y-105017000D01*
X109095000Y-102737000D02*
X110361000Y-102737000D01*
X107889000Y-109438241D02*
X107889000Y-108808241D01*
X110768000Y-104097000D02*
X112392000Y-104097000D01*
X110768000Y-104377000D02*
X112562000Y-104377000D01*
X107121000Y-104017000D02*
X108688000Y-104017000D01*
X106852000Y-104457000D02*
X108688000Y-104457000D01*
X108078000Y-103137000D02*
X111378000Y-103137000D01*
X110768000Y-105418000D02*
X112917000Y-105418000D01*
X106498000Y-105858000D02*
X112958000Y-105858000D01*
X106986000Y-104217000D02*
X108688000Y-104217000D01*
X106894000Y-104377000D02*
X108688000Y-104377000D01*
X106498000Y-105938000D02*
X112958000Y-105938000D01*
X106667000Y-104897000D02*
X108688000Y-104897000D01*
X107952000Y-103217000D02*
X111504000Y-103217000D01*
X110768000Y-104137000D02*
X112418000Y-104137000D01*
X107684000Y-103417000D02*
X111772000Y-103417000D01*
X110768000Y-104657000D02*
X112698000Y-104657000D01*
X110768000Y-104177000D02*
X112444000Y-104177000D01*
X110768000Y-104057000D02*
X112364000Y-104057000D01*
X106510000Y-105658000D02*
X108688000Y-105658000D01*
X106597000Y-105137000D02*
X108688000Y-105137000D01*
X110768000Y-105258000D02*
X112887000Y-105258000D01*
X110768000Y-104577000D02*
X112662000Y-104577000D01*
X110768000Y-105097000D02*
X112849000Y-105097000D01*
X106758000Y-104657000D02*
X108688000Y-104657000D01*
X107574000Y-109123241D02*
X108204000Y-109123241D01*
X106872000Y-104417000D02*
X108688000Y-104417000D01*
X106654000Y-104937000D02*
X108688000Y-104937000D01*
X110768000Y-104897000D02*
X112789000Y-104897000D01*
X112998000Y-105938000D02*
G75*
G03*
X112998000Y-105938000I-3270000J0D01*
G01*
D10*
%TO.C,ProMini1*%
X112014000Y-60325000D02*
X93980000Y-60325000D01*
X93980000Y-93091000D02*
X93980000Y-60325000D01*
X112014000Y-60325000D02*
X112014000Y-93091000D01*
X93980000Y-93091000D02*
X112014000Y-93091000D01*
D14*
%TO.C,ExtraGND1*%
X98238000Y-85090000D02*
X98238000Y-90230000D01*
X100898000Y-85090000D02*
X100898000Y-90230000D01*
X98238000Y-82490000D02*
X99568000Y-82490000D01*
X98238000Y-85090000D02*
X100898000Y-85090000D01*
X98238000Y-90230000D02*
X100898000Y-90230000D01*
X98238000Y-83820000D02*
X98238000Y-82490000D01*
%TD*%
D15*
%TO.C,ProMini1*%
X110490000Y-89535000D03*
X110490000Y-86995000D03*
X110490000Y-84455000D03*
X95250000Y-74295000D03*
X95250000Y-76835000D03*
X95250000Y-79375000D03*
X95250000Y-84455000D03*
X110490000Y-79375000D03*
X110490000Y-81915000D03*
X95250000Y-86995000D03*
X95250000Y-66675000D03*
X95250000Y-64135000D03*
X95250000Y-61595000D03*
X95250000Y-89535000D03*
X95250000Y-69215000D03*
X97790000Y-80645000D03*
X97790000Y-78105000D03*
X95250000Y-81915000D03*
X95250000Y-71755000D03*
%TD*%
M02*
