%TF.GenerationSoftware,KiCad,Pcbnew,6.0.2+dfsg-1*%
%TF.CreationDate,2024-09-24T11:18:57+02:00*%
%TF.ProjectId,shield,73686965-6c64-42e6-9b69-6361645f7063,rev?*%
%TF.SameCoordinates,Original*%
%TF.FileFunction,Soldermask,Top*%
%TF.FilePolarity,Negative*%
%FSLAX46Y46*%
G04 Gerber Fmt 4.6, Leading zero omitted, Abs format (unit mm)*
G04 Created by KiCad (PCBNEW 6.0.2+dfsg-1) date 2024-09-24 11:18:57*
%MOMM*%
%LPD*%
G01*
G04 APERTURE LIST*
%ADD10R,1.000000X2.500000*%
%ADD11C,1.600000*%
%ADD12R,1.600000X1.600000*%
%ADD13O,1.700000X1.700000*%
%ADD14R,1.700000X1.700000*%
%ADD15O,1.600000X1.600000*%
%ADD16C,1.501140*%
G04 APERTURE END LIST*
D10*
%TO.C,RFM69HW1*%
X97775000Y-75140000D03*
X99775000Y-75140000D03*
X101775000Y-75140000D03*
X103775000Y-75140000D03*
X105775000Y-75140000D03*
X107775000Y-75140000D03*
X109775000Y-75140000D03*
X111775000Y-75140000D03*
X111775000Y-56940000D03*
X109775000Y-56940000D03*
X107775000Y-56940000D03*
X105775000Y-56940000D03*
X103775000Y-56940000D03*
X101775000Y-56940000D03*
X99775000Y-56940000D03*
X97775000Y-56940000D03*
%TD*%
D11*
%TO.C,C2*%
X109922000Y-101391000D03*
D12*
X109922000Y-98891000D03*
%TD*%
D13*
%TO.C,Booster1*%
X103318000Y-102970000D03*
X103318000Y-100430000D03*
D14*
X103318000Y-97890000D03*
%TD*%
D13*
%TO.C,J2*%
X97730000Y-101431000D03*
D14*
X97730000Y-98891000D03*
%TD*%
D11*
%TO.C,R1*%
X94488000Y-111098000D03*
D15*
X104648000Y-111098000D03*
%TD*%
D14*
%TO.C,Extra3v3*%
X105156000Y-83820000D03*
D13*
X105156000Y-86360000D03*
X105156000Y-88900000D03*
%TD*%
D14*
%TO.C,HDC1080*%
X109220000Y-52832000D03*
D13*
X106680000Y-52832000D03*
X104140000Y-52832000D03*
X101600000Y-52832000D03*
%TD*%
D11*
%TO.C,R2*%
X94488000Y-108050000D03*
D15*
X104648000Y-108050000D03*
%TD*%
D12*
%TO.C,C1*%
X109728000Y-110590000D03*
D11*
X109728000Y-108090000D03*
%TD*%
D16*
%TO.C,ProMini1*%
X110490000Y-89535000D03*
X110490000Y-86995000D03*
X110490000Y-84455000D03*
X95250000Y-74295000D03*
X95250000Y-76835000D03*
X95250000Y-79375000D03*
X95250000Y-84455000D03*
X110490000Y-79375000D03*
X110490000Y-81915000D03*
X95250000Y-86995000D03*
X95250000Y-66675000D03*
X95250000Y-64135000D03*
X95250000Y-61595000D03*
X95250000Y-89535000D03*
X95250000Y-69215000D03*
X97790000Y-80645000D03*
X97790000Y-78105000D03*
X95250000Y-81915000D03*
X95250000Y-71755000D03*
%TD*%
D14*
%TO.C,ExtraGND1*%
X99568000Y-83820000D03*
D13*
X99568000Y-86360000D03*
X99568000Y-88900000D03*
%TD*%
M02*
