%TF.GenerationSoftware,KiCad,Pcbnew,6.0.2+dfsg-1*%
%TF.CreationDate,2022-08-04T16:24:51+02:00*%
%TF.ProjectId,shield,73686965-6c64-42e6-9b69-6361645f7063,rev?*%
%TF.SameCoordinates,Original*%
%TF.FileFunction,Copper,L1,Top*%
%TF.FilePolarity,Positive*%
%FSLAX46Y46*%
G04 Gerber Fmt 4.6, Leading zero omitted, Abs format (unit mm)*
G04 Created by KiCad (PCBNEW 6.0.2+dfsg-1) date 2022-08-04 16:24:51*
%MOMM*%
%LPD*%
G01*
G04 APERTURE LIST*
%TA.AperFunction,SMDPad,CuDef*%
%ADD10R,1.000000X2.500000*%
%TD*%
%TA.AperFunction,ComponentPad*%
%ADD11R,1.600000X1.600000*%
%TD*%
%TA.AperFunction,ComponentPad*%
%ADD12C,1.600000*%
%TD*%
%TA.AperFunction,ComponentPad*%
%ADD13R,1.700000X1.700000*%
%TD*%
%TA.AperFunction,ComponentPad*%
%ADD14O,1.700000X1.700000*%
%TD*%
%TA.AperFunction,ComponentPad*%
%ADD15O,1.600000X1.600000*%
%TD*%
%TA.AperFunction,ComponentPad*%
%ADD16C,1.501140*%
%TD*%
%TA.AperFunction,Conductor*%
%ADD17C,0.250000*%
%TD*%
%TA.AperFunction,Conductor*%
%ADD18C,0.200000*%
%TD*%
G04 APERTURE END LIST*
D10*
%TO.P,RFM69HW,1,RESET*%
%TO.N,unconnected-(RFM69HW1-Pad1)*%
X97775000Y-75140000D03*
%TO.P,RFM69HW,2,DIO0*%
%TO.N,Net-(ProMini1-PadDI00)*%
X99775000Y-75140000D03*
%TO.P,RFM69HW,3,DIO1*%
%TO.N,unconnected-(RFM69HW1-Pad3)*%
X101775000Y-75140000D03*
%TO.P,RFM69HW,4,DIO2*%
%TO.N,unconnected-(RFM69HW1-Pad4)*%
X103775000Y-75140000D03*
%TO.P,RFM69HW,5,DIO3*%
%TO.N,unconnected-(RFM69HW1-Pad5)*%
X105775000Y-75140000D03*
%TO.P,RFM69HW,6,DIO4*%
%TO.N,unconnected-(RFM69HW1-Pad6)*%
X107775000Y-75140000D03*
%TO.P,RFM69HW,7,DIO5*%
%TO.N,unconnected-(RFM69HW1-Pad7)*%
X109775000Y-75140000D03*
%TO.P,RFM69HW,8,3.3V*%
%TO.N,Net-(C2-Pad1)*%
X111775000Y-75140000D03*
%TO.P,RFM69HW,9,GND*%
%TO.N,GND*%
X111775000Y-56940000D03*
%TO.P,RFM69HW,10,ANA*%
%TO.N,unconnected-(RFM69HW1-Pad10)*%
X109775000Y-56940000D03*
%TO.P,RFM69HW,11,GND*%
%TO.N,GND*%
X107775000Y-56940000D03*
%TO.P,RFM69HW,12,SCK*%
%TO.N,Net-(ProMini1-PadSCK)*%
X105775000Y-56940000D03*
%TO.P,RFM69HW,13,MISO*%
%TO.N,Net-(ProMini1-PadMISO)*%
X103775000Y-56940000D03*
%TO.P,RFM69HW,14,MOSI*%
%TO.N,Net-(ProMini1-PadMOSI)*%
X101775000Y-56940000D03*
%TO.P,RFM69HW,15,NSS*%
%TO.N,Net-(ProMini1-PadNSS)*%
X99775000Y-56940000D03*
%TO.P,RFM69HW,16,NC*%
%TO.N,unconnected-(RFM69HW1-Pad16)*%
X97775000Y-56940000D03*
%TD*%
D11*
%TO.P,C2,1*%
%TO.N,Net-(C2-Pad1)*%
X97028000Y-99060000D03*
D12*
%TO.P,C2,2*%
%TO.N,GND*%
X97028000Y-96560000D03*
%TD*%
D13*
%TO.P,Booster,1,Pin_1*%
%TO.N,Net-(C2-Pad1)*%
X103632000Y-100061000D03*
D14*
%TO.P,Booster,2,Pin_2*%
%TO.N,GND*%
X103632000Y-97521000D03*
%TO.P,Booster,3,Pin_3*%
%TO.N,+3V3*%
X103632000Y-94981000D03*
%TD*%
D13*
%TO.P,Battery,1,Pin_1*%
%TO.N,+3V3*%
X109220000Y-99060000D03*
D14*
%TO.P,Battery,2,Pin_2*%
%TO.N,GND*%
X109220000Y-96520000D03*
%TD*%
D15*
%TO.P,R1,2*%
%TO.N,Net-(C1-Pad1)*%
X104648000Y-107696000D03*
D12*
%TO.P,R1,1*%
%TO.N,+3V3*%
X94488000Y-107696000D03*
%TD*%
%TO.P,R2,1*%
%TO.N,Net-(C1-Pad1)*%
X94488000Y-104648000D03*
D15*
%TO.P,R2,2*%
%TO.N,GND*%
X104648000Y-104648000D03*
%TD*%
D11*
%TO.P,C1,1*%
%TO.N,Net-(C1-Pad1)*%
X109728000Y-107188000D03*
D12*
%TO.P,C1,2*%
%TO.N,GND*%
X109728000Y-104688000D03*
%TD*%
D16*
%TO.P,ProMini1,1,1*%
%TO.N,unconnected-(ProMini1-Pad1)*%
X110490000Y-89535000D03*
%TO.P,ProMini1,2,2*%
%TO.N,unconnected-(ProMini1-Pad2)*%
X110490000Y-86995000D03*
%TO.P,ProMini1,3,3*%
%TO.N,unconnected-(ProMini1-Pad3)*%
X110490000Y-84455000D03*
%TO.P,ProMini1,18,18*%
%TO.N,unconnected-(ProMini1-Pad18)*%
X95250000Y-74295000D03*
%TO.P,ProMini1,19,19*%
%TO.N,unconnected-(ProMini1-Pad19)*%
X95250000Y-76835000D03*
%TO.P,ProMini1,20,20*%
%TO.N,unconnected-(ProMini1-Pad20)*%
X95250000Y-79375000D03*
%TO.P,ProMini1,22,22*%
%TO.N,unconnected-(ProMini1-Pad22)*%
X95250000Y-84455000D03*
%TO.P,ProMini1,DI00,DI00*%
%TO.N,Net-(ProMini1-PadDI00)*%
X110490000Y-79375000D03*
%TO.P,ProMini1,GND1,GND1*%
%TO.N,GND*%
X110490000Y-81915000D03*
%TO.P,ProMini1,GND2,GND2*%
%TO.N,Net-(J3-Pad1)*%
X95250000Y-86995000D03*
%TO.P,ProMini1,MISO,MISO*%
%TO.N,Net-(ProMini1-PadMISO)*%
X95250000Y-66675000D03*
%TO.P,ProMini1,MOSI,MOSI*%
%TO.N,Net-(ProMini1-PadMOSI)*%
X95250000Y-64135000D03*
%TO.P,ProMini1,NSS,NSS*%
%TO.N,Net-(ProMini1-PadNSS)*%
X95250000Y-61595000D03*
%TO.P,ProMini1,RAW,RAW*%
%TO.N,unconnected-(ProMini1-PadRAW)*%
X95250000Y-89535000D03*
%TO.P,ProMini1,SCK,SCK*%
%TO.N,Net-(ProMini1-PadSCK)*%
X95250000Y-69215000D03*
%TO.P,ProMini1,SCL,SCL*%
%TO.N,unconnected-(ProMini1-PadSCL)*%
X97790000Y-80645000D03*
%TO.P,ProMini1,SDA,SDA*%
%TO.N,unconnected-(ProMini1-PadSDA)*%
X97790000Y-78105000D03*
%TO.P,ProMini1,VCC,VCC*%
%TO.N,Net-(C2-Pad1)*%
X95250000Y-81915000D03*
%TO.P,ProMini1,VolDiv,VolDiv*%
%TO.N,Net-(C1-Pad1)*%
X95250000Y-71755000D03*
%TD*%
D13*
%TO.P,GND,1,Pin_1*%
%TO.N,Net-(J3-Pad1)*%
X99568000Y-83820000D03*
D14*
%TO.P,GND,2,Pin_2*%
X99568000Y-86360000D03*
%TO.P,GND,3,Pin_3*%
X99568000Y-88900000D03*
%TD*%
D17*
%TO.N,Net-(C1-Pad1)*%
X109728000Y-107188000D02*
X105156000Y-107188000D01*
X105156000Y-107188000D02*
X104648000Y-107696000D01*
X104648000Y-107696000D02*
X97536000Y-107696000D01*
X97536000Y-107696000D02*
X94488000Y-104648000D01*
D18*
%TO.N,Net-(C2-Pad1)*%
X111939601Y-75304601D02*
X111939601Y-81608399D01*
D17*
X98029000Y-100061000D02*
X97028000Y-99060000D01*
D18*
X111939601Y-81950439D02*
X110924959Y-82965081D01*
D17*
X103632000Y-100061000D02*
X98029000Y-100061000D01*
D18*
X111939601Y-81608399D02*
X111939601Y-100912399D01*
X94199919Y-96231919D02*
X97028000Y-99060000D01*
X111775000Y-75140000D02*
X111939601Y-75304601D01*
X111939601Y-100912399D02*
X111760000Y-101092000D01*
X95250000Y-81915000D02*
X94199919Y-82965081D01*
X111939601Y-81608399D02*
X111939601Y-81950439D01*
X104663000Y-101092000D02*
X103632000Y-100061000D01*
X108331000Y-81915000D02*
X95250000Y-81915000D01*
X94199919Y-82965081D02*
X94199919Y-96231919D01*
X111760000Y-101092000D02*
X104663000Y-101092000D01*
X109381081Y-82965081D02*
X108331000Y-81915000D01*
X110924959Y-82965081D02*
X109381081Y-82965081D01*
%TO.N,GND*%
X110975489Y-77955489D02*
X111540081Y-78520081D01*
X111775000Y-56940000D02*
X110975489Y-57739511D01*
X107775000Y-58849000D02*
X107775000Y-56940000D01*
X111540081Y-80864919D02*
X110490000Y-81915000D01*
X110744000Y-58928000D02*
X107696000Y-58928000D01*
X110975489Y-59159489D02*
X110744000Y-58928000D01*
X103632000Y-97521000D02*
X97989000Y-97521000D01*
X110975489Y-59159489D02*
X110975489Y-77955489D01*
X110975489Y-57739511D02*
X110975489Y-59159489D01*
X111540081Y-78520081D02*
X111540081Y-80864919D01*
X97989000Y-97521000D02*
X97028000Y-96560000D01*
X107696000Y-58928000D02*
X107775000Y-58849000D01*
D17*
X104688000Y-104688000D02*
X104648000Y-104648000D01*
X109728000Y-104688000D02*
X104688000Y-104688000D01*
%TO.N,+3V3*%
X109220000Y-99060000D02*
X107711000Y-99060000D01*
X107711000Y-99060000D02*
X103632000Y-94981000D01*
%TO.N,Net-(J3-Pad1)*%
X99187000Y-85979000D02*
X99568000Y-86360000D01*
X95885000Y-86360000D02*
X95250000Y-86995000D01*
X99568000Y-86360000D02*
X95885000Y-86360000D01*
X99568000Y-86360000D02*
X99568000Y-88900000D01*
X99568000Y-83820000D02*
X99568000Y-86360000D01*
D18*
%TO.N,Net-(ProMini1-PadDI00)*%
X103260000Y-79375000D02*
X110490000Y-79375000D01*
X99775000Y-75890000D02*
X103260000Y-79375000D01*
X99775000Y-75140000D02*
X99775000Y-75890000D01*
%TO.N,Net-(ProMini1-PadMISO)*%
X103775000Y-58150000D02*
X103775000Y-56940000D01*
X95250000Y-66675000D02*
X103775000Y-58150000D01*
%TO.N,Net-(ProMini1-PadMOSI)*%
X101775000Y-57610000D02*
X101775000Y-56940000D01*
X95250000Y-64135000D02*
X101775000Y-57610000D01*
%TO.N,Net-(ProMini1-PadNSS)*%
X95250000Y-61595000D02*
X96311466Y-61595000D01*
X99775000Y-58131466D02*
X99775000Y-56940000D01*
X96311466Y-61595000D02*
X99775000Y-58131466D01*
%TO.N,Net-(ProMini1-PadSCK)*%
X95250000Y-69215000D02*
X105775000Y-58690000D01*
X105775000Y-58690000D02*
X105775000Y-56940000D01*
%TD*%
M02*
