M48
; DRILL file {KiCad 6.0.2+dfsg-1} date Tue Sep 24 11:22:06 2024
; FORMAT={-:-/ absolute / metric / decimal}
; #@! TF.CreationDate,2024-09-24T11:22:06+02:00
; #@! TF.GenerationSoftware,Kicad,Pcbnew,6.0.2+dfsg-1
; #@! TF.FileFunction,MixedPlating,1,2
FMAT,2
METRIC
; #@! TA.AperFunction,Plated,PTH,ComponentDrill
T1C0.800
; #@! TA.AperFunction,Plated,PTH,ComponentDrill
T2C0.800
; #@! TA.AperFunction,Plated,PTH,ComponentDrill
T3C1.000
%
G90
G05
T1
X94.488Y-108.05
X94.488Y-111.098
X104.648Y-108.05
X104.648Y-111.098
X109.728Y-108.09
X109.728Y-110.59
X109.922Y-98.891
X109.922Y-101.391
T2
X95.25Y-61.595
X95.25Y-64.135
X95.25Y-66.675
X95.25Y-69.215
X95.25Y-71.755
X95.25Y-74.295
X95.25Y-76.835
X95.25Y-79.375
X95.25Y-81.915
X95.25Y-84.455
X95.25Y-86.995
X95.25Y-89.535
X97.79Y-78.105
X97.79Y-80.645
X110.49Y-79.375
X110.49Y-81.915
X110.49Y-84.455
X110.49Y-86.995
X110.49Y-89.535
T3
X97.73Y-98.891
X97.73Y-101.431
X99.568Y-83.82
X99.568Y-86.36
X99.568Y-88.9
X101.6Y-52.832
X103.318Y-97.89
X103.318Y-100.43
X103.318Y-102.97
X104.14Y-52.832
X105.156Y-83.82
X105.156Y-86.36
X105.156Y-88.9
X106.68Y-52.832
X109.22Y-52.832
T0
M30
