%TF.GenerationSoftware,KiCad,Pcbnew,6.0.2+dfsg-1*%
%TF.CreationDate,2022-08-04T16:24:51+02:00*%
%TF.ProjectId,shield,73686965-6c64-42e6-9b69-6361645f7063,rev?*%
%TF.SameCoordinates,Original*%
%TF.FileFunction,Soldermask,Top*%
%TF.FilePolarity,Negative*%
%FSLAX46Y46*%
G04 Gerber Fmt 4.6, Leading zero omitted, Abs format (unit mm)*
G04 Created by KiCad (PCBNEW 6.0.2+dfsg-1) date 2022-08-04 16:24:51*
%MOMM*%
%LPD*%
G01*
G04 APERTURE LIST*
%ADD10R,1.000000X2.500000*%
%ADD11R,1.600000X1.600000*%
%ADD12C,1.600000*%
%ADD13R,1.700000X1.700000*%
%ADD14O,1.700000X1.700000*%
%ADD15O,1.600000X1.600000*%
%ADD16C,1.501140*%
G04 APERTURE END LIST*
D10*
%TO.C,RFM69HW*%
X97775000Y-75140000D03*
X99775000Y-75140000D03*
X101775000Y-75140000D03*
X103775000Y-75140000D03*
X105775000Y-75140000D03*
X107775000Y-75140000D03*
X109775000Y-75140000D03*
X111775000Y-75140000D03*
X111775000Y-56940000D03*
X109775000Y-56940000D03*
X107775000Y-56940000D03*
X105775000Y-56940000D03*
X103775000Y-56940000D03*
X101775000Y-56940000D03*
X99775000Y-56940000D03*
X97775000Y-56940000D03*
%TD*%
D11*
%TO.C,C2*%
X97028000Y-99060000D03*
D12*
X97028000Y-96560000D03*
%TD*%
D13*
%TO.C,Booster*%
X103632000Y-100061000D03*
D14*
X103632000Y-97521000D03*
X103632000Y-94981000D03*
%TD*%
D13*
%TO.C,Battery*%
X109220000Y-99060000D03*
D14*
X109220000Y-96520000D03*
%TD*%
D15*
%TO.C,R1*%
X104648000Y-107696000D03*
D12*
X94488000Y-107696000D03*
%TD*%
%TO.C,R2*%
X94488000Y-104648000D03*
D15*
X104648000Y-104648000D03*
%TD*%
D11*
%TO.C,C1*%
X109728000Y-107188000D03*
D12*
X109728000Y-104688000D03*
%TD*%
D16*
%TO.C,ProMini1*%
X110490000Y-89535000D03*
X110490000Y-86995000D03*
X110490000Y-84455000D03*
X95250000Y-74295000D03*
X95250000Y-76835000D03*
X95250000Y-79375000D03*
X95250000Y-84455000D03*
X110490000Y-79375000D03*
X110490000Y-81915000D03*
X95250000Y-86995000D03*
X95250000Y-66675000D03*
X95250000Y-64135000D03*
X95250000Y-61595000D03*
X95250000Y-89535000D03*
X95250000Y-69215000D03*
X97790000Y-80645000D03*
X97790000Y-78105000D03*
X95250000Y-81915000D03*
X95250000Y-71755000D03*
%TD*%
D13*
%TO.C,GND*%
X99568000Y-83820000D03*
D14*
X99568000Y-86360000D03*
X99568000Y-88900000D03*
%TD*%
M02*
