M48
; DRILL file {KiCad 6.0.2+dfsg-1} date Tue Sep 24 11:19:51 2024
; FORMAT={-:-/ absolute / inch / decimal}
; #@! TF.CreationDate,2024-09-24T11:19:51+02:00
; #@! TF.GenerationSoftware,Kicad,Pcbnew,6.0.2+dfsg-1
; #@! TF.FileFunction,Plated,1,2,PTH
FMAT,2
INCH
; #@! TA.AperFunction,Plated,PTH,ComponentDrill
T1C0.0315
; #@! TA.AperFunction,Plated,PTH,ComponentDrill
T2C0.0315
; #@! TA.AperFunction,Plated,PTH,ComponentDrill
T3C0.0394
%
G90
G05
T1
X3.72Y-4.2539
X3.72Y-4.3739
X4.12Y-4.2539
X4.12Y-4.3739
X4.32Y-4.2555
X4.32Y-4.3539
X4.3276Y-3.8933
X4.3276Y-3.9918
T2
X3.75Y-2.425
X3.75Y-2.525
X3.75Y-2.625
X3.75Y-2.725
X3.75Y-2.825
X3.75Y-2.925
X3.75Y-3.025
X3.75Y-3.125
X3.75Y-3.225
X3.75Y-3.325
X3.75Y-3.425
X3.75Y-3.525
X3.85Y-3.075
X3.85Y-3.175
X4.35Y-3.125
X4.35Y-3.225
X4.35Y-3.325
X4.35Y-3.425
X4.35Y-3.525
T3
X3.8476Y-3.8933
X3.8476Y-3.9933
X3.92Y-3.3
X3.92Y-3.4
X3.92Y-3.5
X4.0Y-2.08
X4.0676Y-3.8539
X4.0676Y-3.9539
X4.0676Y-4.0539
X4.1Y-2.08
X4.14Y-3.3
X4.14Y-3.4
X4.14Y-3.5
X4.2Y-2.08
X4.3Y-2.08
T0
M30
