M48
; DRILL file {KiCad 6.0.2+dfsg-1} date Tue 09 Aug 2022 01:08:20 PM CEST
; FORMAT={-:-/ absolute / inch / decimal}
; #@! TF.CreationDate,2022-08-09T13:08:20+02:00
; #@! TF.GenerationSoftware,Kicad,Pcbnew,6.0.2+dfsg-1
; #@! TF.FileFunction,Plated,1,2,PTH
FMAT,2
INCH
; #@! TA.AperFunction,Plated,PTH,ComponentDrill
T1C0.0315
; #@! TA.AperFunction,Plated,PTH,ComponentDrill
T2C0.0315
; #@! TA.AperFunction,Plated,PTH,ComponentDrill
T3C0.0394
%
G90
G05
T1
X3.72Y-4.12
X3.72Y-4.24
X3.82Y-3.8016
X3.82Y-3.9
X4.12Y-4.12
X4.12Y-4.24
X4.32Y-4.1216
X4.32Y-4.22
T2
X3.75Y-2.425
X3.75Y-2.525
X3.75Y-2.625
X3.75Y-2.725
X3.75Y-2.825
X3.75Y-2.925
X3.75Y-3.025
X3.75Y-3.125
X3.75Y-3.225
X3.75Y-3.325
X3.75Y-3.425
X3.75Y-3.525
X3.85Y-3.075
X3.85Y-3.175
X4.35Y-3.125
X4.35Y-3.225
X4.35Y-3.325
X4.35Y-3.425
X4.35Y-3.525
T3
X3.86Y-2.08
X3.92Y-3.3
X3.92Y-3.4
X3.92Y-3.5
X3.96Y-2.08
X4.06Y-2.08
X4.08Y-3.7394
X4.08Y-3.8394
X4.08Y-3.9394
X4.14Y-3.3
X4.14Y-3.4
X4.14Y-3.5
X4.16Y-2.08
X4.3Y-3.8
X4.3Y-3.9
T0
M30
