%TF.GenerationSoftware,KiCad,Pcbnew,6.0.2+dfsg-1*%
%TF.CreationDate,2022-08-08T09:13:05+02:00*%
%TF.ProjectId,shield,73686965-6c64-42e6-9b69-6361645f7063,rev?*%
%TF.SameCoordinates,Original*%
%TF.FileFunction,Copper,L2,Bot*%
%TF.FilePolarity,Positive*%
%FSLAX46Y46*%
G04 Gerber Fmt 4.6, Leading zero omitted, Abs format (unit mm)*
G04 Created by KiCad (PCBNEW 6.0.2+dfsg-1) date 2022-08-08 09:13:05*
%MOMM*%
%LPD*%
G01*
G04 APERTURE LIST*
%TA.AperFunction,ComponentPad*%
%ADD10R,1.700000X1.700000*%
%TD*%
%TA.AperFunction,ComponentPad*%
%ADD11O,1.700000X1.700000*%
%TD*%
%TA.AperFunction,ComponentPad*%
%ADD12R,1.600000X1.600000*%
%TD*%
%TA.AperFunction,ComponentPad*%
%ADD13C,1.600000*%
%TD*%
%TA.AperFunction,ComponentPad*%
%ADD14O,1.600000X1.600000*%
%TD*%
%TA.AperFunction,ComponentPad*%
%ADD15C,1.501140*%
%TD*%
%TA.AperFunction,Conductor*%
%ADD16C,0.200000*%
%TD*%
%TA.AperFunction,Conductor*%
%ADD17C,0.250000*%
%TD*%
G04 APERTURE END LIST*
D10*
%TO.P,Extra3v3,1,Pin_1*%
%TO.N,Net-(C2-Pad1)*%
X105156000Y-83820000D03*
D11*
%TO.P,Extra3v3,2,Pin_2*%
X105156000Y-86360000D03*
%TO.P,Extra3v3,3,Pin_3*%
X105156000Y-88900000D03*
%TD*%
D12*
%TO.P,C2,1*%
%TO.N,Net-(C2-Pad1)*%
X97028000Y-99060000D03*
D13*
%TO.P,C2,2*%
%TO.N,GND*%
X97028000Y-96560000D03*
%TD*%
D10*
%TO.P,Booster1,1,Pin_1*%
%TO.N,Net-(C2-Pad1)*%
X103632000Y-100061000D03*
D11*
%TO.P,Booster1,2,Pin_2*%
%TO.N,GND*%
X103632000Y-97521000D03*
%TO.P,Booster1,3,Pin_3*%
%TO.N,+3V3*%
X103632000Y-94981000D03*
%TD*%
D10*
%TO.P,J2,1,Pin_1*%
%TO.N,+3V3*%
X109220000Y-99060000D03*
D11*
%TO.P,J2,2,Pin_2*%
%TO.N,GND*%
X109220000Y-96520000D03*
%TD*%
D13*
%TO.P,R1,1*%
%TO.N,+3V3*%
X94488000Y-107696000D03*
D14*
%TO.P,R1,2*%
%TO.N,Net-(C1-Pad1)*%
X104648000Y-107696000D03*
%TD*%
D10*
%TO.P,HDC1080,1,Pin_1*%
%TO.N,GND*%
X105664000Y-52832000D03*
D11*
%TO.P,HDC1080,2,Pin_2*%
%TO.N,Net-(C2-Pad1)*%
X103124000Y-52832000D03*
%TO.P,HDC1080,3,Pin_3*%
%TO.N,Net-(HDC1080-Pad3)*%
X100584000Y-52832000D03*
%TO.P,HDC1080,4,Pin_4*%
%TO.N,Net-(HDC1080-Pad4)*%
X98044000Y-52832000D03*
%TD*%
D13*
%TO.P,R2,1*%
%TO.N,Net-(C1-Pad1)*%
X94488000Y-104648000D03*
D14*
%TO.P,R2,2*%
%TO.N,GND*%
X104648000Y-104648000D03*
%TD*%
D12*
%TO.P,C1,1*%
%TO.N,Net-(C1-Pad1)*%
X109728000Y-107188000D03*
D13*
%TO.P,C1,2*%
%TO.N,GND*%
X109728000Y-104688000D03*
%TD*%
D15*
%TO.P,ProMini1,1,1*%
%TO.N,unconnected-(ProMini1-Pad1)*%
X110490000Y-89535000D03*
%TO.P,ProMini1,2,2*%
%TO.N,unconnected-(ProMini1-Pad2)*%
X110490000Y-86995000D03*
%TO.P,ProMini1,3,3*%
%TO.N,unconnected-(ProMini1-Pad3)*%
X110490000Y-84455000D03*
%TO.P,ProMini1,18,18*%
%TO.N,unconnected-(ProMini1-Pad18)*%
X95250000Y-74295000D03*
%TO.P,ProMini1,19,19*%
%TO.N,unconnected-(ProMini1-Pad19)*%
X95250000Y-76835000D03*
%TO.P,ProMini1,20,20*%
%TO.N,unconnected-(ProMini1-Pad20)*%
X95250000Y-79375000D03*
%TO.P,ProMini1,22,22*%
%TO.N,unconnected-(ProMini1-Pad22)*%
X95250000Y-84455000D03*
%TO.P,ProMini1,DI00,DI00*%
%TO.N,Net-(ProMini1-PadDI00)*%
X110490000Y-79375000D03*
%TO.P,ProMini1,GND1,GND1*%
%TO.N,GND*%
X110490000Y-81915000D03*
%TO.P,ProMini1,GND2,GND2*%
%TO.N,Net-(ExtraGND1-Pad1)*%
X95250000Y-86995000D03*
%TO.P,ProMini1,MISO,MISO*%
%TO.N,Net-(ProMini1-PadMISO)*%
X95250000Y-66675000D03*
%TO.P,ProMini1,MOSI,MOSI*%
%TO.N,Net-(ProMini1-PadMOSI)*%
X95250000Y-64135000D03*
%TO.P,ProMini1,NSS,NSS*%
%TO.N,Net-(ProMini1-PadNSS)*%
X95250000Y-61595000D03*
%TO.P,ProMini1,RAW,RAW*%
%TO.N,unconnected-(ProMini1-PadRAW)*%
X95250000Y-89535000D03*
%TO.P,ProMini1,SCK,SCK*%
%TO.N,Net-(ProMini1-PadSCK)*%
X95250000Y-69215000D03*
%TO.P,ProMini1,SCL,SCL*%
%TO.N,Net-(HDC1080-Pad4)*%
X97790000Y-80645000D03*
%TO.P,ProMini1,SDA,SDA*%
%TO.N,Net-(HDC1080-Pad3)*%
X97790000Y-78105000D03*
%TO.P,ProMini1,VCC,VCC*%
%TO.N,Net-(C2-Pad1)*%
X95250000Y-81915000D03*
%TO.P,ProMini1,VolDiv,VolDiv*%
%TO.N,Net-(C1-Pad1)*%
X95250000Y-71755000D03*
%TD*%
D10*
%TO.P,ExtraGND1,1,Pin_1*%
%TO.N,Net-(ExtraGND1-Pad1)*%
X99568000Y-83820000D03*
D11*
%TO.P,ExtraGND1,2,Pin_2*%
X99568000Y-86360000D03*
%TO.P,ExtraGND1,3,Pin_3*%
X99568000Y-88900000D03*
%TD*%
D16*
%TO.N,Net-(HDC1080-Pad4)*%
X98044000Y-52832000D02*
X96300081Y-54575919D01*
X96300081Y-54575919D02*
X96300081Y-79155081D01*
X96300081Y-79155081D02*
X97790000Y-80645000D01*
%TO.N,Net-(HDC1080-Pad3)*%
X100584000Y-52832000D02*
X100584000Y-75311000D01*
X100584000Y-75311000D02*
X97790000Y-78105000D01*
%TO.N,Net-(C1-Pad1)*%
X94488000Y-72136000D02*
X94869000Y-72136000D01*
X94869000Y-72136000D02*
X95250000Y-71755000D01*
X94199919Y-72424081D02*
X94488000Y-72136000D01*
X94199919Y-92675919D02*
X94199919Y-72424081D01*
X94488000Y-92964000D02*
X94199919Y-92675919D01*
X94488000Y-92964000D02*
X94488000Y-104648000D01*
%TO.N,Net-(C2-Pad1)*%
X103124000Y-52832000D02*
X105156000Y-54864000D01*
X105156000Y-54864000D02*
X105156000Y-83820000D01*
%TO.N,GND*%
X107203000Y-97521000D02*
X107203000Y-102163000D01*
X108219000Y-97521000D02*
X107203000Y-97521000D01*
X107203000Y-97521000D02*
X103632000Y-97521000D01*
X109220000Y-83185000D02*
X109220000Y-96520000D01*
X107203000Y-102163000D02*
X109728000Y-104688000D01*
X110490000Y-81915000D02*
X109220000Y-83185000D01*
X109220000Y-96520000D02*
X108219000Y-97521000D01*
D17*
%TO.N,+3V3*%
X95612511Y-103000489D02*
X95612511Y-106571489D01*
X103632000Y-94981000D02*
X95612511Y-103000489D01*
X95612511Y-106571489D02*
X94488000Y-107696000D01*
%TD*%
M02*
