%TF.GenerationSoftware,KiCad,Pcbnew,6.0.2+dfsg-1*%
%TF.CreationDate,2024-09-24T11:13:19+02:00*%
%TF.ProjectId,shield,73686965-6c64-42e6-9b69-6361645f7063,rev?*%
%TF.SameCoordinates,Original*%
%TF.FileFunction,Legend,Top*%
%TF.FilePolarity,Positive*%
%FSLAX46Y46*%
G04 Gerber Fmt 4.6, Leading zero omitted, Abs format (unit mm)*
G04 Created by KiCad (PCBNEW 6.0.2+dfsg-1) date 2024-09-24 11:13:19*
%MOMM*%
%LPD*%
G01*
G04 APERTURE LIST*
%ADD10C,0.150000*%
%ADD11C,0.125000*%
%ADD12C,0.100000*%
%ADD13C,0.160000*%
%ADD14C,0.120000*%
%ADD15C,1.501140*%
G04 APERTURE END LIST*
D10*
X115062000Y-107203000D02*
X115570000Y-107203000D01*
X93412000Y-104300000D02*
X113224000Y-104300000D01*
D11*
X102747142Y-93872857D02*
X102866190Y-94206190D01*
X102985238Y-93872857D01*
X103437619Y-94206190D02*
X103151904Y-94206190D01*
X103294761Y-94206190D02*
X103294761Y-93706190D01*
X103247142Y-93777619D01*
X103199523Y-93825238D01*
X103151904Y-93849047D01*
X103866190Y-94206190D02*
X103866190Y-93944285D01*
X103842380Y-93896666D01*
X103794761Y-93872857D01*
X103699523Y-93872857D01*
X103651904Y-93896666D01*
X103866190Y-94182380D02*
X103818571Y-94206190D01*
X103699523Y-94206190D01*
X103651904Y-94182380D01*
X103628095Y-94134761D01*
X103628095Y-94087142D01*
X103651904Y-94039523D01*
X103699523Y-94015714D01*
X103818571Y-94015714D01*
X103866190Y-93991904D01*
X104175714Y-94206190D02*
X104128095Y-94182380D01*
X104104285Y-94134761D01*
X104104285Y-93706190D01*
X104366190Y-93872857D02*
X104366190Y-94372857D01*
X104366190Y-93896666D02*
X104413809Y-93872857D01*
X104509047Y-93872857D01*
X104556666Y-93896666D01*
X104580476Y-93920476D01*
X104604285Y-93968095D01*
X104604285Y-94110952D01*
X104580476Y-94158571D01*
X104556666Y-94182380D01*
X104509047Y-94206190D01*
X104413809Y-94206190D01*
X104366190Y-94182380D01*
X104818571Y-94206190D02*
X104818571Y-93706190D01*
X105032857Y-94206190D02*
X105032857Y-93944285D01*
X105009047Y-93896666D01*
X104961428Y-93872857D01*
X104890000Y-93872857D01*
X104842380Y-93896666D01*
X104818571Y-93920476D01*
X105485238Y-94206190D02*
X105485238Y-93944285D01*
X105461428Y-93896666D01*
X105413809Y-93872857D01*
X105318571Y-93872857D01*
X105270952Y-93896666D01*
X105485238Y-94182380D02*
X105437619Y-94206190D01*
X105318571Y-94206190D01*
X105270952Y-94182380D01*
X105247142Y-94134761D01*
X105247142Y-94087142D01*
X105270952Y-94039523D01*
X105318571Y-94015714D01*
X105437619Y-94015714D01*
X105485238Y-93991904D01*
D10*
X101214571Y-102676904D02*
X101262190Y-102534047D01*
X101309809Y-102486428D01*
X101405047Y-102438809D01*
X101547904Y-102438809D01*
X101643142Y-102486428D01*
X101690761Y-102534047D01*
X101738380Y-102629285D01*
X101738380Y-103010238D01*
X100738380Y-103010238D01*
X100738380Y-102676904D01*
X100786000Y-102581666D01*
X100833619Y-102534047D01*
X100928857Y-102486428D01*
X101024095Y-102486428D01*
X101119333Y-102534047D01*
X101166952Y-102581666D01*
X101214571Y-102676904D01*
X101214571Y-103010238D01*
X101738380Y-101867380D02*
X101690761Y-101962619D01*
X101643142Y-102010238D01*
X101547904Y-102057857D01*
X101262190Y-102057857D01*
X101166952Y-102010238D01*
X101119333Y-101962619D01*
X101071714Y-101867380D01*
X101071714Y-101724523D01*
X101119333Y-101629285D01*
X101166952Y-101581666D01*
X101262190Y-101534047D01*
X101547904Y-101534047D01*
X101643142Y-101581666D01*
X101690761Y-101629285D01*
X101738380Y-101724523D01*
X101738380Y-101867380D01*
X101738380Y-100962619D02*
X101690761Y-101057857D01*
X101643142Y-101105476D01*
X101547904Y-101153095D01*
X101262190Y-101153095D01*
X101166952Y-101105476D01*
X101119333Y-101057857D01*
X101071714Y-100962619D01*
X101071714Y-100819761D01*
X101119333Y-100724523D01*
X101166952Y-100676904D01*
X101262190Y-100629285D01*
X101547904Y-100629285D01*
X101643142Y-100676904D01*
X101690761Y-100724523D01*
X101738380Y-100819761D01*
X101738380Y-100962619D01*
X101690761Y-100248333D02*
X101738380Y-100153095D01*
X101738380Y-99962619D01*
X101690761Y-99867380D01*
X101595523Y-99819761D01*
X101547904Y-99819761D01*
X101452666Y-99867380D01*
X101405047Y-99962619D01*
X101405047Y-100105476D01*
X101357428Y-100200714D01*
X101262190Y-100248333D01*
X101214571Y-100248333D01*
X101119333Y-100200714D01*
X101071714Y-100105476D01*
X101071714Y-99962619D01*
X101119333Y-99867380D01*
X101071714Y-99534047D02*
X101071714Y-99153095D01*
X100738380Y-99391190D02*
X101595523Y-99391190D01*
X101690761Y-99343571D01*
X101738380Y-99248333D01*
X101738380Y-99153095D01*
X101690761Y-98438809D02*
X101738380Y-98534047D01*
X101738380Y-98724523D01*
X101690761Y-98819761D01*
X101595523Y-98867380D01*
X101214571Y-98867380D01*
X101119333Y-98819761D01*
X101071714Y-98724523D01*
X101071714Y-98534047D01*
X101119333Y-98438809D01*
X101214571Y-98391190D01*
X101309809Y-98391190D01*
X101405047Y-98867380D01*
X101738380Y-97962619D02*
X101071714Y-97962619D01*
X101262190Y-97962619D02*
X101166952Y-97915000D01*
X101119333Y-97867380D01*
X101071714Y-97772142D01*
X101071714Y-97676904D01*
D11*
X99489142Y-92174190D02*
X99489142Y-91674190D01*
X99679619Y-91674190D01*
X99727238Y-91698000D01*
X99751047Y-91721809D01*
X99774857Y-91769428D01*
X99774857Y-91840857D01*
X99751047Y-91888476D01*
X99727238Y-91912285D01*
X99679619Y-91936095D01*
X99489142Y-91936095D01*
X99989142Y-92174190D02*
X99989142Y-91840857D01*
X99989142Y-91936095D02*
X100012952Y-91888476D01*
X100036761Y-91864666D01*
X100084380Y-91840857D01*
X100132000Y-91840857D01*
X100370095Y-92174190D02*
X100322476Y-92150380D01*
X100298666Y-92126571D01*
X100274857Y-92078952D01*
X100274857Y-91936095D01*
X100298666Y-91888476D01*
X100322476Y-91864666D01*
X100370095Y-91840857D01*
X100441523Y-91840857D01*
X100489142Y-91864666D01*
X100512952Y-91888476D01*
X100536761Y-91936095D01*
X100536761Y-92078952D01*
X100512952Y-92126571D01*
X100489142Y-92150380D01*
X100441523Y-92174190D01*
X100370095Y-92174190D01*
X101132000Y-92174190D02*
X101132000Y-91674190D01*
X101298666Y-92031333D01*
X101465333Y-91674190D01*
X101465333Y-92174190D01*
X101703428Y-92174190D02*
X101703428Y-91840857D01*
X101703428Y-91674190D02*
X101679619Y-91698000D01*
X101703428Y-91721809D01*
X101727238Y-91698000D01*
X101703428Y-91674190D01*
X101703428Y-91721809D01*
X101941523Y-91840857D02*
X101941523Y-92174190D01*
X101941523Y-91888476D02*
X101965333Y-91864666D01*
X102012952Y-91840857D01*
X102084380Y-91840857D01*
X102132000Y-91864666D01*
X102155809Y-91912285D01*
X102155809Y-92174190D01*
X102393904Y-92174190D02*
X102393904Y-91840857D01*
X102393904Y-91674190D02*
X102370095Y-91698000D01*
X102393904Y-91721809D01*
X102417714Y-91698000D01*
X102393904Y-91674190D01*
X102393904Y-91721809D01*
X103012952Y-92174190D02*
X103012952Y-91674190D01*
X103012952Y-91912285D02*
X103298666Y-91912285D01*
X103298666Y-92174190D02*
X103298666Y-91674190D01*
X103727238Y-92150380D02*
X103679619Y-92174190D01*
X103584380Y-92174190D01*
X103536761Y-92150380D01*
X103512952Y-92102761D01*
X103512952Y-91912285D01*
X103536761Y-91864666D01*
X103584380Y-91840857D01*
X103679619Y-91840857D01*
X103727238Y-91864666D01*
X103751047Y-91912285D01*
X103751047Y-91959904D01*
X103512952Y-92007523D01*
X104179619Y-92174190D02*
X104179619Y-91912285D01*
X104155809Y-91864666D01*
X104108190Y-91840857D01*
X104012952Y-91840857D01*
X103965333Y-91864666D01*
X104179619Y-92150380D02*
X104132000Y-92174190D01*
X104012952Y-92174190D01*
X103965333Y-92150380D01*
X103941523Y-92102761D01*
X103941523Y-92055142D01*
X103965333Y-92007523D01*
X104012952Y-91983714D01*
X104132000Y-91983714D01*
X104179619Y-91959904D01*
X104632000Y-92174190D02*
X104632000Y-91674190D01*
X104632000Y-92150380D02*
X104584380Y-92174190D01*
X104489142Y-92174190D01*
X104441523Y-92150380D01*
X104417714Y-92126571D01*
X104393904Y-92078952D01*
X104393904Y-91936095D01*
X104417714Y-91888476D01*
X104441523Y-91864666D01*
X104489142Y-91840857D01*
X104584380Y-91840857D01*
X104632000Y-91864666D01*
X105060571Y-92150380D02*
X105012952Y-92174190D01*
X104917714Y-92174190D01*
X104870095Y-92150380D01*
X104846285Y-92102761D01*
X104846285Y-91912285D01*
X104870095Y-91864666D01*
X104917714Y-91840857D01*
X105012952Y-91840857D01*
X105060571Y-91864666D01*
X105084380Y-91912285D01*
X105084380Y-91959904D01*
X104846285Y-92007523D01*
X105298666Y-92174190D02*
X105298666Y-91840857D01*
X105298666Y-91936095D02*
X105322476Y-91888476D01*
X105346285Y-91864666D01*
X105393904Y-91840857D01*
X105441523Y-91840857D01*
X105584380Y-92150380D02*
X105632000Y-92174190D01*
X105727238Y-92174190D01*
X105774857Y-92150380D01*
X105798666Y-92102761D01*
X105798666Y-92078952D01*
X105774857Y-92031333D01*
X105727238Y-92007523D01*
X105655809Y-92007523D01*
X105608190Y-91983714D01*
X105584380Y-91936095D01*
X105584380Y-91912285D01*
X105608190Y-91864666D01*
X105655809Y-91840857D01*
X105727238Y-91840857D01*
X105774857Y-91864666D01*
X106393904Y-92174190D02*
X106393904Y-91674190D01*
X106608190Y-92174190D02*
X106608190Y-91912285D01*
X106584380Y-91864666D01*
X106536761Y-91840857D01*
X106465333Y-91840857D01*
X106417714Y-91864666D01*
X106393904Y-91888476D01*
X107036761Y-92150380D02*
X106989142Y-92174190D01*
X106893904Y-92174190D01*
X106846285Y-92150380D01*
X106822476Y-92102761D01*
X106822476Y-91912285D01*
X106846285Y-91864666D01*
X106893904Y-91840857D01*
X106989142Y-91840857D01*
X107036761Y-91864666D01*
X107060571Y-91912285D01*
X107060571Y-91959904D01*
X106822476Y-92007523D01*
X107274857Y-92174190D02*
X107274857Y-91840857D01*
X107274857Y-91936095D02*
X107298666Y-91888476D01*
X107322476Y-91864666D01*
X107370095Y-91840857D01*
X107417714Y-91840857D01*
X107774857Y-92150380D02*
X107727238Y-92174190D01*
X107632000Y-92174190D01*
X107584380Y-92150380D01*
X107560571Y-92102761D01*
X107560571Y-91912285D01*
X107584380Y-91864666D01*
X107632000Y-91840857D01*
X107727238Y-91840857D01*
X107774857Y-91864666D01*
X107798666Y-91912285D01*
X107798666Y-91959904D01*
X107560571Y-92007523D01*
X105100000Y-100795952D02*
X105076190Y-100843571D01*
X105076190Y-100915000D01*
X105100000Y-100986428D01*
X105147619Y-101034047D01*
X105195238Y-101057857D01*
X105290476Y-101081666D01*
X105361904Y-101081666D01*
X105457142Y-101057857D01*
X105504761Y-101034047D01*
X105552380Y-100986428D01*
X105576190Y-100915000D01*
X105576190Y-100867380D01*
X105552380Y-100795952D01*
X105528571Y-100772142D01*
X105361904Y-100772142D01*
X105361904Y-100867380D01*
X105576190Y-100557857D02*
X105076190Y-100557857D01*
X105576190Y-100272142D01*
X105076190Y-100272142D01*
X105576190Y-100034047D02*
X105076190Y-100034047D01*
X105076190Y-99915000D01*
X105100000Y-99843571D01*
X105147619Y-99795952D01*
X105195238Y-99772142D01*
X105290476Y-99748333D01*
X105361904Y-99748333D01*
X105457142Y-99772142D01*
X105504761Y-99795952D01*
X105552380Y-99843571D01*
X105576190Y-99915000D01*
X105576190Y-100034047D01*
X112549809Y-79390857D02*
X112526000Y-79367047D01*
X112502190Y-79319428D01*
X112502190Y-79200380D01*
X112526000Y-79152761D01*
X112549809Y-79128952D01*
X112597428Y-79105142D01*
X112645047Y-79105142D01*
X112716476Y-79128952D01*
X113002190Y-79414666D01*
X113002190Y-79105142D01*
X112502190Y-90027047D02*
X112502190Y-89741333D01*
X113002190Y-89884190D02*
X112502190Y-89884190D01*
X112502190Y-89622285D02*
X113002190Y-89288952D01*
X112502190Y-89288952D02*
X113002190Y-89622285D01*
X112502190Y-89003238D02*
X112502190Y-88955619D01*
X112526000Y-88908000D01*
X112549809Y-88884190D01*
X112597428Y-88860380D01*
X112692666Y-88836571D01*
X112811714Y-88836571D01*
X112906952Y-88860380D01*
X112954571Y-88884190D01*
X112978380Y-88908000D01*
X113002190Y-88955619D01*
X113002190Y-89003238D01*
X112978380Y-89050857D01*
X112954571Y-89074666D01*
X112906952Y-89098476D01*
X112811714Y-89122285D01*
X112692666Y-89122285D01*
X112597428Y-89098476D01*
X112549809Y-89074666D01*
X112526000Y-89050857D01*
X112502190Y-89003238D01*
D10*
X94610571Y-102486428D02*
X94658190Y-102343571D01*
X94705809Y-102295952D01*
X94801047Y-102248333D01*
X94943904Y-102248333D01*
X95039142Y-102295952D01*
X95086761Y-102343571D01*
X95134380Y-102438809D01*
X95134380Y-102819761D01*
X94134380Y-102819761D01*
X94134380Y-102486428D01*
X94182000Y-102391190D01*
X94229619Y-102343571D01*
X94324857Y-102295952D01*
X94420095Y-102295952D01*
X94515333Y-102343571D01*
X94562952Y-102391190D01*
X94610571Y-102486428D01*
X94610571Y-102819761D01*
X95134380Y-101391190D02*
X94610571Y-101391190D01*
X94515333Y-101438809D01*
X94467714Y-101534047D01*
X94467714Y-101724523D01*
X94515333Y-101819761D01*
X95086761Y-101391190D02*
X95134380Y-101486428D01*
X95134380Y-101724523D01*
X95086761Y-101819761D01*
X94991523Y-101867380D01*
X94896285Y-101867380D01*
X94801047Y-101819761D01*
X94753428Y-101724523D01*
X94753428Y-101486428D01*
X94705809Y-101391190D01*
X94467714Y-101057857D02*
X94467714Y-100676904D01*
X94134380Y-100915000D02*
X94991523Y-100915000D01*
X95086761Y-100867380D01*
X95134380Y-100772142D01*
X95134380Y-100676904D01*
X94467714Y-100486428D02*
X94467714Y-100105476D01*
X94134380Y-100343571D02*
X94991523Y-100343571D01*
X95086761Y-100295952D01*
X95134380Y-100200714D01*
X95134380Y-100105476D01*
X95086761Y-99391190D02*
X95134380Y-99486428D01*
X95134380Y-99676904D01*
X95086761Y-99772142D01*
X94991523Y-99819761D01*
X94610571Y-99819761D01*
X94515333Y-99772142D01*
X94467714Y-99676904D01*
X94467714Y-99486428D01*
X94515333Y-99391190D01*
X94610571Y-99343571D01*
X94705809Y-99343571D01*
X94801047Y-99819761D01*
X95134380Y-98915000D02*
X94467714Y-98915000D01*
X94658190Y-98915000D02*
X94562952Y-98867380D01*
X94515333Y-98819761D01*
X94467714Y-98724523D01*
X94467714Y-98629285D01*
X94467714Y-98391190D02*
X95134380Y-98153095D01*
X94467714Y-97915000D02*
X95134380Y-98153095D01*
X95372476Y-98248333D01*
X95420095Y-98295952D01*
X95467714Y-98391190D01*
X95626571Y-98422426D02*
X95626571Y-99184331D01*
X95245619Y-98803379D02*
X96007523Y-98803379D01*
D11*
X96746190Y-61563238D02*
X96746190Y-61848952D01*
X96746190Y-61706095D02*
X96246190Y-61706095D01*
X96317619Y-61753714D01*
X96365238Y-61801333D01*
X96389047Y-61848952D01*
X96246190Y-61253714D02*
X96246190Y-61206095D01*
X96270000Y-61158476D01*
X96293809Y-61134666D01*
X96341428Y-61110857D01*
X96436666Y-61087047D01*
X96555714Y-61087047D01*
X96650952Y-61110857D01*
X96698571Y-61134666D01*
X96722380Y-61158476D01*
X96746190Y-61206095D01*
X96746190Y-61253714D01*
X96722380Y-61301333D01*
X96698571Y-61325142D01*
X96650952Y-61348952D01*
X96555714Y-61372761D01*
X96436666Y-61372761D01*
X96341428Y-61348952D01*
X96293809Y-61325142D01*
X96270000Y-61301333D01*
X96246190Y-61253714D01*
X105076190Y-103466904D02*
X105576190Y-103300238D01*
X105076190Y-103133571D01*
X105576190Y-102966904D02*
X105242857Y-102966904D01*
X105076190Y-102966904D02*
X105100000Y-102990714D01*
X105123809Y-102966904D01*
X105100000Y-102943095D01*
X105076190Y-102966904D01*
X105123809Y-102966904D01*
X105242857Y-102728809D02*
X105576190Y-102728809D01*
X105290476Y-102728809D02*
X105266666Y-102705000D01*
X105242857Y-102657380D01*
X105242857Y-102585952D01*
X105266666Y-102538333D01*
X105314285Y-102514523D01*
X105576190Y-102514523D01*
X96746190Y-89753238D02*
X96508095Y-89919904D01*
X96746190Y-90038952D02*
X96246190Y-90038952D01*
X96246190Y-89848476D01*
X96270000Y-89800857D01*
X96293809Y-89777047D01*
X96341428Y-89753238D01*
X96412857Y-89753238D01*
X96460476Y-89777047D01*
X96484285Y-89800857D01*
X96508095Y-89848476D01*
X96508095Y-90038952D01*
X96603333Y-89562761D02*
X96603333Y-89324666D01*
X96746190Y-89610380D02*
X96246190Y-89443714D01*
X96746190Y-89277047D01*
X96246190Y-89158000D02*
X96746190Y-89038952D01*
X96389047Y-88943714D01*
X96746190Y-88848476D01*
X96246190Y-88729428D01*
D10*
X95626571Y-100962426D02*
X95626571Y-101724331D01*
D11*
X105283047Y-54614000D02*
X105235428Y-54590190D01*
X105164000Y-54590190D01*
X105092571Y-54614000D01*
X105044952Y-54661619D01*
X105021142Y-54709238D01*
X104997333Y-54804476D01*
X104997333Y-54875904D01*
X105021142Y-54971142D01*
X105044952Y-55018761D01*
X105092571Y-55066380D01*
X105164000Y-55090190D01*
X105211619Y-55090190D01*
X105283047Y-55066380D01*
X105306857Y-55042571D01*
X105306857Y-54875904D01*
X105211619Y-54875904D01*
X105521142Y-55090190D02*
X105521142Y-54590190D01*
X105806857Y-55090190D01*
X105806857Y-54590190D01*
X106044952Y-55090190D02*
X106044952Y-54590190D01*
X106164000Y-54590190D01*
X106235428Y-54614000D01*
X106283047Y-54661619D01*
X106306857Y-54709238D01*
X106330666Y-54804476D01*
X106330666Y-54875904D01*
X106306857Y-54971142D01*
X106283047Y-55018761D01*
X106235428Y-55066380D01*
X106164000Y-55090190D01*
X106044952Y-55090190D01*
X97448761Y-55066380D02*
X97520190Y-55090190D01*
X97639238Y-55090190D01*
X97686857Y-55066380D01*
X97710666Y-55042571D01*
X97734476Y-54994952D01*
X97734476Y-54947333D01*
X97710666Y-54899714D01*
X97686857Y-54875904D01*
X97639238Y-54852095D01*
X97544000Y-54828285D01*
X97496380Y-54804476D01*
X97472571Y-54780666D01*
X97448761Y-54733047D01*
X97448761Y-54685428D01*
X97472571Y-54637809D01*
X97496380Y-54614000D01*
X97544000Y-54590190D01*
X97663047Y-54590190D01*
X97734476Y-54614000D01*
X98234476Y-55042571D02*
X98210666Y-55066380D01*
X98139238Y-55090190D01*
X98091619Y-55090190D01*
X98020190Y-55066380D01*
X97972571Y-55018761D01*
X97948761Y-54971142D01*
X97924952Y-54875904D01*
X97924952Y-54804476D01*
X97948761Y-54709238D01*
X97972571Y-54661619D01*
X98020190Y-54614000D01*
X98091619Y-54590190D01*
X98139238Y-54590190D01*
X98210666Y-54614000D01*
X98234476Y-54637809D01*
X98686857Y-55090190D02*
X98448761Y-55090190D01*
X98448761Y-54590190D01*
X105076190Y-98636904D02*
X105576190Y-98470238D01*
X105076190Y-98303571D01*
X105576190Y-98065476D02*
X105552380Y-98113095D01*
X105528571Y-98136904D01*
X105480952Y-98160714D01*
X105338095Y-98160714D01*
X105290476Y-98136904D01*
X105266666Y-98113095D01*
X105242857Y-98065476D01*
X105242857Y-97994047D01*
X105266666Y-97946428D01*
X105290476Y-97922619D01*
X105338095Y-97898809D01*
X105480952Y-97898809D01*
X105528571Y-97922619D01*
X105552380Y-97946428D01*
X105576190Y-97994047D01*
X105576190Y-98065476D01*
X105242857Y-97470238D02*
X105576190Y-97470238D01*
X105242857Y-97684523D02*
X105504761Y-97684523D01*
X105552380Y-97660714D01*
X105576190Y-97613095D01*
X105576190Y-97541666D01*
X105552380Y-97494047D01*
X105528571Y-97470238D01*
X105242857Y-97303571D02*
X105242857Y-97113095D01*
X105076190Y-97232142D02*
X105504761Y-97232142D01*
X105552380Y-97208333D01*
X105576190Y-97160714D01*
X105576190Y-97113095D01*
D12*
X99361904Y-105305952D02*
X99495238Y-105705952D01*
X99628571Y-105305952D01*
X99819047Y-105705952D02*
X99780952Y-105686904D01*
X99761904Y-105667857D01*
X99742857Y-105629761D01*
X99742857Y-105515476D01*
X99761904Y-105477380D01*
X99780952Y-105458333D01*
X99819047Y-105439285D01*
X99876190Y-105439285D01*
X99914285Y-105458333D01*
X99933333Y-105477380D01*
X99952380Y-105515476D01*
X99952380Y-105629761D01*
X99933333Y-105667857D01*
X99914285Y-105686904D01*
X99876190Y-105705952D01*
X99819047Y-105705952D01*
X100180952Y-105705952D02*
X100142857Y-105686904D01*
X100123809Y-105648809D01*
X100123809Y-105305952D01*
X100276190Y-105439285D02*
X100428571Y-105439285D01*
X100333333Y-105305952D02*
X100333333Y-105648809D01*
X100352380Y-105686904D01*
X100390476Y-105705952D01*
X100428571Y-105705952D01*
X100733333Y-105705952D02*
X100733333Y-105496428D01*
X100714285Y-105458333D01*
X100676190Y-105439285D01*
X100600000Y-105439285D01*
X100561904Y-105458333D01*
X100733333Y-105686904D02*
X100695238Y-105705952D01*
X100600000Y-105705952D01*
X100561904Y-105686904D01*
X100542857Y-105648809D01*
X100542857Y-105610714D01*
X100561904Y-105572619D01*
X100600000Y-105553571D01*
X100695238Y-105553571D01*
X100733333Y-105534523D01*
X101095238Y-105439285D02*
X101095238Y-105763095D01*
X101076190Y-105801190D01*
X101057142Y-105820238D01*
X101019047Y-105839285D01*
X100961904Y-105839285D01*
X100923809Y-105820238D01*
X101095238Y-105686904D02*
X101057142Y-105705952D01*
X100980952Y-105705952D01*
X100942857Y-105686904D01*
X100923809Y-105667857D01*
X100904761Y-105629761D01*
X100904761Y-105515476D01*
X100923809Y-105477380D01*
X100942857Y-105458333D01*
X100980952Y-105439285D01*
X101057142Y-105439285D01*
X101095238Y-105458333D01*
X101438095Y-105686904D02*
X101400000Y-105705952D01*
X101323809Y-105705952D01*
X101285714Y-105686904D01*
X101266666Y-105648809D01*
X101266666Y-105496428D01*
X101285714Y-105458333D01*
X101323809Y-105439285D01*
X101400000Y-105439285D01*
X101438095Y-105458333D01*
X101457142Y-105496428D01*
X101457142Y-105534523D01*
X101266666Y-105572619D01*
X101933333Y-105705952D02*
X101933333Y-105305952D01*
X102028571Y-105305952D01*
X102085714Y-105325000D01*
X102123809Y-105363095D01*
X102142857Y-105401190D01*
X102161904Y-105477380D01*
X102161904Y-105534523D01*
X102142857Y-105610714D01*
X102123809Y-105648809D01*
X102085714Y-105686904D01*
X102028571Y-105705952D01*
X101933333Y-105705952D01*
X102333333Y-105705952D02*
X102333333Y-105439285D01*
X102333333Y-105305952D02*
X102314285Y-105325000D01*
X102333333Y-105344047D01*
X102352380Y-105325000D01*
X102333333Y-105305952D01*
X102333333Y-105344047D01*
X102485714Y-105439285D02*
X102580952Y-105705952D01*
X102676190Y-105439285D01*
X102828571Y-105705952D02*
X102828571Y-105439285D01*
X102828571Y-105305952D02*
X102809523Y-105325000D01*
X102828571Y-105344047D01*
X102847619Y-105325000D01*
X102828571Y-105305952D01*
X102828571Y-105344047D01*
X103190476Y-105705952D02*
X103190476Y-105305952D01*
X103190476Y-105686904D02*
X103152380Y-105705952D01*
X103076190Y-105705952D01*
X103038095Y-105686904D01*
X103019047Y-105667857D01*
X103000000Y-105629761D01*
X103000000Y-105515476D01*
X103019047Y-105477380D01*
X103038095Y-105458333D01*
X103076190Y-105439285D01*
X103152380Y-105439285D01*
X103190476Y-105458333D01*
X103533333Y-105686904D02*
X103495238Y-105705952D01*
X103419047Y-105705952D01*
X103380952Y-105686904D01*
X103361904Y-105648809D01*
X103361904Y-105496428D01*
X103380952Y-105458333D01*
X103419047Y-105439285D01*
X103495238Y-105439285D01*
X103533333Y-105458333D01*
X103552380Y-105496428D01*
X103552380Y-105534523D01*
X103361904Y-105572619D01*
X103723809Y-105705952D02*
X103723809Y-105439285D01*
X103723809Y-105515476D02*
X103742857Y-105477380D01*
X103761904Y-105458333D01*
X103800000Y-105439285D01*
X103838095Y-105439285D01*
D10*
X104592380Y-68270095D02*
X104116190Y-68603428D01*
X104592380Y-68841523D02*
X103592380Y-68841523D01*
X103592380Y-68460571D01*
X103640000Y-68365333D01*
X103687619Y-68317714D01*
X103782857Y-68270095D01*
X103925714Y-68270095D01*
X104020952Y-68317714D01*
X104068571Y-68365333D01*
X104116190Y-68460571D01*
X104116190Y-68841523D01*
X104068571Y-67508190D02*
X104068571Y-67841523D01*
X104592380Y-67841523D02*
X103592380Y-67841523D01*
X103592380Y-67365333D01*
X104592380Y-66984380D02*
X103592380Y-66984380D01*
X104306666Y-66651047D01*
X103592380Y-66317714D01*
X104592380Y-66317714D01*
X103592380Y-65412952D02*
X103592380Y-65603428D01*
X103640000Y-65698666D01*
X103687619Y-65746285D01*
X103830476Y-65841523D01*
X104020952Y-65889142D01*
X104401904Y-65889142D01*
X104497142Y-65841523D01*
X104544761Y-65793904D01*
X104592380Y-65698666D01*
X104592380Y-65508190D01*
X104544761Y-65412952D01*
X104497142Y-65365333D01*
X104401904Y-65317714D01*
X104163809Y-65317714D01*
X104068571Y-65365333D01*
X104020952Y-65412952D01*
X103973333Y-65508190D01*
X103973333Y-65698666D01*
X104020952Y-65793904D01*
X104068571Y-65841523D01*
X104163809Y-65889142D01*
X104592380Y-64841523D02*
X104592380Y-64651047D01*
X104544761Y-64555809D01*
X104497142Y-64508190D01*
X104354285Y-64412952D01*
X104163809Y-64365333D01*
X103782857Y-64365333D01*
X103687619Y-64412952D01*
X103640000Y-64460571D01*
X103592380Y-64555809D01*
X103592380Y-64746285D01*
X103640000Y-64841523D01*
X103687619Y-64889142D01*
X103782857Y-64936761D01*
X104020952Y-64936761D01*
X104116190Y-64889142D01*
X104163809Y-64841523D01*
X104211428Y-64746285D01*
X104211428Y-64555809D01*
X104163809Y-64460571D01*
X104116190Y-64412952D01*
X104020952Y-64365333D01*
X104592380Y-63936761D02*
X103592380Y-63936761D01*
X104068571Y-63936761D02*
X104068571Y-63365333D01*
X104592380Y-63365333D02*
X103592380Y-63365333D01*
X103592380Y-62984380D02*
X104592380Y-62746285D01*
X103878095Y-62555809D01*
X104592380Y-62365333D01*
X103592380Y-62127238D01*
X101528571Y-89931428D02*
X101528571Y-89598095D01*
X102052380Y-89455238D02*
X102052380Y-89931428D01*
X101052380Y-89931428D01*
X101052380Y-89455238D01*
X102052380Y-89121904D02*
X101385714Y-88598095D01*
X101385714Y-89121904D02*
X102052380Y-88598095D01*
X101385714Y-88360000D02*
X101385714Y-87979047D01*
X101052380Y-88217142D02*
X101909523Y-88217142D01*
X102004761Y-88169523D01*
X102052380Y-88074285D01*
X102052380Y-87979047D01*
X102052380Y-87645714D02*
X101385714Y-87645714D01*
X101576190Y-87645714D02*
X101480952Y-87598095D01*
X101433333Y-87550476D01*
X101385714Y-87455238D01*
X101385714Y-87360000D01*
X102052380Y-86598095D02*
X101528571Y-86598095D01*
X101433333Y-86645714D01*
X101385714Y-86740952D01*
X101385714Y-86931428D01*
X101433333Y-87026666D01*
X102004761Y-86598095D02*
X102052380Y-86693333D01*
X102052380Y-86931428D01*
X102004761Y-87026666D01*
X101909523Y-87074285D01*
X101814285Y-87074285D01*
X101719047Y-87026666D01*
X101671428Y-86931428D01*
X101671428Y-86693333D01*
X101623809Y-86598095D01*
X101100000Y-84836190D02*
X101052380Y-84931428D01*
X101052380Y-85074285D01*
X101100000Y-85217142D01*
X101195238Y-85312380D01*
X101290476Y-85360000D01*
X101480952Y-85407619D01*
X101623809Y-85407619D01*
X101814285Y-85360000D01*
X101909523Y-85312380D01*
X102004761Y-85217142D01*
X102052380Y-85074285D01*
X102052380Y-84979047D01*
X102004761Y-84836190D01*
X101957142Y-84788571D01*
X101623809Y-84788571D01*
X101623809Y-84979047D01*
X102052380Y-84360000D02*
X101052380Y-84360000D01*
X102052380Y-83788571D01*
X101052380Y-83788571D01*
X102052380Y-83312380D02*
X101052380Y-83312380D01*
X101052380Y-83074285D01*
X101100000Y-82931428D01*
X101195238Y-82836190D01*
X101290476Y-82788571D01*
X101480952Y-82740952D01*
X101623809Y-82740952D01*
X101814285Y-82788571D01*
X101909523Y-82836190D01*
X102004761Y-82931428D01*
X102052380Y-83074285D01*
X102052380Y-83312380D01*
X100528380Y-61182095D02*
X99528380Y-61182095D01*
X100528380Y-60610666D01*
X99528380Y-60610666D01*
X100480761Y-60182095D02*
X100528380Y-60039238D01*
X100528380Y-59801142D01*
X100480761Y-59705904D01*
X100433142Y-59658285D01*
X100337904Y-59610666D01*
X100242666Y-59610666D01*
X100147428Y-59658285D01*
X100099809Y-59705904D01*
X100052190Y-59801142D01*
X100004571Y-59991619D01*
X99956952Y-60086857D01*
X99909333Y-60134476D01*
X99814095Y-60182095D01*
X99718857Y-60182095D01*
X99623619Y-60134476D01*
X99576000Y-60086857D01*
X99528380Y-59991619D01*
X99528380Y-59753523D01*
X99576000Y-59610666D01*
X100480761Y-59229714D02*
X100528380Y-59086857D01*
X100528380Y-58848761D01*
X100480761Y-58753523D01*
X100433142Y-58705904D01*
X100337904Y-58658285D01*
X100242666Y-58658285D01*
X100147428Y-58705904D01*
X100099809Y-58753523D01*
X100052190Y-58848761D01*
X100004571Y-59039238D01*
X99956952Y-59134476D01*
X99909333Y-59182095D01*
X99814095Y-59229714D01*
X99718857Y-59229714D01*
X99623619Y-59182095D01*
X99576000Y-59134476D01*
X99528380Y-59039238D01*
X99528380Y-58801142D01*
X99576000Y-58658285D01*
%TO.C,C2*%
X112819142Y-103629666D02*
X112866761Y-103677285D01*
X112914380Y-103820142D01*
X112914380Y-103915380D01*
X112866761Y-104058238D01*
X112771523Y-104153476D01*
X112676285Y-104201095D01*
X112485809Y-104248714D01*
X112342952Y-104248714D01*
X112152476Y-104201095D01*
X112057238Y-104153476D01*
X111962000Y-104058238D01*
X111914380Y-103915380D01*
X111914380Y-103820142D01*
X111962000Y-103677285D01*
X112009619Y-103629666D01*
X112009619Y-103248714D02*
X111962000Y-103201095D01*
X111914380Y-103105857D01*
X111914380Y-102867761D01*
X111962000Y-102772523D01*
X112009619Y-102724904D01*
X112104857Y-102677285D01*
X112200095Y-102677285D01*
X112342952Y-102724904D01*
X112914380Y-103296333D01*
X112914380Y-102677285D01*
X112832974Y-103631420D02*
X112880593Y-103679039D01*
X112928212Y-103821896D01*
X112928212Y-103917134D01*
X112880593Y-104059992D01*
X112785355Y-104155230D01*
X112690117Y-104202849D01*
X112499641Y-104250468D01*
X112356784Y-104250468D01*
X112166308Y-104202849D01*
X112071070Y-104155230D01*
X111975832Y-104059992D01*
X111928212Y-103917134D01*
X111928212Y-103821896D01*
X111975832Y-103679039D01*
X112023451Y-103631420D01*
X112023451Y-103250468D02*
X111975832Y-103202849D01*
X111928212Y-103107611D01*
X111928212Y-102869515D01*
X111975832Y-102774277D01*
X112023451Y-102726658D01*
X112118689Y-102679039D01*
X112213927Y-102679039D01*
X112356784Y-102726658D01*
X112928212Y-103298087D01*
X112928212Y-102679039D01*
%TO.C,R1*%
X99401333Y-111550380D02*
X99068000Y-111074190D01*
X98829904Y-111550380D02*
X98829904Y-110550380D01*
X99210857Y-110550380D01*
X99306095Y-110598000D01*
X99353714Y-110645619D01*
X99401333Y-110740857D01*
X99401333Y-110883714D01*
X99353714Y-110978952D01*
X99306095Y-111026571D01*
X99210857Y-111074190D01*
X98829904Y-111074190D01*
X100353714Y-111550380D02*
X99782285Y-111550380D01*
X100068000Y-111550380D02*
X100068000Y-110550380D01*
X99972761Y-110693238D01*
X99877523Y-110788476D01*
X99782285Y-110836095D01*
%TO.C,Extra3v3*%
X107116571Y-89360000D02*
X107116571Y-89026666D01*
X107640380Y-88883809D02*
X107640380Y-89360000D01*
X106640380Y-89360000D01*
X106640380Y-88883809D01*
X107640380Y-88550476D02*
X106973714Y-88026666D01*
X106973714Y-88550476D02*
X107640380Y-88026666D01*
X106973714Y-87788571D02*
X106973714Y-87407619D01*
X106640380Y-87645714D02*
X107497523Y-87645714D01*
X107592761Y-87598095D01*
X107640380Y-87502857D01*
X107640380Y-87407619D01*
X107640380Y-87074285D02*
X106973714Y-87074285D01*
X107164190Y-87074285D02*
X107068952Y-87026666D01*
X107021333Y-86979047D01*
X106973714Y-86883809D01*
X106973714Y-86788571D01*
X107640380Y-86026666D02*
X107116571Y-86026666D01*
X107021333Y-86074285D01*
X106973714Y-86169523D01*
X106973714Y-86360000D01*
X107021333Y-86455238D01*
X107592761Y-86026666D02*
X107640380Y-86121904D01*
X107640380Y-86360000D01*
X107592761Y-86455238D01*
X107497523Y-86502857D01*
X107402285Y-86502857D01*
X107307047Y-86455238D01*
X107259428Y-86360000D01*
X107259428Y-86121904D01*
X107211809Y-86026666D01*
X106640380Y-85645714D02*
X106640380Y-85026666D01*
X107021333Y-85360000D01*
X107021333Y-85217142D01*
X107068952Y-85121904D01*
X107116571Y-85074285D01*
X107211809Y-85026666D01*
X107449904Y-85026666D01*
X107545142Y-85074285D01*
X107592761Y-85121904D01*
X107640380Y-85217142D01*
X107640380Y-85502857D01*
X107592761Y-85598095D01*
X107545142Y-85645714D01*
X106973714Y-84693333D02*
X107640380Y-84455238D01*
X106973714Y-84217142D01*
X106640380Y-83931428D02*
X106640380Y-83312380D01*
X107021333Y-83645714D01*
X107021333Y-83502857D01*
X107068952Y-83407619D01*
X107116571Y-83360000D01*
X107211809Y-83312380D01*
X107449904Y-83312380D01*
X107545142Y-83360000D01*
X107592761Y-83407619D01*
X107640380Y-83502857D01*
X107640380Y-83788571D01*
X107592761Y-83883809D01*
X107545142Y-83931428D01*
D11*
%TO.C,HDC1080*%
X111776190Y-54427238D02*
X111276190Y-54427238D01*
X111514285Y-54427238D02*
X111514285Y-54141523D01*
X111776190Y-54141523D02*
X111276190Y-54141523D01*
X111776190Y-53903428D02*
X111276190Y-53903428D01*
X111276190Y-53784380D01*
X111300000Y-53712952D01*
X111347619Y-53665333D01*
X111395238Y-53641523D01*
X111490476Y-53617714D01*
X111561904Y-53617714D01*
X111657142Y-53641523D01*
X111704761Y-53665333D01*
X111752380Y-53712952D01*
X111776190Y-53784380D01*
X111776190Y-53903428D01*
X111728571Y-53117714D02*
X111752380Y-53141523D01*
X111776190Y-53212952D01*
X111776190Y-53260571D01*
X111752380Y-53332000D01*
X111704761Y-53379619D01*
X111657142Y-53403428D01*
X111561904Y-53427238D01*
X111490476Y-53427238D01*
X111395238Y-53403428D01*
X111347619Y-53379619D01*
X111300000Y-53332000D01*
X111276190Y-53260571D01*
X111276190Y-53212952D01*
X111300000Y-53141523D01*
X111323809Y-53117714D01*
X111776190Y-52641523D02*
X111776190Y-52927238D01*
X111776190Y-52784380D02*
X111276190Y-52784380D01*
X111347619Y-52832000D01*
X111395238Y-52879619D01*
X111419047Y-52927238D01*
X111276190Y-52332000D02*
X111276190Y-52284380D01*
X111300000Y-52236761D01*
X111323809Y-52212952D01*
X111371428Y-52189142D01*
X111466666Y-52165333D01*
X111585714Y-52165333D01*
X111680952Y-52189142D01*
X111728571Y-52212952D01*
X111752380Y-52236761D01*
X111776190Y-52284380D01*
X111776190Y-52332000D01*
X111752380Y-52379619D01*
X111728571Y-52403428D01*
X111680952Y-52427238D01*
X111585714Y-52451047D01*
X111466666Y-52451047D01*
X111371428Y-52427238D01*
X111323809Y-52403428D01*
X111300000Y-52379619D01*
X111276190Y-52332000D01*
X111490476Y-51879619D02*
X111466666Y-51927238D01*
X111442857Y-51951047D01*
X111395238Y-51974857D01*
X111371428Y-51974857D01*
X111323809Y-51951047D01*
X111300000Y-51927238D01*
X111276190Y-51879619D01*
X111276190Y-51784380D01*
X111300000Y-51736761D01*
X111323809Y-51712952D01*
X111371428Y-51689142D01*
X111395238Y-51689142D01*
X111442857Y-51712952D01*
X111466666Y-51736761D01*
X111490476Y-51784380D01*
X111490476Y-51879619D01*
X111514285Y-51927238D01*
X111538095Y-51951047D01*
X111585714Y-51974857D01*
X111680952Y-51974857D01*
X111728571Y-51951047D01*
X111752380Y-51927238D01*
X111776190Y-51879619D01*
X111776190Y-51784380D01*
X111752380Y-51736761D01*
X111728571Y-51712952D01*
X111680952Y-51689142D01*
X111585714Y-51689142D01*
X111538095Y-51712952D01*
X111514285Y-51736761D01*
X111490476Y-51784380D01*
X111276190Y-51379619D02*
X111276190Y-51332000D01*
X111300000Y-51284380D01*
X111323809Y-51260571D01*
X111371428Y-51236761D01*
X111466666Y-51212952D01*
X111585714Y-51212952D01*
X111680952Y-51236761D01*
X111728571Y-51260571D01*
X111752380Y-51284380D01*
X111776190Y-51332000D01*
X111776190Y-51379619D01*
X111752380Y-51427238D01*
X111728571Y-51451047D01*
X111680952Y-51474857D01*
X111585714Y-51498666D01*
X111466666Y-51498666D01*
X111371428Y-51474857D01*
X111323809Y-51451047D01*
X111300000Y-51427238D01*
X111276190Y-51379619D01*
D10*
%TO.C,R2*%
X99401333Y-108502380D02*
X99068000Y-108026190D01*
X98829904Y-108502380D02*
X98829904Y-107502380D01*
X99210857Y-107502380D01*
X99306095Y-107550000D01*
X99353714Y-107597619D01*
X99401333Y-107692857D01*
X99401333Y-107835714D01*
X99353714Y-107930952D01*
X99306095Y-107978571D01*
X99210857Y-108026190D01*
X98829904Y-108026190D01*
X99782285Y-107597619D02*
X99829904Y-107550000D01*
X99925142Y-107502380D01*
X100163238Y-107502380D01*
X100258476Y-107550000D01*
X100306095Y-107597619D01*
X100353714Y-107692857D01*
X100353714Y-107788095D01*
X100306095Y-107930952D01*
X99734666Y-108502380D01*
X100353714Y-108502380D01*
%TO.C,C1*%
X106529142Y-112280666D02*
X106576761Y-112328285D01*
X106624380Y-112471142D01*
X106624380Y-112566380D01*
X106576761Y-112709238D01*
X106481523Y-112804476D01*
X106386285Y-112852095D01*
X106195809Y-112899714D01*
X106052952Y-112899714D01*
X105862476Y-112852095D01*
X105767238Y-112804476D01*
X105672000Y-112709238D01*
X105624380Y-112566380D01*
X105624380Y-112471142D01*
X105672000Y-112328285D01*
X105719619Y-112280666D01*
X106624380Y-111328285D02*
X106624380Y-111899714D01*
X106624380Y-111614000D02*
X105624380Y-111614000D01*
X105767238Y-111709238D01*
X105862476Y-111804476D01*
X105910095Y-111899714D01*
X114485142Y-115101904D02*
X114532761Y-115149523D01*
X114580380Y-115292380D01*
X114580380Y-115387619D01*
X114532761Y-115530476D01*
X114437523Y-115625714D01*
X114342285Y-115673333D01*
X114151809Y-115720952D01*
X114008952Y-115720952D01*
X113818476Y-115673333D01*
X113723238Y-115625714D01*
X113628000Y-115530476D01*
X113580380Y-115387619D01*
X113580380Y-115292380D01*
X113628000Y-115149523D01*
X113675619Y-115101904D01*
X113580380Y-114054285D02*
X114580380Y-113720952D01*
X113580380Y-113387619D01*
X114580380Y-112911428D02*
X114532761Y-113006666D01*
X114485142Y-113054285D01*
X114389904Y-113101904D01*
X114104190Y-113101904D01*
X114008952Y-113054285D01*
X113961333Y-113006666D01*
X113913714Y-112911428D01*
X113913714Y-112768571D01*
X113961333Y-112673333D01*
X114008952Y-112625714D01*
X114104190Y-112578095D01*
X114389904Y-112578095D01*
X114485142Y-112625714D01*
X114532761Y-112673333D01*
X114580380Y-112768571D01*
X114580380Y-112911428D01*
X114580380Y-112006666D02*
X114532761Y-112101904D01*
X114437523Y-112149523D01*
X113580380Y-112149523D01*
X113913714Y-111768571D02*
X113913714Y-111387619D01*
X113580380Y-111625714D02*
X114437523Y-111625714D01*
X114532761Y-111578095D01*
X114580380Y-111482857D01*
X114580380Y-111387619D01*
X114580380Y-110625714D02*
X114056571Y-110625714D01*
X113961333Y-110673333D01*
X113913714Y-110768571D01*
X113913714Y-110959047D01*
X113961333Y-111054285D01*
X114532761Y-110625714D02*
X114580380Y-110720952D01*
X114580380Y-110959047D01*
X114532761Y-111054285D01*
X114437523Y-111101904D01*
X114342285Y-111101904D01*
X114247047Y-111054285D01*
X114199428Y-110959047D01*
X114199428Y-110720952D01*
X114151809Y-110625714D01*
X113913714Y-109720952D02*
X114723238Y-109720952D01*
X114818476Y-109768571D01*
X114866095Y-109816190D01*
X114913714Y-109911428D01*
X114913714Y-110054285D01*
X114866095Y-110149523D01*
X114532761Y-109720952D02*
X114580380Y-109816190D01*
X114580380Y-110006666D01*
X114532761Y-110101904D01*
X114485142Y-110149523D01*
X114389904Y-110197142D01*
X114104190Y-110197142D01*
X114008952Y-110149523D01*
X113961333Y-110101904D01*
X113913714Y-110006666D01*
X113913714Y-109816190D01*
X113961333Y-109720952D01*
X114532761Y-108863809D02*
X114580380Y-108959047D01*
X114580380Y-109149523D01*
X114532761Y-109244761D01*
X114437523Y-109292380D01*
X114056571Y-109292380D01*
X113961333Y-109244761D01*
X113913714Y-109149523D01*
X113913714Y-108959047D01*
X113961333Y-108863809D01*
X114056571Y-108816190D01*
X114151809Y-108816190D01*
X114247047Y-109292380D01*
X114580380Y-107625714D02*
X113580380Y-107625714D01*
X113580380Y-107387619D01*
X113628000Y-107244761D01*
X113723238Y-107149523D01*
X113818476Y-107101904D01*
X114008952Y-107054285D01*
X114151809Y-107054285D01*
X114342285Y-107101904D01*
X114437523Y-107149523D01*
X114532761Y-107244761D01*
X114580380Y-107387619D01*
X114580380Y-107625714D01*
X114580380Y-106625714D02*
X113913714Y-106625714D01*
X113580380Y-106625714D02*
X113628000Y-106673333D01*
X113675619Y-106625714D01*
X113628000Y-106578095D01*
X113580380Y-106625714D01*
X113675619Y-106625714D01*
X113913714Y-106244761D02*
X114580380Y-106006666D01*
X113913714Y-105768571D01*
X114580380Y-105387619D02*
X113913714Y-105387619D01*
X113580380Y-105387619D02*
X113628000Y-105435238D01*
X113675619Y-105387619D01*
X113628000Y-105340000D01*
X113580380Y-105387619D01*
X113675619Y-105387619D01*
X114580380Y-104482857D02*
X113580380Y-104482857D01*
X114532761Y-104482857D02*
X114580380Y-104578095D01*
X114580380Y-104768571D01*
X114532761Y-104863809D01*
X114485142Y-104911428D01*
X114389904Y-104959047D01*
X114104190Y-104959047D01*
X114008952Y-104911428D01*
X113961333Y-104863809D01*
X113913714Y-104768571D01*
X113913714Y-104578095D01*
X113961333Y-104482857D01*
X114532761Y-103625714D02*
X114580380Y-103720952D01*
X114580380Y-103911428D01*
X114532761Y-104006666D01*
X114437523Y-104054285D01*
X114056571Y-104054285D01*
X113961333Y-104006666D01*
X113913714Y-103911428D01*
X113913714Y-103720952D01*
X113961333Y-103625714D01*
X114056571Y-103578095D01*
X114151809Y-103578095D01*
X114247047Y-104054285D01*
X114580380Y-103149523D02*
X113913714Y-103149523D01*
X114104190Y-103149523D02*
X114008952Y-103101904D01*
X113961333Y-103054285D01*
X113913714Y-102959047D01*
X113913714Y-102863809D01*
D13*
%TO.C,ProMini1*%
X115169904Y-91935000D02*
X114369904Y-91935000D01*
X114369904Y-91630238D01*
X114408000Y-91554047D01*
X114446095Y-91515952D01*
X114522285Y-91477857D01*
X114636571Y-91477857D01*
X114712761Y-91515952D01*
X114750857Y-91554047D01*
X114788952Y-91630238D01*
X114788952Y-91935000D01*
X115169904Y-91135000D02*
X114636571Y-91135000D01*
X114788952Y-91135000D02*
X114712761Y-91096904D01*
X114674666Y-91058809D01*
X114636571Y-90982619D01*
X114636571Y-90906428D01*
X115169904Y-90525476D02*
X115131809Y-90601666D01*
X115093714Y-90639761D01*
X115017523Y-90677857D01*
X114788952Y-90677857D01*
X114712761Y-90639761D01*
X114674666Y-90601666D01*
X114636571Y-90525476D01*
X114636571Y-90411190D01*
X114674666Y-90335000D01*
X114712761Y-90296904D01*
X114788952Y-90258809D01*
X115017523Y-90258809D01*
X115093714Y-90296904D01*
X115131809Y-90335000D01*
X115169904Y-90411190D01*
X115169904Y-90525476D01*
X115169904Y-89915952D02*
X114369904Y-89915952D01*
X114941333Y-89649285D01*
X114369904Y-89382619D01*
X115169904Y-89382619D01*
X115169904Y-89001666D02*
X114636571Y-89001666D01*
X114369904Y-89001666D02*
X114408000Y-89039761D01*
X114446095Y-89001666D01*
X114408000Y-88963571D01*
X114369904Y-89001666D01*
X114446095Y-89001666D01*
X114636571Y-88620714D02*
X115169904Y-88620714D01*
X114712761Y-88620714D02*
X114674666Y-88582619D01*
X114636571Y-88506428D01*
X114636571Y-88392142D01*
X114674666Y-88315952D01*
X114750857Y-88277857D01*
X115169904Y-88277857D01*
X115169904Y-87896904D02*
X114636571Y-87896904D01*
X114369904Y-87896904D02*
X114408000Y-87935000D01*
X114446095Y-87896904D01*
X114408000Y-87858809D01*
X114369904Y-87896904D01*
X114446095Y-87896904D01*
X115169904Y-87096904D02*
X115169904Y-87554047D01*
X115169904Y-87325476D02*
X114369904Y-87325476D01*
X114484190Y-87401666D01*
X114560380Y-87477857D01*
X114598476Y-87554047D01*
D10*
X99520952Y-79192380D02*
X99520952Y-78192380D01*
X99901904Y-78192380D01*
X99997142Y-78240000D01*
X100044761Y-78287619D01*
X100092380Y-78382857D01*
X100092380Y-78525714D01*
X100044761Y-78620952D01*
X99997142Y-78668571D01*
X99901904Y-78716190D01*
X99520952Y-78716190D01*
X100520952Y-79192380D02*
X100520952Y-78525714D01*
X100520952Y-78716190D02*
X100568571Y-78620952D01*
X100616190Y-78573333D01*
X100711428Y-78525714D01*
X100806666Y-78525714D01*
X101282857Y-79192380D02*
X101187619Y-79144761D01*
X101140000Y-79097142D01*
X101092380Y-79001904D01*
X101092380Y-78716190D01*
X101140000Y-78620952D01*
X101187619Y-78573333D01*
X101282857Y-78525714D01*
X101425714Y-78525714D01*
X101520952Y-78573333D01*
X101568571Y-78620952D01*
X101616190Y-78716190D01*
X101616190Y-79001904D01*
X101568571Y-79097142D01*
X101520952Y-79144761D01*
X101425714Y-79192380D01*
X101282857Y-79192380D01*
X102806666Y-79192380D02*
X102806666Y-78192380D01*
X103140000Y-78906666D01*
X103473333Y-78192380D01*
X103473333Y-79192380D01*
X103949523Y-79192380D02*
X103949523Y-78525714D01*
X103949523Y-78192380D02*
X103901904Y-78240000D01*
X103949523Y-78287619D01*
X103997142Y-78240000D01*
X103949523Y-78192380D01*
X103949523Y-78287619D01*
X104425714Y-78525714D02*
X104425714Y-79192380D01*
X104425714Y-78620952D02*
X104473333Y-78573333D01*
X104568571Y-78525714D01*
X104711428Y-78525714D01*
X104806666Y-78573333D01*
X104854285Y-78668571D01*
X104854285Y-79192380D01*
X105330476Y-79192380D02*
X105330476Y-78525714D01*
X105330476Y-78192380D02*
X105282857Y-78240000D01*
X105330476Y-78287619D01*
X105378095Y-78240000D01*
X105330476Y-78192380D01*
X105330476Y-78287619D01*
X106473333Y-78192380D02*
X107092380Y-78192380D01*
X106759047Y-78573333D01*
X106901904Y-78573333D01*
X106997142Y-78620952D01*
X107044761Y-78668571D01*
X107092380Y-78763809D01*
X107092380Y-79001904D01*
X107044761Y-79097142D01*
X106997142Y-79144761D01*
X106901904Y-79192380D01*
X106616190Y-79192380D01*
X106520952Y-79144761D01*
X106473333Y-79097142D01*
X107425714Y-78525714D02*
X107663809Y-79192380D01*
X107901904Y-78525714D01*
X108187619Y-78192380D02*
X108806666Y-78192380D01*
X108473333Y-78573333D01*
X108616190Y-78573333D01*
X108711428Y-78620952D01*
X108759047Y-78668571D01*
X108806666Y-78763809D01*
X108806666Y-79001904D01*
X108759047Y-79097142D01*
X108711428Y-79144761D01*
X108616190Y-79192380D01*
X108330476Y-79192380D01*
X108235238Y-79144761D01*
X108187619Y-79097142D01*
D12*
%TO.C,RFM69HW1*%
X96575000Y-76090000D02*
X96575000Y-66090000D01*
X96575000Y-55990000D02*
X96975000Y-55990000D01*
X112975000Y-76090000D02*
X112975000Y-75590000D01*
X112575000Y-76090000D02*
X112975000Y-76090000D01*
X96575000Y-56490000D02*
X96575000Y-55990000D01*
X112975000Y-56490000D02*
X112975000Y-55990000D01*
X112575000Y-55990000D02*
X112975000Y-55990000D01*
X96575000Y-76090000D02*
X96975000Y-76090000D01*
D14*
%TO.C,C2*%
X113192000Y-100141000D02*
G75*
G03*
X113192000Y-100141000I-3270000J0D01*
G01*
X110724000Y-103302000D02*
X109120000Y-103302000D01*
X108882000Y-101782000D02*
X107132000Y-101782000D01*
X112874000Y-101462000D02*
X110962000Y-101462000D01*
X108882000Y-101822000D02*
X107156000Y-101822000D01*
X108882000Y-100461000D02*
X106707000Y-100461000D01*
X112302000Y-102342000D02*
X110962000Y-102342000D01*
X112955000Y-101262000D02*
X110962000Y-101262000D01*
X113149000Y-100301000D02*
X106695000Y-100301000D01*
X112227000Y-102422000D02*
X110962000Y-102422000D01*
X112014000Y-102622000D02*
X107830000Y-102622000D01*
X108882000Y-101662000D02*
X107066000Y-101662000D01*
X112996000Y-101142000D02*
X110962000Y-101142000D01*
X110862000Y-103262000D02*
X108982000Y-103262000D01*
X113063000Y-100902000D02*
X110962000Y-100902000D01*
X113144000Y-100381000D02*
X110962000Y-100381000D01*
X111636000Y-102902000D02*
X108208000Y-102902000D01*
X112818000Y-101582000D02*
X110962000Y-101582000D01*
X111917000Y-102702000D02*
X107927000Y-102702000D01*
X108882000Y-100741000D02*
X106747000Y-100741000D01*
X108882000Y-101542000D02*
X107006000Y-101542000D01*
X108882000Y-102142000D02*
X107374000Y-102142000D01*
X108882000Y-101302000D02*
X106904000Y-101302000D01*
X108882000Y-101342000D02*
X106920000Y-101342000D01*
X108882000Y-100621000D02*
X106727000Y-100621000D01*
X112470000Y-102142000D02*
X110962000Y-102142000D01*
X112778000Y-101662000D02*
X110962000Y-101662000D01*
X110981000Y-103222000D02*
X108863000Y-103222000D01*
X112983000Y-101182000D02*
X110962000Y-101182000D01*
X113150000Y-100261000D02*
X106694000Y-100261000D01*
X111866000Y-102742000D02*
X107978000Y-102742000D01*
X112856000Y-101502000D02*
X110962000Y-101502000D01*
X112187000Y-102462000D02*
X107657000Y-102462000D01*
X113081000Y-100821000D02*
X110962000Y-100821000D01*
X108882000Y-102382000D02*
X107579000Y-102382000D01*
X108882000Y-101222000D02*
X106875000Y-101222000D01*
X108882000Y-101582000D02*
X107026000Y-101582000D01*
X112529000Y-102062000D02*
X110962000Y-102062000D01*
X113152000Y-100141000D02*
X106692000Y-100141000D01*
X112798000Y-101622000D02*
X110962000Y-101622000D01*
X113104000Y-100701000D02*
X110962000Y-100701000D01*
X110555000Y-103342000D02*
X109289000Y-103342000D01*
X112406000Y-102222000D02*
X110962000Y-102222000D01*
X112712000Y-101782000D02*
X110962000Y-101782000D01*
X108882000Y-100821000D02*
X106763000Y-100821000D01*
X112908000Y-101382000D02*
X110962000Y-101382000D01*
X113123000Y-100581000D02*
X110962000Y-100581000D01*
X108882000Y-101862000D02*
X107180000Y-101862000D01*
X108882000Y-100661000D02*
X106733000Y-100661000D01*
X112940000Y-101302000D02*
X110962000Y-101302000D01*
X111812000Y-102782000D02*
X108032000Y-102782000D01*
X108882000Y-102182000D02*
X107406000Y-102182000D01*
X113072000Y-100862000D02*
X110962000Y-100862000D01*
X112146000Y-102502000D02*
X107698000Y-102502000D01*
X113117000Y-100621000D02*
X110962000Y-100621000D01*
X108882000Y-102062000D02*
X107315000Y-102062000D01*
X113152000Y-100181000D02*
X106692000Y-100181000D01*
X113020000Y-101062000D02*
X110962000Y-101062000D01*
X113152000Y-100221000D02*
X106692000Y-100221000D01*
X112372000Y-102262000D02*
X110962000Y-102262000D01*
X112664000Y-101862000D02*
X110962000Y-101862000D01*
X108882000Y-100781000D02*
X106755000Y-100781000D01*
X113053000Y-100942000D02*
X110962000Y-100942000D01*
X111184000Y-103142000D02*
X108660000Y-103142000D01*
X113097000Y-100741000D02*
X110962000Y-100741000D01*
X108882000Y-101622000D02*
X107046000Y-101622000D01*
X108882000Y-100541000D02*
X106716000Y-100541000D01*
X112104000Y-102542000D02*
X107740000Y-102542000D01*
X112265000Y-102382000D02*
X110962000Y-102382000D01*
X112338000Y-102302000D02*
X110962000Y-102302000D01*
X108882000Y-100421000D02*
X106704000Y-100421000D01*
X108882000Y-101742000D02*
X107110000Y-101742000D01*
X108882000Y-100982000D02*
X106801000Y-100982000D01*
X108882000Y-101382000D02*
X106936000Y-101382000D01*
X112892000Y-101422000D02*
X110962000Y-101422000D01*
X108882000Y-102222000D02*
X107438000Y-102222000D01*
X108882000Y-102422000D02*
X107617000Y-102422000D01*
X113140000Y-100421000D02*
X110962000Y-100421000D01*
X113146000Y-100341000D02*
X106698000Y-100341000D01*
X108882000Y-102302000D02*
X107506000Y-102302000D01*
X112586000Y-101982000D02*
X110962000Y-101982000D01*
X108882000Y-101182000D02*
X106861000Y-101182000D01*
X108882000Y-100942000D02*
X106791000Y-100942000D01*
X111572000Y-102942000D02*
X108272000Y-102942000D01*
X111756000Y-102822000D02*
X108088000Y-102822000D01*
X113137000Y-100461000D02*
X110962000Y-100461000D01*
X108882000Y-101902000D02*
X107206000Y-101902000D01*
X112500000Y-102102000D02*
X110962000Y-102102000D01*
X111966000Y-102662000D02*
X107878000Y-102662000D01*
X113128000Y-100541000D02*
X110962000Y-100541000D01*
X108882000Y-101142000D02*
X106848000Y-101142000D01*
X112076000Y-96955759D02*
X111446000Y-96955759D01*
X113089000Y-100781000D02*
X110962000Y-100781000D01*
X112756000Y-101702000D02*
X110962000Y-101702000D01*
X108882000Y-101262000D02*
X106889000Y-101262000D01*
X108882000Y-101102000D02*
X106836000Y-101102000D01*
X111087000Y-103182000D02*
X108757000Y-103182000D01*
X108882000Y-101022000D02*
X106812000Y-101022000D01*
X111272000Y-103102000D02*
X108572000Y-103102000D01*
X108882000Y-102022000D02*
X107286000Y-102022000D01*
X113032000Y-101022000D02*
X110962000Y-101022000D01*
X108882000Y-101062000D02*
X106824000Y-101062000D01*
X113043000Y-100982000D02*
X110962000Y-100982000D01*
X108882000Y-100581000D02*
X106721000Y-100581000D01*
X112612000Y-101942000D02*
X110962000Y-101942000D01*
X112688000Y-101822000D02*
X110962000Y-101822000D01*
X113008000Y-101102000D02*
X110962000Y-101102000D01*
X108882000Y-100501000D02*
X106711000Y-100501000D01*
X111431000Y-103022000D02*
X108413000Y-103022000D01*
X112734000Y-101742000D02*
X110962000Y-101742000D01*
X108882000Y-100701000D02*
X106740000Y-100701000D01*
X112969000Y-101222000D02*
X110962000Y-101222000D01*
X108882000Y-100862000D02*
X106772000Y-100862000D01*
X112638000Y-101902000D02*
X110962000Y-101902000D01*
X108882000Y-102342000D02*
X107542000Y-102342000D01*
X108882000Y-101942000D02*
X107232000Y-101942000D01*
X108882000Y-102262000D02*
X107472000Y-102262000D01*
X111354000Y-103062000D02*
X108490000Y-103062000D01*
X108882000Y-101462000D02*
X106970000Y-101462000D01*
X112059000Y-102582000D02*
X107785000Y-102582000D01*
X112924000Y-101342000D02*
X110962000Y-101342000D01*
X111761000Y-96640759D02*
X111761000Y-97270759D01*
X111503000Y-102982000D02*
X108341000Y-102982000D01*
X110324000Y-103382000D02*
X109520000Y-103382000D01*
X112838000Y-101542000D02*
X110962000Y-101542000D01*
X112438000Y-102182000D02*
X110962000Y-102182000D01*
X113133000Y-100501000D02*
X110962000Y-100501000D01*
X108882000Y-101702000D02*
X107088000Y-101702000D01*
X108882000Y-101502000D02*
X106988000Y-101502000D01*
X108882000Y-101422000D02*
X106952000Y-101422000D01*
X113111000Y-100661000D02*
X110962000Y-100661000D01*
X108882000Y-101982000D02*
X107258000Y-101982000D01*
X111698000Y-102862000D02*
X108146000Y-102862000D01*
X108882000Y-102102000D02*
X107344000Y-102102000D01*
X112558000Y-102022000D02*
X110962000Y-102022000D01*
X108882000Y-100381000D02*
X106700000Y-100381000D01*
X108882000Y-100902000D02*
X106781000Y-100902000D01*
%TO.C,Booster1*%
X101988000Y-96560000D02*
X103318000Y-96560000D01*
X101988000Y-97890000D02*
X101988000Y-96560000D01*
X101988000Y-104300000D02*
X104648000Y-104300000D01*
X104648000Y-99160000D02*
X104648000Y-104300000D01*
X101988000Y-99160000D02*
X104648000Y-99160000D01*
X101988000Y-99160000D02*
X101988000Y-104300000D01*
%TO.C,J2*%
X96400000Y-97561000D02*
X97730000Y-97561000D01*
X96400000Y-100161000D02*
X99060000Y-100161000D01*
X96400000Y-98891000D02*
X96400000Y-97561000D01*
X99060000Y-100161000D02*
X99060000Y-102761000D01*
X96400000Y-100161000D02*
X96400000Y-102761000D01*
X96400000Y-102761000D02*
X99060000Y-102761000D01*
%TO.C,R1*%
X96298000Y-109728000D02*
X96298000Y-112468000D01*
X102838000Y-109728000D02*
X96298000Y-109728000D01*
X96298000Y-112468000D02*
X102838000Y-112468000D01*
X103608000Y-111098000D02*
X102838000Y-111098000D01*
X102838000Y-112468000D02*
X102838000Y-109728000D01*
X95528000Y-111098000D02*
X96298000Y-111098000D01*
%TO.C,Extra3v3*%
X103826000Y-85090000D02*
X106486000Y-85090000D01*
X103826000Y-83820000D02*
X103826000Y-82490000D01*
X106486000Y-85090000D02*
X106486000Y-90230000D01*
X103826000Y-85090000D02*
X103826000Y-90230000D01*
X103826000Y-82490000D02*
X105156000Y-82490000D01*
X103826000Y-90230000D02*
X106486000Y-90230000D01*
%TO.C,HDC1080*%
X107950000Y-54162000D02*
X100270000Y-54162000D01*
X100270000Y-51502000D02*
X100270000Y-54162000D01*
X109220000Y-51502000D02*
X110550000Y-51502000D01*
X107950000Y-51502000D02*
X107950000Y-54162000D01*
X110550000Y-51502000D02*
X110550000Y-52832000D01*
X107950000Y-51502000D02*
X100270000Y-51502000D01*
%TO.C,R2*%
X96298000Y-109420000D02*
X102838000Y-109420000D01*
X102838000Y-109420000D02*
X102838000Y-106680000D01*
X103608000Y-108050000D02*
X102838000Y-108050000D01*
X96298000Y-106680000D02*
X96298000Y-109420000D01*
X102838000Y-106680000D02*
X96298000Y-106680000D01*
X95528000Y-108050000D02*
X96298000Y-108050000D01*
%TO.C,C1*%
X107180000Y-107339000D02*
X108688000Y-107339000D01*
X107463000Y-107019000D02*
X111993000Y-107019000D01*
X106506000Y-109100000D02*
X108688000Y-109100000D01*
X110768000Y-107219000D02*
X112178000Y-107219000D01*
X106794000Y-107979000D02*
X108688000Y-107979000D01*
X110768000Y-108619000D02*
X112878000Y-108619000D01*
X110768000Y-108019000D02*
X112680000Y-108019000D01*
X108378000Y-106379000D02*
X111078000Y-106379000D01*
X110768000Y-107259000D02*
X112212000Y-107259000D01*
X108788000Y-106219000D02*
X110668000Y-106219000D01*
X110768000Y-107939000D02*
X112644000Y-107939000D01*
X106498000Y-109300000D02*
X112958000Y-109300000D01*
X107212000Y-107299000D02*
X108688000Y-107299000D01*
X110768000Y-107099000D02*
X112071000Y-107099000D01*
X106539000Y-108820000D02*
X108688000Y-108820000D01*
X110768000Y-108259000D02*
X112775000Y-108259000D01*
X110768000Y-107299000D02*
X112244000Y-107299000D01*
X110768000Y-108379000D02*
X112814000Y-108379000D01*
X107733000Y-106779000D02*
X111723000Y-106779000D01*
X107894000Y-106659000D02*
X111562000Y-106659000D01*
X108219000Y-106459000D02*
X111237000Y-106459000D01*
X106578000Y-108619000D02*
X108688000Y-108619000D01*
X107838000Y-106699000D02*
X111618000Y-106699000D01*
X110768000Y-108539000D02*
X112859000Y-108539000D01*
X106522000Y-108940000D02*
X108688000Y-108940000D01*
X110768000Y-108219000D02*
X112761000Y-108219000D01*
X110768000Y-107619000D02*
X112470000Y-107619000D01*
X110768000Y-108780000D02*
X112910000Y-108780000D01*
X110768000Y-108459000D02*
X112838000Y-108459000D01*
X106500000Y-109220000D02*
X112956000Y-109220000D01*
X110768000Y-108740000D02*
X112903000Y-108740000D01*
X106587000Y-108579000D02*
X108688000Y-108579000D01*
X110768000Y-108579000D02*
X112869000Y-108579000D01*
X107546000Y-106939000D02*
X111910000Y-106939000D01*
X110768000Y-107859000D02*
X112604000Y-107859000D01*
X110768000Y-107379000D02*
X112306000Y-107379000D01*
X107092000Y-107459000D02*
X108688000Y-107459000D01*
X106546000Y-108780000D02*
X108688000Y-108780000D01*
X106527000Y-108900000D02*
X108688000Y-108900000D01*
X106501000Y-109180000D02*
X112955000Y-109180000D01*
X110768000Y-108900000D02*
X112929000Y-108900000D01*
X106695000Y-108219000D02*
X108688000Y-108219000D01*
X110768000Y-107139000D02*
X112108000Y-107139000D01*
X107385000Y-107099000D02*
X108688000Y-107099000D01*
X110768000Y-107179000D02*
X112144000Y-107179000D01*
X110768000Y-107739000D02*
X112540000Y-107739000D01*
X108563000Y-106299000D02*
X110893000Y-106299000D01*
X107038000Y-107539000D02*
X108688000Y-107539000D01*
X106618000Y-108459000D02*
X108688000Y-108459000D01*
X106812000Y-107939000D02*
X108688000Y-107939000D01*
X106962000Y-107659000D02*
X108688000Y-107659000D01*
X107064000Y-107499000D02*
X108688000Y-107499000D01*
X110768000Y-107699000D02*
X112518000Y-107699000D01*
X108466000Y-106339000D02*
X110990000Y-106339000D01*
X110768000Y-109100000D02*
X112950000Y-109100000D01*
X110768000Y-107659000D02*
X112494000Y-107659000D01*
X110768000Y-108179000D02*
X112746000Y-108179000D01*
X106569000Y-108660000D02*
X108688000Y-108660000D01*
X110768000Y-108860000D02*
X112923000Y-108860000D01*
X106776000Y-108019000D02*
X108688000Y-108019000D01*
X107012000Y-107579000D02*
X108688000Y-107579000D01*
X110768000Y-108980000D02*
X112939000Y-108980000D01*
X107504000Y-106979000D02*
X111952000Y-106979000D01*
X106630000Y-108419000D02*
X108688000Y-108419000D01*
X108926000Y-106179000D02*
X110530000Y-106179000D01*
X106513000Y-109020000D02*
X108688000Y-109020000D01*
X106726000Y-108139000D02*
X108688000Y-108139000D01*
X107150000Y-107379000D02*
X108688000Y-107379000D01*
X106517000Y-108980000D02*
X108688000Y-108980000D01*
X110768000Y-108940000D02*
X112934000Y-108940000D01*
X106553000Y-108740000D02*
X108688000Y-108740000D01*
X106561000Y-108700000D02*
X108688000Y-108700000D01*
X110768000Y-109020000D02*
X112943000Y-109020000D01*
X110768000Y-108339000D02*
X112802000Y-108339000D01*
X106533000Y-108860000D02*
X108688000Y-108860000D01*
X107423000Y-107059000D02*
X108688000Y-107059000D01*
X108147000Y-106499000D02*
X111309000Y-106499000D01*
X107784000Y-106739000D02*
X111672000Y-106739000D01*
X106916000Y-107739000D02*
X108688000Y-107739000D01*
X110768000Y-107339000D02*
X112276000Y-107339000D01*
X106681000Y-108259000D02*
X108688000Y-108259000D01*
X106504000Y-109140000D02*
X112952000Y-109140000D01*
X107348000Y-107139000D02*
X108688000Y-107139000D01*
X110768000Y-108099000D02*
X112714000Y-108099000D01*
X109326000Y-106099000D02*
X110130000Y-106099000D01*
X107636000Y-106859000D02*
X111820000Y-106859000D01*
X110768000Y-108700000D02*
X112895000Y-108700000D01*
X110768000Y-107819000D02*
X112584000Y-107819000D01*
X106710000Y-108179000D02*
X108688000Y-108179000D01*
X106742000Y-108099000D02*
X108688000Y-108099000D01*
X108296000Y-106419000D02*
X111160000Y-106419000D01*
X110768000Y-109060000D02*
X112946000Y-109060000D01*
X107591000Y-106899000D02*
X111865000Y-106899000D01*
X110768000Y-107059000D02*
X112033000Y-107059000D01*
X106607000Y-108499000D02*
X108688000Y-108499000D01*
X110768000Y-108139000D02*
X112730000Y-108139000D01*
X108669000Y-106259000D02*
X110787000Y-106259000D01*
X107278000Y-107219000D02*
X108688000Y-107219000D01*
X106642000Y-108379000D02*
X108688000Y-108379000D01*
X110768000Y-107899000D02*
X112624000Y-107899000D01*
X107312000Y-107179000D02*
X108688000Y-107179000D01*
X107244000Y-107259000D02*
X108688000Y-107259000D01*
X106938000Y-107699000D02*
X108688000Y-107699000D01*
X110768000Y-107419000D02*
X112335000Y-107419000D01*
X108014000Y-106579000D02*
X111442000Y-106579000D01*
X106832000Y-107899000D02*
X108688000Y-107899000D01*
X110768000Y-108419000D02*
X112826000Y-108419000D01*
X109095000Y-106139000D02*
X110361000Y-106139000D01*
X107889000Y-112840241D02*
X107889000Y-112210241D01*
X110768000Y-107499000D02*
X112392000Y-107499000D01*
X110768000Y-107779000D02*
X112562000Y-107779000D01*
X107121000Y-107419000D02*
X108688000Y-107419000D01*
X106852000Y-107859000D02*
X108688000Y-107859000D01*
X108078000Y-106539000D02*
X111378000Y-106539000D01*
X110768000Y-108820000D02*
X112917000Y-108820000D01*
X106498000Y-109260000D02*
X112958000Y-109260000D01*
X106986000Y-107619000D02*
X108688000Y-107619000D01*
X106894000Y-107779000D02*
X108688000Y-107779000D01*
X106498000Y-109340000D02*
X112958000Y-109340000D01*
X106667000Y-108299000D02*
X108688000Y-108299000D01*
X107952000Y-106619000D02*
X111504000Y-106619000D01*
X110768000Y-107539000D02*
X112418000Y-107539000D01*
X107684000Y-106819000D02*
X111772000Y-106819000D01*
X110768000Y-108059000D02*
X112698000Y-108059000D01*
X110768000Y-107579000D02*
X112444000Y-107579000D01*
X110768000Y-107459000D02*
X112364000Y-107459000D01*
X106510000Y-109060000D02*
X108688000Y-109060000D01*
X106597000Y-108539000D02*
X108688000Y-108539000D01*
X110768000Y-108660000D02*
X112887000Y-108660000D01*
X110768000Y-107979000D02*
X112662000Y-107979000D01*
X110768000Y-108499000D02*
X112849000Y-108499000D01*
X106758000Y-108059000D02*
X108688000Y-108059000D01*
X107574000Y-112525241D02*
X108204000Y-112525241D01*
X106872000Y-107819000D02*
X108688000Y-107819000D01*
X106654000Y-108339000D02*
X108688000Y-108339000D01*
X110768000Y-108299000D02*
X112789000Y-108299000D01*
X112998000Y-109340000D02*
G75*
G03*
X112998000Y-109340000I-3270000J0D01*
G01*
D10*
%TO.C,ProMini1*%
X112014000Y-60325000D02*
X93980000Y-60325000D01*
X93980000Y-93091000D02*
X93980000Y-60325000D01*
X112014000Y-60325000D02*
X112014000Y-93091000D01*
X93980000Y-93091000D02*
X112014000Y-93091000D01*
D14*
%TO.C,ExtraGND1*%
X98238000Y-83820000D02*
X98238000Y-82490000D01*
X98238000Y-85090000D02*
X98238000Y-90230000D01*
X98238000Y-85090000D02*
X100898000Y-85090000D01*
X98238000Y-82490000D02*
X99568000Y-82490000D01*
X98238000Y-90230000D02*
X100898000Y-90230000D01*
X100898000Y-85090000D02*
X100898000Y-90230000D01*
%TD*%
D15*
%TO.C,ProMini1*%
X110490000Y-89535000D03*
X110490000Y-86995000D03*
X110490000Y-84455000D03*
X95250000Y-74295000D03*
X95250000Y-76835000D03*
X95250000Y-79375000D03*
X95250000Y-84455000D03*
X110490000Y-79375000D03*
X110490000Y-81915000D03*
X95250000Y-86995000D03*
X95250000Y-66675000D03*
X95250000Y-64135000D03*
X95250000Y-61595000D03*
X95250000Y-89535000D03*
X95250000Y-69215000D03*
X97790000Y-80645000D03*
X97790000Y-78105000D03*
X95250000Y-81915000D03*
X95250000Y-71755000D03*
%TD*%
M02*
